<?xml version="1.0" encoding="utf-8"?>
<!-- Generator: Adobe Illustrator 22.1.0, SVG Export Plug-In . SVG Version: 6.00 Build 0)  -->
<svg version="1.1" id="Layer_1" xmlns="http://www.w3.org/2000/svg" xmlns:xlink="http://www.w3.org/1999/xlink" x="0px" y="0px"
	 viewBox="0 0 106.4 114.4" enable-background="new 0 0 106.4 114.4" xml:space="preserve">
<g id="XMLID_344_">
	<g>
		<g id="XMLID_1_">
			<g>
				<polygon fill="#FFFFFF" points="93.8,42.3 87.1,52.8 77.2,52.8 83.9,42.3 				"/>
				<polygon fill="#FFFFFF" points="66.9,42.3 60.2,52.8 50.3,52.8 57,42.3 				"/>
				<polygon fill="#FFFFFF" points="40,42.3 33.3,52.8 21.5,52.8 28.2,42.3 				"/>
				<polygon fill="#FFFFFF" points="86.2,6.4 83.1,18.5 73.7,21.6 76.8,9.5 				"/>
				<polygon fill="#FFFFFF" points="60.6,14.8 57.5,26.9 48.2,30 51.2,17.9 				"/>
				<polygon fill="#FFFFFF" points="35.1,23.3 32,35.4 26.8,37.1 20.9,27.9 				"/>
				<rect x="53.7" y="95.6" fill="#FFFFFF" width="38.4" height="5.9"/>
				<rect x="53.7" y="86.7" fill="#FFFFFF" width="38.4" height="5.9"/>
				<rect x="53.7" y="77.8" fill="#FFFFFF" width="38.4" height="5.9"/>
				<rect x="53.7" y="68.9" fill="#FFFFFF" width="38.4" height="5.9"/>
				<path fill="#18252F" d="M104.8,54.3h1.5c0,0.8-0.7,1.5-1.5,1.5V54.3z"/>
				<rect x="103.3" y="54.3" fill="#18252F" width="1.5" height="1.5"/>
				<polygon fill="#18252F" points="103.3,54.3 89.7,54.3 90.6,52.8 103.3,52.8 103.3,42.3 97.3,42.3 97.8,41.6 96.5,40.8 
					104.8,40.8 104.8,54.3 				"/>
				<path fill="#D4EAE3" d="M103.3,55.8v55.6H3V55.8h15.7H103.3z M95.1,103v-8.9v-8.9v-8.9v-8.9c0-0.8-0.7-1.5-1.5-1.5H52.2h0H12.8
					c-0.8,0-1.5,0.7-1.5,1.5V103c0,0.8,0.7,1.5,1.5,1.5h39.4h0h41.4C94.4,104.5,95.1,103.8,95.1,103z"/>
				<polygon fill="#F08576" points="103.3,42.3 103.3,52.8 90.6,52.8 97.3,42.3 				"/>
				<polygon fill="#F08576" points="95.2,3.4 98.5,13.4 86.5,17.4 89.5,5.3 				"/>
				<polygon fill="#18252F" points="97.8,41.6 97.3,42.3 95.6,42.3 96.5,40.8 				"/>
				<polygon fill="#18252F" points="97.3,42.3 90.6,52.8 88.9,52.8 95.6,42.3 				"/>
				<polygon fill="#18252F" points="96.5,40.8 95.6,42.3 93.8,42.3 95.2,40 				"/>
				<polygon fill="#18252F" points="95.6,42.3 88.9,52.8 87.1,52.8 93.8,42.3 				"/>
				<polygon fill="#18252F" points="95.2,3.4 89.5,5.3 89.7,4.5 88.3,4.1 88.3,4.1 96.2,1.5 100.4,14.3 86,19.1 86.5,17.4 
					98.5,13.4 				"/>
				<path fill="#18252F" d="M95.1,85.2v8.9c0-0.8-0.7-1.5-1.5-1.5v-7.4H95.1z"/>
				<path fill="#18252F" d="M95.1,76.3h-1.5v-1.5C94.4,74.8,95.1,75.5,95.1,76.3z"/>
				<path fill="#18252F" d="M95.1,76.3v8.9c0-0.8-0.7-1.5-1.5-1.5v-7.4H95.1z"/>
				<path fill="#18252F" d="M95.1,85.2h-1.5v-1.5C94.4,83.7,95.1,84.4,95.1,85.2z"/>
				<path fill="#18252F" d="M95.1,94.1h-1.5v-1.5C94.4,92.6,95.1,93.2,95.1,94.1z"/>
				<path fill="#18252F" d="M93.6,104.5H52.2c0.8,0,1.5-0.7,1.5-1.5h39.9v-8.9h1.5v8.9C95.1,103.8,94.4,104.5,93.6,104.5z"/>
				<rect x="92.1" y="92.6" fill="#18252F" width="1.5" height="1.5"/>
				<rect x="92.1" y="83.7" fill="#18252F" width="1.5" height="1.5"/>
				<rect x="92.1" y="74.8" fill="#18252F" width="1.5" height="1.5"/>
				<path fill="#18252F" d="M93.6,67.4H53.7c0-0.8-0.7-1.5-1.5-1.5h41.4c0.8,0,1.5,0.7,1.5,1.5v8.9c0-0.8-0.7-1.5-1.5-1.5V67.4z"/>
				<polygon fill="#18252F" points="90.6,52.8 89.7,54.3 87.9,54.3 87.9,54.3 87.9,54.3 88.9,52.8 				"/>
				<polygon fill="#18252F" points="89.7,54.3 89.2,55.1 87.9,54.3 				"/>
				<path fill="#18252F" d="M88.7,5.5c0.1,0,0.1,0,0.2-0.1l0.6-0.2l-3.1,12.1l-1.7,0.6l3.1-12.1L88.7,5.5z"/>
				<path fill="#18252F" d="M88.9,5.5c-0.1,0-0.1,0-0.2,0.1l-0.9,0.3l0.4-1.7l1.5,0.4l-0.2,0.8L88.9,5.5z"/>
				<polygon fill="#18252F" points="88.9,52.8 87.9,54.3 86.6,53.5 87.1,52.8 				"/>
				<polygon fill="#18252F" points="88.3,4.1 87.8,5.8 86.2,6.4 86.8,3.8 				"/>
				<polygon fill="#18252F" points="87.9,54.3 87.9,54.3 76.2,54.3 77.2,52.8 87.1,52.8 86.6,53.5 				"/>
				<polygon fill="#18252F" points="87.8,5.8 84.8,17.9 83.1,18.5 86.2,6.4 				"/>
				<path fill="#18252F" d="M88.3,4.1L88.3,4.1l-1.4-0.4l-0.2-0.7l1-0.3c0.1,0,0.1,0,0.2-0.1l7.9-2.6c0.8-0.3,1.6,0.2,1.9,1
					l4.2,12.8c0.3,0.8-0.2,1.6-1,1.9L86,20.7L85.8,20l0.2-0.9l14.4-4.8L96.2,1.5L88.3,4.1z"/>
				<polygon fill="#18252F" points="86.5,17.4 86,19.1 84.3,19.7 84.8,17.9 				"/>
				<polygon fill="#18252F" points="86,19.1 85.8,20 84.3,19.7 				"/>
				<polygon fill="#18252F" points="84.8,17.9 84.3,19.7 82.9,19.3 83.1,18.5 				"/>
				<path fill="#18252F" d="M81.8,39.3h23c0.8,0,1.5,0.7,1.5,1.5v13.5h-1.5V40.8h-8.3L95.2,40l-1.5,2.3h-9.9l0.5-0.7l-1.3-0.8
					L81.8,40V39.3z"/>
				<polygon fill="#18252F" points="84.3,41.6 83.9,42.3 82.1,42.3 83.1,40.8 				"/>
				<polygon fill="#18252F" points="83.9,42.3 77.2,52.8 75.4,52.8 82.1,42.3 				"/>
				<polygon fill="#18252F" points="81.8,40 83.1,40.8 81.3,40.8 				"/>
				<polygon fill="#18252F" points="83.1,40.8 82.1,42.3 80.3,42.3 81.3,40.8 				"/>
				<polygon fill="#18252F" points="82.1,42.3 75.4,52.8 73.6,52.8 80.3,42.3 				"/>
				<polygon fill="#18252F" points="81.3,40.8 80.3,42.3 70.4,42.3 70.9,41.6 69.6,40.8 				"/>
				<polygon fill="#F08576" points="80.3,42.3 73.6,52.8 63.7,52.8 70.4,42.3 				"/>
				<polygon fill="#18252F" points="77.2,52.8 76.2,54.3 74.5,54.3 74.4,54.3 74.4,54.3 75.4,52.8 				"/>
				<polygon fill="#18252F" points="77,8.7 76.8,9.5 75.1,10.1 75.5,8.3 				"/>
				<polygon fill="#18252F" points="76.8,9.5 73.7,21.6 72,22.2 75.1,10.1 				"/>
				<polygon fill="#18252F" points="76.2,54.3 75.7,55.1 74.5,54.3 				"/>
				<polygon fill="#18252F" points="73.8,7.3 86.6,3.1 86.8,3.8 86.2,6.4 76.8,9.5 77,8.7 75.5,8.3 74.1,8 				"/>
				<polygon fill="#18252F" points="75.5,8.3 75.1,10.1 73.4,10.6 73.8,8.9 				"/>
				<polygon fill="#18252F" points="75.5,8.3 73.8,8.9 74.1,8 				"/>
				<polygon fill="#18252F" points="75.4,52.8 74.4,54.3 73.2,53.5 73.6,52.8 				"/>
				<polygon fill="#18252F" points="75.1,10.1 72,22.2 70.3,22.7 73.4,10.6 				"/>
				<polygon fill="#18252F" points="74.4,54.3 74.4,54.3 62.8,54.3 63.7,52.8 73.6,52.8 73.2,53.5 				"/>
				<polygon fill="#18252F" points="73.8,8.9 73.4,10.6 64,13.7 64.2,12.9 62.7,12.6 				"/>
				<polygon fill="#18252F" points="73.7,21.6 73,24.2 71.6,23.9 72,22.2 				"/>
				<polygon fill="#F08576" points="73.4,10.6 70.3,22.7 60.9,25.8 64,13.7 				"/>
				<polygon fill="#18252F" points="86,20.7 60.5,29.1 60.3,28.5 60.5,27.5 71.6,23.9 73,24.2 73.7,21.6 83.1,18.5 82.9,19.3 
					84.3,19.7 85.8,20 				"/>
				<polygon fill="#18252F" points="72,22.2 71.6,23.9 70.1,23.5 70.3,22.7 				"/>
				<polygon fill="#18252F" points="71.6,23.9 60.5,27.5 60.9,25.8 70.3,22.7 70.1,23.5 				"/>
				<polygon fill="#18252F" points="70.9,41.6 70.4,42.3 68.6,42.3 69.6,40.8 69.6,40.8 				"/>
				<polygon fill="#18252F" points="70.4,42.3 63.7,52.8 62,52.8 68.6,42.3 				"/>
				<polygon fill="#18252F" points="68.3,40 69.6,40.8 68.6,42.3 66.9,42.3 				"/>
				<polygon fill="#18252F" points="68.6,42.3 62,52.8 60.2,52.8 66.9,42.3 				"/>
				<polygon fill="#18252F" points="64.2,12.9 64,13.7 62.3,14.3 62.7,12.6 				"/>
				<polygon fill="#18252F" points="64,13.7 60.9,25.8 59.2,26.4 62.3,14.3 				"/>
				<polygon fill="#18252F" points="63.7,52.8 62.8,54.3 61,54.3 61,54.3 61,54.3 62,52.8 				"/>
				<polygon fill="#18252F" points="62.8,54.3 62.3,55.1 61,54.3 				"/>
				<polygon fill="#18252F" points="62.7,12.6 62.3,14.3 60.6,14.8 61.3,12.2 				"/>
				<polygon fill="#18252F" points="62.3,14.3 59.2,26.4 57.5,26.9 60.6,14.8 				"/>
				<polygon fill="#18252F" points="62,52.8 61,54.3 59.7,53.5 60.2,52.8 				"/>
				<polygon fill="#18252F" points="61,54.3 61,54.3 49.3,54.3 50.3,52.8 60.2,52.8 59.7,53.5 				"/>
				<polygon fill="#18252F" points="60.9,25.8 60.5,27.5 58.8,28.1 59.2,26.4 				"/>
				<polygon fill="#18252F" points="60.5,27.5 60.3,28.5 58.8,28.1 				"/>
				<polygon fill="#18252F" points="59.2,26.4 58.8,28.1 57.3,27.7 57.5,26.9 				"/>
				<polygon fill="#18252F" points="60.5,29.1 47.7,33.3 47.5,32.7 48.2,30 57.5,26.9 57.3,27.7 58.8,28.1 60.3,28.5 				"/>
				<polygon fill="#18252F" points="54.9,39.3 81.8,39.3 81.8,40 81.3,40.8 69.6,40.8 69.6,40.8 68.3,40 66.9,42.3 57,42.3 
					57.4,41.6 56.2,40.8 54.9,40 				"/>
				<polygon fill="#18252F" points="57.4,41.6 57,42.3 55.2,42.3 56.2,40.8 				"/>
				<polygon fill="#18252F" points="57,42.3 50.3,52.8 48.5,52.8 55.2,42.3 				"/>
				<polygon fill="#18252F" points="56.2,40.8 54.4,40.8 54.9,40 				"/>
				<polygon fill="#18252F" points="56.2,40.8 55.2,42.3 53.4,42.3 54.4,40.8 				"/>
				<polygon fill="#18252F" points="55.2,42.3 48.5,52.8 46.7,52.8 53.4,42.3 				"/>
				<polygon fill="#18252F" points="54.4,40.8 53.4,42.3 43.5,42.3 44,41.6 42.7,40.8 				"/>
				<path fill="#18252F" d="M53.7,94.1v-1.5h38.4v1.5h1.5v8.9H53.7L53.7,94.1L53.7,94.1z M53.7,101.5h38.4v-5.9H53.7V101.5z"/>
				<rect x="53.7" y="92.6" fill="#18252F" width="0" height="1.5"/>
				<polygon fill="#18252F" points="92.1,86.7 53.7,86.7 53.7,92.6 53.7,92.6 53.7,85.2 53.7,85.2 53.7,83.7 92.1,83.7 92.1,85.2 
					93.6,85.2 93.6,92.6 92.1,92.6 				"/>
				<rect x="53.7" y="83.7" fill="#18252F" width="0" height="1.5"/>
				<polygon fill="#18252F" points="92.1,77.8 53.7,77.8 53.7,83.7 53.7,83.7 53.7,76.3 53.7,76.3 53.7,74.8 92.1,74.8 92.1,76.3 
					93.6,76.3 93.6,83.7 92.1,83.7 				"/>
				<rect x="53.7" y="74.8" fill="#18252F" width="0" height="1.5"/>
				<polygon fill="#18252F" points="92.1,68.9 53.7,68.9 53.7,74.8 53.7,74.8 53.7,67.4 93.6,67.4 93.6,74.8 92.1,74.8 				"/>
				<rect x="52.2" y="92.6" fill="#18252F" width="1.5" height="1.5"/>
				<rect x="52.2" y="83.7" fill="#18252F" width="1.5" height="1.5"/>
				<rect x="52.2" y="76.3" fill="#18252F" width="1.5" height="7.4"/>
				<rect x="52.2" y="74.8" fill="#18252F" width="1.5" height="1.5"/>
				<rect x="52.2" y="67.4" fill="#18252F" width="1.5" height="7.4"/>
				<rect x="52.2" y="85.2" fill="#18252F" width="1.5" height="7.4"/>
				<rect x="52.2" y="94.1" fill="#18252F" width="1.5" height="8.9"/>
				<polygon fill="#F08576" points="53.4,42.3 46.7,52.8 36.8,52.8 43.5,42.3 				"/>
				<rect x="52.2" y="92.6" fill="#18252F" width="0" height="1.5"/>
				<rect x="52.2" y="83.7" fill="#18252F" width="0" height="1.5"/>
				<rect x="52.2" y="74.8" fill="#18252F" width="0" height="1.5"/>
				<rect x="52.2" y="76.3" fill="#18252F" width="0" height="7.4"/>
				<rect x="52.2" y="85.2" fill="#18252F" width="0" height="7.4"/>
				<path fill="#18252F" d="M52.2,104.5c-0.8,0-1.5-0.7-1.5-1.5h1.5v-8.9h0v8.9h1.5C53.7,103.8,53,104.5,52.2,104.5L52.2,104.5z"/>
				<rect x="50.7" y="94.1" fill="#18252F" width="1.5" height="8.9"/>
				<path fill="#18252F" d="M52.2,92.6v1.5h-1.5C50.7,93.2,51.4,92.6,52.2,92.6z"/>
				<path fill="#18252F" d="M52.2,85.2v7.4c-0.8,0-1.5,0.7-1.5,1.5v-8.9H52.2z"/>
				<path fill="#18252F" d="M52.2,83.7v1.5h-1.5C50.7,84.4,51.4,83.7,52.2,83.7z"/>
				<path fill="#18252F" d="M52.2,76.3v7.4c-0.8,0-1.5,0.7-1.5,1.5v-8.9H52.2z"/>
				<path fill="#18252F" d="M52.2,74.8v1.5h-1.5C50.7,75.5,51.4,74.8,52.2,74.8z"/>
				<path fill="#18252F" d="M52.2,67.4h-1.5c0-0.8,0.7-1.5,1.5-1.5h0c0.8,0,1.5,0.7,1.5,1.5H52.2l0,7.4h0V67.4z"/>
				<path fill="#18252F" d="M50.7,76.3v-8.9h1.5v7.4C51.4,74.8,50.7,75.5,50.7,76.3z"/>
				<polygon fill="#18252F" points="51.4,17.1 50,16.8 48.5,16.4 48.3,15.7 73.8,7.3 74.1,8 73.8,8.9 62.7,12.6 61.3,12.2 
					60.6,14.8 51.2,17.9 				"/>
				<polygon fill="#18252F" points="51.4,17.1 51.2,17.9 49.5,18.5 50,16.8 				"/>
				<polygon fill="#18252F" points="51.2,17.9 48.2,30 46.5,30.6 49.5,18.5 				"/>
				<rect x="14.3" y="68.9" fill="#C6CA76" width="36.4" height="32.6"/>
				<polygon fill="#18252F" points="50.3,52.8 49.3,54.3 47.6,54.3 47.5,54.3 47.5,54.3 48.5,52.8 				"/>
				<polygon fill="#18252F" points="50,16.8 49.5,18.5 47.8,19 48.3,17.3 				"/>
				<polygon fill="#18252F" points="50,16.8 48.3,17.3 48.5,16.4 				"/>
				<polygon fill="#18252F" points="49.5,18.5 46.5,30.6 44.8,31.1 47.8,19 				"/>
				<polygon fill="#18252F" points="49.3,54.3 48.8,55.1 47.6,54.3 				"/>
				<polygon fill="#18252F" points="48.5,52.8 47.5,54.3 46.3,53.5 46.7,52.8 				"/>
				<polygon fill="#18252F" points="48.3,17.3 47.8,19 38.5,22.1 38.7,21.3 37.2,21 				"/>
				<polygon fill="#18252F" points="48.2,30 47.5,32.7 46,32.3 46.5,30.6 				"/>
				<polygon fill="#F08576" points="47.8,19 44.8,31.1 35.4,34.2 38.5,22.1 				"/>
				<polygon fill="#18252F" points="47.5,54.3 47.5,54.3 35.9,54.3 36.8,52.8 46.7,52.8 46.3,53.5 				"/>
				<polygon fill="#18252F" points="46.5,30.6 46,32.3 44.6,31.9 44.8,31.1 				"/>
				<polygon fill="#18252F" points="46,32.3 34.9,36 35.4,34.2 44.8,31.1 44.6,31.9 				"/>
				<polygon fill="#18252F" points="44,41.6 43.5,42.3 41.8,42.3 42.7,40.8 				"/>
				<polygon fill="#18252F" points="43.5,42.3 36.8,52.8 35.1,52.8 41.8,42.3 				"/>
				<polygon fill="#18252F" points="42.7,40.8 41.8,42.3 40,42.3 41.5,40 				"/>
				<polygon fill="#18252F" points="41.8,42.3 35.1,52.8 33.3,52.8 40,42.3 				"/>
				<polygon fill="#18252F" points="38.7,21.3 38.5,22.1 36.8,22.7 37.2,21 37.2,21 				"/>
				<polygon fill="#18252F" points="38.5,22.1 35.4,34.2 33.7,34.8 36.8,22.7 				"/>
				<polygon fill="#18252F" points="35.7,20.6 37.2,21 36.8,22.7 35.1,23.3 				"/>
				<polygon fill="#18252F" points="36.8,52.8 35.9,54.3 34.1,54.3 34.1,54.3 34.1,54.3 35.1,52.8 				"/>
				<polygon fill="#18252F" points="36.8,22.7 33.7,34.8 32,35.4 35.1,23.3 				"/>
				<polygon fill="#18252F" points="35.9,54.3 35.4,55.1 34.1,54.3 				"/>
				<polygon fill="#18252F" points="35.4,34.2 34.9,36 33.3,36.5 33.3,36.5 33.7,34.8 				"/>
				<polygon fill="#18252F" points="35.1,52.8 34.1,54.3 32.8,53.5 33.3,52.8 				"/>
				<polygon fill="#18252F" points="34.9,36 34.7,36.9 33.3,36.5 				"/>
				<polygon fill="#18252F" points="48.8,55.1 49.3,54.3 61,54.3 61,54.3 62.3,55.1 62.8,54.3 74.4,54.3 74.5,54.3 75.7,55.1 
					76.2,54.3 87.9,54.3 87.9,54.3 89.2,55.1 89.7,54.3 103.3,54.3 103.3,55.8 18.7,55.8 18.7,54.3 34.1,54.3 34.1,54.3 35.4,55.1 
					35.9,54.3 47.5,54.3 47.6,54.3 				"/>
				<polygon fill="#18252F" points="33.7,34.8 33.3,36.5 31.8,36.2 32,35.4 				"/>
				<polygon fill="#18252F" points="29.7,39.3 28.4,39.7 28.2,39.3 				"/>
				<polygon fill="#18252F" points="26.9,40.2 28.4,39.7 28.6,40 27.3,40.8 				"/>
				<path fill="#18252F" d="M27.4,38.1l0.8,1.2h-0.8c-0.3,0-0.6,0.1-0.8,0.2l-0.4-0.6L27.4,38.1z"/>
				<path fill="#18252F" d="M28.4,39.7l-1.5,0.5l-0.4-0.7c0.2-0.2,0.5-0.2,0.8-0.2h0.8L28.4,39.7z"/>
				<path fill="#18252F" d="M26.5,39.5l0.4,0.7l-0.3,0.1c-0.2,0-0.3,0.1-0.5,0.1c-0.1,0-0.2,0-0.3,0l0.2-0.4
					C26.2,39.8,26.3,39.6,26.5,39.5z"/>
				<path fill="#18252F" d="M27.3,40.8l-1.3,0.8l-0.5-0.8l0.3-0.4c0.1,0,0.2,0,0.3,0c0.2,0,0.3,0,0.5-0.1l0.3-0.1L27.3,40.8z"/>
				<path fill="#18252F" d="M26.1,38.9l0.4,0.6c-0.2,0.1-0.3,0.3-0.4,0.5l-0.2,0.4c-0.3-0.1-0.6-0.2-0.9-0.5c0,0-0.1-0.1-0.1-0.2
					L26.1,38.9z"/>
				<path fill="#18252F" d="M25.8,40.4l-0.3,0.4l-0.6-1C25.2,40.1,25.5,40.3,25.8,40.4z"/>
				<path fill="#F08576" d="M25,39.8l0.6,1l-7.7,12H3v-24h14.9l7,10.9C24.9,39.7,24.9,39.8,25,39.8z"/>
				<polygon fill="#18252F" points="29.7,39.3 54.9,39.3 54.9,40 54.4,40.8 42.7,40.8 41.5,40 40,42.3 28.2,42.3 21.5,52.8 
					33.3,52.8 32.8,53.5 34.1,54.3 34.1,54.3 18.7,54.3 27.3,40.8 28.6,40 28.4,39.7 				"/>
				<polygon fill="#18252F" points="18.7,52.8 17.9,52.8 25.6,40.8 26.1,41.6 27.3,40.8 18.7,54.3 				"/>
				<polygon fill="#18252F" points="18.7,27.3 26.1,38.9 24.9,39.7 17.9,28.8 18.2,28.8 18.2,27.3 				"/>
				<path fill="#18252F" d="M18.7,54.3v1.5c-0.5,0-1.1-0.3-1.3-0.8c-0.1-0.2-0.2-0.5-0.2-0.7H18.7z"/>
				<path fill="#18252F" d="M18.7,52.8v1.5h-1.5c0-0.3,0.1-0.6,0.2-0.8l0.4-0.7H18.7z"/>
				<polygon fill="#18252F" points="47.5,32.7 47.7,33.3 29.7,39.3 28.2,39.3 27.4,38.1 26.1,38.9 18.7,27.3 18.2,27.3 18.2,25.8 
					17.9,25.8 48.3,15.7 48.5,16.4 48.3,17.3 37.2,21 37.2,21 35.7,20.6 35.1,23.3 20.9,27.9 26.8,37.1 32,35.4 31.8,36.2 
					33.3,36.5 33.3,36.5 34.7,36.9 34.9,36 46,32.3 				"/>
				<path fill="#18252F" d="M18.7,55.8H3v-1.5h14.2c0,0.3,0.1,0.5,0.2,0.7C17.7,55.5,18.2,55.8,18.7,55.8z"/>
				<path fill="#18252F" d="M18.2,25.8v1.5h-1.5c0-0.6,0.4-1.2,1-1.4l0.2-0.1H18.2z"/>
				<path fill="#18252F" d="M16.7,27.3h1.5v1.5h-0.3l0,0c-0.6-0.1-1.1-0.6-1.2-1.2C16.7,27.4,16.7,27.3,16.7,27.3z"/>
				<path fill="#18252F" d="M50.7,101.5V68.9H14.3v32.6H50.7z M50.7,94.1v8.9H12.8V67.4h37.9v8.9v8.9V94.1z"/>
				<path fill="#18252F" d="M12.8,67.4V103h37.9c0,0.8,0.7,1.5,1.5,1.5H12.8c-0.8,0-1.5-0.7-1.5-1.5V67.4c0-0.8,0.7-1.5,1.5-1.5
					h39.4c-0.8,0-1.5,0.7-1.5,1.5H12.8z"/>
				<polygon fill="#18252F" points="3,111.4 103.3,111.4 103.3,55.8 104.8,55.8 104.8,112.9 1.5,112.9 1.5,55.8 3,55.8 				"/>
				<rect x="1.5" y="54.3" fill="#18252F" width="1.5" height="1.5"/>
				<path fill="#18252F" d="M16.7,27.5c0.1,0.6,0.6,1.1,1.2,1.2l0,0H3v24h14.9l-0.4,0.7c-0.1,0.2-0.2,0.5-0.2,0.8H3H1.5v-27h15.2
					C16.7,27.3,16.7,27.4,16.7,27.5z"/>
				<path fill="#18252F" d="M104.8,112.9V55.8c0.8,0,1.5-0.7,1.5-1.5v58.6c0,0.8-0.7,1.5-1.5,1.5H1.5c-0.8,0-1.5-0.7-1.5-1.5V54.3
					c0,0.8,0.7,1.5,1.5,1.5v57.1H104.8z"/>
				<path fill="#18252F" d="M1.5,27.3v27H0v-27c0-0.8,0.7-1.5,1.5-1.5h16.4l-0.2,0.1c-0.6,0.2-1,0.8-1,1.4H1.5z"/>
				<path fill="#18252F" d="M1.5,54.3v1.5c-0.8,0-1.5-0.7-1.5-1.5H1.5z"/>
			</g>
			<g>
			</g>
		</g>
	</g>
</g>
</svg>
