<?xml version="1.0" encoding="utf-8"?>
<!-- Generator: Adobe Illustrator 23.0.1, SVG Export Plug-In . SVG Version: 6.00 Build 0)  -->
<svg version="1.1" id="Layer_1" xmlns="http://www.w3.org/2000/svg" xmlns:xlink="http://www.w3.org/1999/xlink" x="0px" y="0px"
	 viewBox="0 0 324.9 475.7" enable-background="new 0 0 324.9 475.7" xml:space="preserve">
<g>
	<path fill="#FFFFFF" d="M179.7,105.5c0-30.4-24.6-55-55-55c-30.4,0-55,24.6-55,55c0,17.9,8.6,33.8,21.8,43.9V94.8
		c0-18.1,18.1-27.6,36-27.6s36,9.5,36,27.6v49.7C173.5,134.5,179.7,120.7,179.7,105.5z"/>
	<path fill="#FFFFFF" d="M198.9,105.5c0-19.8-7.7-38.4-21.7-52.5c-14-14-32.6-21.7-52.5-21.7S86.2,39,72.2,53
		c-14,14-21.7,32.6-21.7,52.5c0,19.8,7.7,38.4,21.7,52.5c5.7,5.7,12.3,10.4,19.3,13.9v-5.1C69.8,155,55,132,55,105.5
		c0-38.4,31.3-69.7,69.7-69.7s69.7,31.3,69.7,69.7c0,24.1-12.3,45.4-30.9,57.9v5.4c4.9-3,9.5-6.6,13.7-10.8
		C191.2,144,198.9,125.3,198.9,105.5z"/>
	<path fill="#FFFFFF" d="M50.1,180.1c9.7,9.7,21,17.3,33.5,22.6c2.6,1.1,5.2,2.1,7.9,3v-7.4c-38.1-13.6-65.4-50.1-65.4-92.8
		C26.2,51.2,70.4,7,124.7,7s98.5,44.2,98.5,98.5c0,22.2-7.4,42.7-19.8,59.2c2.4,0.6,4.8,1.4,7,2.4c4.6-6.4,8.4-13.2,11.5-20.5
		c5.5-13,8.3-26.8,8.3-41.1c0-14.2-2.8-28.1-8.3-41.1c-5.3-12.6-12.9-23.8-22.6-33.5c-9.7-9.7-21-17.3-33.5-22.6
		c-13-5.5-26.8-8.3-41.1-8.3c-14.2,0-28.1,2.8-41.1,8.3c-12.6,5.3-23.8,12.9-33.5,22.6c-9.7,9.7-17.3,21-22.6,33.5
		c-5.5,13-8.3,26.8-8.3,41.1c0,14.2,2.8,28.1,8.3,41.1C32.8,159.1,40.4,170.4,50.1,180.1z"/>
</g>
</svg>
