<?xml version="1.0" encoding="utf-8"?>
<!-- Generator: Adobe Illustrator 22.1.0, SVG Export Plug-In . SVG Version: 6.00 Build 0)  -->
<svg version="1.2" baseProfile="tiny" id="Layer_1" xmlns="http://www.w3.org/2000/svg" xmlns:xlink="http://www.w3.org/1999/xlink"
	 x="0px" y="0px" viewBox="0 0 130.17 96.5" xml:space="preserve">
<g id="XMLID_46_">
	<g>
		<g id="XMLID_1_">
			<g>
				<path fill="#FFFFFF" d="M96.73,61.21c1.16,1.15,1.79,2.69,1.79,4.32c0,1.63-0.63,3.17-1.79,4.32c-1.15,1.15-2.68,1.79-4.32,1.79
					c-1.63,0-3.16-0.64-4.31-1.79c-0.59-0.59-1.54-0.59-2.13,0c-0.29,0.29-0.43,0.68-0.43,1.06s0.14,0.77,0.43,1.06
					c2.38,2.38,2.38,6.25,0,8.63c-1.15,1.15-2.68,1.79-4.31,1.79c-1.63,0-3.16-0.64-4.31-1.79c-0.59-0.59-1.54-0.59-2.12,0
					c-0.3,0.29-0.45,0.68-0.44,1.06c0,0.38,0.14,0.77,0.43,1.06c2.38,2.38,2.38,6.26,0.01,8.64c-1.16,1.15-2.7,1.79-4.33,1.79
					c-1.63,0-3.16-0.64-4.33-1.81L34.71,59.49L15.87,40.65l24.78-24.77l7.25,7.25c0.59,0.59,1.54,0.59,2.12,0
					c1.16-1.15,2.69-1.78,4.32-1.78s3.16,0.63,4.31,1.78l4.39,4.4l-9.69,9.69c-1.72,1.72-2.66,4.01-2.66,6.44s0.94,4.72,2.66,6.44
					c1.72,1.72,4.01,2.67,6.44,2.67s4.72-0.95,6.44-2.67l9.69-9.7L96.73,61.21z"/>
				<polygon fill="#F08576" points="126.54,32.43 124.14,34.83 113.65,24.34 111.52,26.46 122.02,36.96 118.33,40.64 89.71,12.01 
					97.91,3.8 				"/>
				<polygon fill="#18252F" points="125.08,35.77 122.95,37.89 122.02,36.96 124.14,34.83 				"/>
				<polygon fill="#18252F" points="124.14,34.83 122.02,36.96 111.52,26.46 113.65,24.34 				"/>
				<polygon fill="#18252F" points="117.47,41.89 116.41,42.96 115.35,41.9 116.41,40.83 				"/>
				
					<rect x="114.6" y="40.08" transform="matrix(0.7038 -0.7104 0.7104 0.7038 5.1608 94.0422)" fill="#18252F" width="1.5" height="1.51"/>
				<path fill="#18252F" d="M116.41,42.96L99.53,59.84c-0.21-0.26-0.43-0.51-0.67-0.75l-0.35-0.35l16.84-16.84L116.41,42.96z"/>
				
					<rect x="94.49" y="49.03" transform="matrix(0.7071 -0.7071 0.7071 0.7071 -4.0413 89.8186)" fill="#18252F" width="23.82" height="1.51"/>
				
					<rect x="101.68" y="10.41" transform="matrix(0.7072 -0.707 0.707 0.7072 10.2511 80.5907)" fill="#18252F" width="1.5" height="35.02"/>
				<path fill="#D4EAE3" d="M114.28,40.83L97.44,57.68L77.3,37.54c-0.14-0.14-0.28-0.26-0.43-0.38c-0.59-0.51-1.47-0.47-2.03,0.08
					L64.1,47.98c-1.15,1.15-2.68,1.79-4.31,1.79s-3.16-0.64-4.31-1.79c-2.39-2.38-2.39-6.26,0-8.64l10.75-10.75l5.1-5.1
					c2.37-2.38,6.25-2.38,8.64,0c0.58,0.59,1.53,0.59,2.12,0l7.43-7.42L114.28,40.83z"/>
				<path fill="#18252F" d="M99.53,59.84l-1.02,1.02l-1.06-1.06l1.06-1.06l0.35,0.35C99.1,59.33,99.32,59.58,99.53,59.84z"/>
				<polygon fill="#18252F" points="98.51,58.74 97.45,59.8 96.38,58.74 96.38,58.73 97.44,57.68 				"/>
				<polygon fill="#18252F" points="90.58,15 89.52,16.07 88.46,15.01 89.52,13.94 				"/>
				<path fill="#18252F" d="M126.54,32.43L97.91,3.8l-8.2,8.21l28.62,28.63l3.69-3.68l0.93,0.93l2.13-2.12l-0.94-0.94L126.54,32.43z
					 M117.47,41.89l-1.06-1.06l-1.07-1.06L90.58,15l-1.06-1.06l-1.07-1.06l-0.87-0.87L97.91,1.68l30.75,30.75l-10.33,10.33
					L117.47,41.89z"/>
				
					<rect x="87.71" y="13.19" transform="matrix(0.7038 -0.7104 0.7104 0.7038 16.2986 66.9737)" fill="#18252F" width="1.5" height="1.51"/>
				<path fill="#18252F" d="M118.33,44.26c-0.39,0-0.77-0.16-1.06-0.44l-0.86-0.86l1.06-1.07l0.86,0.87l10.33-10.33L97.91,1.68
					L87.58,12.01l0.87,0.87l-1.06,1.06l-0.87-0.87c-0.28-0.28-0.44-0.66-0.44-1.06c0-0.4,0.16-0.78,0.44-1.06L96.85,0.62
					c0.59-0.59,1.54-0.59,2.13,0l30.75,30.75c0.58,0.58,0.58,1.54,0,2.12L119.4,43.82C119.11,44.1,118.73,44.26,118.33,44.26z"/>
				<path fill="#18252F" d="M69.21,21.37c3.18-3.19,8.17-3.51,11.73-0.97l6.45-6.46l1.07,1.07l-7.43,7.42
					c-2.99-2.97-7.79-2.97-10.76,0l-4.04,4.04l-1.06-1.06L69.21,21.37z"/>
				<path fill="#18252F" d="M82.09,23.49c-0.59,0.59-1.54,0.59-2.12,0c-2.39-2.38-6.27-2.38-8.64,0l-5.1,5.1
					c0.58-0.58,0.58-1.53,0-2.12l4.04-4.04c2.97-2.97,7.77-2.97,10.76,0l7.43-7.42l1.06,1.06L82.09,23.49z"/>
				<path fill="#18252F" d="M66.23,26.47c0.58,0.59,0.58,1.54,0,2.12l-1.06-1.06L66.23,26.47z"/>
				
					<rect x="64.42" y="25.72" transform="matrix(0.7071 -0.7071 0.7071 0.7071 0.3714 53.8368)" fill="#18252F" width="1.5" height="1.5"/>
				<path fill="#18252F" d="M65.17,92.07l1.05,1.07l-0.71,0.7c-0.1,0.1-0.21,0.2-0.32,0.3c-0.25-0.21-0.5-0.43-0.73-0.66l-0.34-0.33
					l-0.04-0.04c0.13-0.1,0.25-0.22,0.37-0.34L65.17,92.07z"/>
				<path fill="#18252F" d="M65.17,92.07l-0.72,0.7c-0.12,0.12-0.24,0.24-0.37,0.34l-1.06-1.06c0.13-0.11,0.25-0.22,0.37-0.34
					L64.1,91l0.71,0.71L65.17,92.07z"/>
				<polygon fill="#18252F" points="64.11,91 64.81,91.71 64.1,91 				"/>
				<path fill="#18252F" d="M64.1,91l-0.71,0.71c-0.12,0.12-0.24,0.23-0.37,0.34l-8.59-8.59c0.1-0.13,0.22-0.26,0.34-0.38
					c0.27-0.27,0.42-0.63,0.43-0.98L64.1,91z"/>
				<path fill="#D4EAE3" d="M54.43,83.46l8.59,8.59c-1.1,0.93-2.48,1.45-3.94,1.45c-1.63,0-3.16-0.64-4.31-1.79
					C52.51,89.45,52.4,85.86,54.43,83.46z"/>
				<path fill="#18252F" d="M54.77,80.96c0.29,0.29,0.44,0.68,0.44,1.06c0,0.03,0,0.05-0.01,0.08l-0.79-0.79l-0.78-0.78
					C54.04,80.5,54.45,80.64,54.77,80.96z"/>
				<path fill="#18252F" d="M55.2,82.1c-0.01,0.35-0.16,0.71-0.43,0.98c-0.12,0.12-0.24,0.25-0.34,0.38l-1.06-1.06
					c0.09-0.12,0.2-0.24,0.31-0.35c0.01-0.01,0.02-0.02,0.03-0.03l0.7-0.71L55.2,82.1z"/>
				<path fill="#18252F" d="M54.41,81.31l-0.7,0.71c-0.01,0.01-0.02,0.02-0.03,0.03c-0.11,0.11-0.23,0.22-0.35,0.31l-1.06-1.06
					c0.13-0.11,0.25-0.22,0.37-0.34c0.27-0.27,0.63-0.42,0.99-0.43L54.41,81.31z"/>
				<path fill="#18252F" d="M65.17,49.04c-2.97,2.97-7.79,2.97-10.76,0c-2.96-2.97-2.96-7.79,0-10.76l10.76-10.75l1.06,1.06
					L55.48,39.34c-2.39,2.38-2.39,6.26,0,8.64c1.15,1.15,2.68,1.79,4.31,1.79s3.16-0.64,4.31-1.79l10.74-10.74
					c0.56-0.55,1.44-0.59,2.03-0.08c0.15,0.12,0.29,0.24,0.43,0.38l20.14,20.14l-1.06,1.05L76.29,38.64
					c-0.13-0.12-0.25-0.23-0.38-0.34L65.17,49.04z"/>
				<path fill="#18252F" d="M53.68,82.05c-0.11,0.11-0.22,0.23-0.31,0.35l-0.04-0.04C53.45,82.27,53.57,82.16,53.68,82.05z"/>
				<path fill="#18252F" d="M44.44,71.33l9.19,9.2c-0.36,0.01-0.72,0.16-0.99,0.43c-0.12,0.12-0.24,0.23-0.37,0.34l-8.6-8.6
					c0.1-0.13,0.22-0.26,0.34-0.38C44.28,72.05,44.43,71.69,44.44,71.33z"/>
				<path fill="#18252F" d="M53.71,92.77c-2.85-2.85-2.96-7.38-0.34-10.37l1.06,1.06c-2.03,2.4-1.92,5.99,0.34,8.25
					c1.15,1.15,2.68,1.79,4.31,1.79c1.46,0,2.84-0.52,3.94-1.45l1.06,1.06C61.1,95.74,56.55,95.62,53.71,92.77z"/>
				<path fill="#D4EAE3" d="M43.67,72.7l8.6,8.6c-1.1,0.93-2.48,1.45-3.94,1.45c-1.64,0-3.17-0.64-4.32-1.79
					C41.75,78.69,41.64,75.1,43.67,72.7z"/>
				<path fill="#18252F" d="M43.66,70.56l-0.79-0.79c0.41-0.03,0.82,0.11,1.14,0.43c0.29,0.29,0.44,0.68,0.44,1.06
					c0,0.02,0,0.05-0.01,0.07L44,70.91L43.66,70.56z"/>
				<path fill="#18252F" d="M44.01,70.2c-0.32-0.32-0.73-0.46-1.14-0.43l-8.91-8.91c0.27-0.28,0.44-0.66,0.44-1.06l0.31-0.31
					l31.86,31.85c1.17,1.17,2.7,1.81,4.33,1.81c1.63,0,3.17-0.64,4.33-1.79c2.37-2.38,2.37-6.26-0.01-8.64
					c-0.29-0.29-0.43-0.68-0.43-1.06c-0.01-0.38,0.14-0.77,0.44-1.06c0.58-0.59,1.53-0.59,2.12,0c1.15,1.15,2.68,1.79,4.31,1.79
					c1.63,0,3.16-0.64,4.31-1.79c2.38-2.38,2.38-6.25,0-8.63c-0.29-0.29-0.43-0.68-0.43-1.06s0.14-0.77,0.43-1.06
					c0.59-0.59,1.54-0.59,2.13,0c1.15,1.15,2.68,1.79,4.31,1.79c1.64,0,3.17-0.64,4.32-1.79c1.16-1.15,1.79-2.69,1.79-4.32
					c0-1.63-0.63-3.17-1.79-4.32L75.92,40.4l-9.69,9.7c-1.72,1.72-4.01,2.67-6.44,2.67s-4.72-0.95-6.44-2.67
					c-1.72-1.72-2.66-4.01-2.66-6.44s0.94-4.72,2.66-6.44l9.69-9.69l-4.39-4.4c-1.15-1.15-2.68-1.78-4.31-1.78s-3.16,0.63-4.32,1.78
					c-0.58,0.59-1.53,0.59-2.12,0l-7.25-7.25l2.12-2.12l6.28,6.28c1.54-1.1,3.37-1.69,5.29-1.69c2.43,0,4.71,0.94,6.43,2.66l4.4,4.4
					l-1.07,1.06l1.07,1.06L54.41,38.28c-2.96,2.97-2.96,7.79,0,10.76c2.97,2.97,7.79,2.97,10.76,0L75.91,38.3
					c0.13,0.11,0.25,0.22,0.38,0.34l20.09,20.09v0.01l1.07,1.06l1.06,1.06l1.02-1.02c1.29,1.61,1.99,3.6,1.99,5.69
					c0,2.43-0.94,4.72-2.66,6.44s-4.01,2.67-6.45,2.67c-0.62,0-1.24-0.06-1.84-0.19c0.59,2.9-0.23,6.03-2.47,8.27
					c-1.72,1.72-4.01,2.67-6.44,2.67c-0.63,0-1.25-0.06-1.84-0.19c0.59,2.9-0.24,6.03-2.47,8.28c-1.73,1.72-4.02,2.67-6.45,2.67
					c-2.1,0-4.1-0.71-5.71-2.01c0.11-0.1,0.22-0.2,0.32-0.3l0.71-0.7l-1.05-1.07l-0.36-0.36L64.11,91H64.1l-8.9-8.9
					c0.01-0.03,0.01-0.05,0.01-0.08c0-0.38-0.15-0.77-0.44-1.06c-0.32-0.32-0.73-0.46-1.14-0.43l-9.19-9.2
					c0.01-0.02,0.01-0.05,0.01-0.07C44.45,70.88,44.3,70.49,44.01,70.2z"/>
				<path fill="#18252F" d="M42.95,71.26l0.71-0.7L44,70.91l0.44,0.42c-0.01,0.36-0.16,0.72-0.43,0.99
					c-0.12,0.12-0.24,0.25-0.34,0.38l-1.06-1.06C42.71,71.51,42.83,71.38,42.95,71.26z"/>
				<path fill="#18252F" d="M43.66,70.56l-0.71,0.7c-0.12,0.12-0.25,0.24-0.38,0.34l-1.06-1.06c0.13-0.11,0.25-0.22,0.37-0.34
					c0.27-0.27,0.63-0.42,0.99-0.43L43.66,70.56z"/>
				<path fill="#18252F" d="M42.95,71.26c-0.12,0.12-0.24,0.25-0.34,0.38l-0.04-0.04C42.7,71.5,42.83,71.38,42.95,71.26z"/>
				<path fill="#18252F" d="M43.67,72.7c-2.03,2.4-1.92,5.99,0.34,8.26c1.15,1.15,2.68,1.79,4.32,1.79c1.46,0,2.84-0.52,3.94-1.45
					l1.06,1.06c-2.99,2.62-7.54,2.51-10.38-0.34c-2.85-2.86-2.96-7.39-0.34-10.38L43.67,72.7z"/>
				<path fill="#D4EAE3" d="M41.51,70.54c-2.39,2.03-6,1.92-8.26-0.34c-1.16-1.15-1.79-2.69-1.79-4.32c0-1.46,0.51-2.85,1.45-3.94
					L41.51,70.54z"/>
				<polygon fill="#18252F" points="40.65,15.88 15.87,40.65 15.7,40.48 40.47,15.7 				"/>
				<path fill="#18252F" d="M40.46,13.58l-26.88,26.9l0.17,0.18l-1.06,1.06l-0.18-0.18c-0.36-0.37-0.5-0.88-0.41-1.35l0.6-0.59
					l27.47-27.49c0.48-0.1,0.99,0.04,1.35,0.41l0.19,0.18l-1.06,1.06L40.46,13.58z"/>
				<path fill="#F08576" d="M32.25,3.62l8.2,8.21l-0.28,0.28c-0.28,0.05-0.55,0.19-0.77,0.41l-26.89,26.9
					c-0.22,0.22-0.36,0.49-0.41,0.77l-0.27,0.27L8.2,36.83l10.37-10.37l-2.13-2.12L6.08,34.71l-2.46-2.46L32.25,3.62z"/>
				<path fill="#18252F" d="M40.17,12.11L12.7,39.6l-0.6,0.59c0.05-0.28,0.19-0.55,0.41-0.77l26.89-26.9
					C39.62,12.3,39.89,12.16,40.17,12.11z"/>
				<path fill="#18252F" d="M34.4,59.79L34.4,59.79c0,0.41-0.17,0.79-0.44,1.07L32.9,59.8L34.4,59.79z"/>
				<path fill="#18252F" d="M33.96,60.86l8.91,8.91c-0.36,0.01-0.72,0.16-0.99,0.43c-0.12,0.12-0.24,0.23-0.37,0.34l-8.6-8.6
					c0.1-0.13,0.21-0.25,0.33-0.37L33.96,60.86L33.96,60.86z"/>
				<path fill="#18252F" d="M33.95,60.87l-0.71,0.7c-0.12,0.12-0.23,0.24-0.33,0.37l-1.06-1.06c0.1-0.13,0.22-0.26,0.34-0.38
					l0.7-0.7h0.01L33.95,60.87L33.95,60.87z"/>
				<path fill="#18252F" d="M32.19,60.5c-0.12,0.12-0.24,0.25-0.34,0.38l-1.07-1.07c0.1-0.13,0.22-0.25,0.34-0.37l0.72-0.71
					l1.05,1.07L32.19,60.5z"/>
				<path fill="#18252F" d="M32.19,71.26c-2.86-2.85-2.97-7.39-0.34-10.38l1.06,1.06c-0.94,1.09-1.45,2.48-1.45,3.94
					c0,1.63,0.63,3.17,1.79,4.32c2.26,2.26,5.87,2.37,8.26,0.34l1.06,1.06C39.58,74.22,35.05,74.11,32.19,71.26z"/>
				<path fill="#18252F" d="M30.78,59.81L13.75,42.78l2.12-2.13l18.84,18.84L34.4,59.8v-0.01l-1.5,0.01h-0.01l-1.05-1.07l-0.72,0.71
					C31,59.56,30.88,59.68,30.78,59.81z"/>
				<path fill="#18252F" d="M31.85,60.88c-2.63,2.99-2.52,7.53,0.34,10.38s7.39,2.96,10.38,0.34l0.04,0.04
					c-2.62,2.99-2.51,7.52,0.34,10.38c2.84,2.85,7.39,2.96,10.38,0.34l0.04,0.04c-2.62,2.99-2.51,7.52,0.34,10.37
					c2.84,2.85,7.39,2.97,10.37,0.34l0.04,0.04l0.34,0.33c0.23,0.23,0.48,0.45,0.73,0.66c-1.67,1.52-3.83,2.36-6.11,2.36
					c-2.43,0-4.72-0.95-6.44-2.67c-2.24-2.24-3.06-5.37-2.47-8.27c-0.6,0.12-1.22,0.19-1.84,0.19c-2.44,0-4.73-0.95-6.45-2.67
					c-2.24-2.25-3.06-5.39-2.47-8.29c-2.89,0.6-6.03-0.23-8.28-2.47c-1.73-1.72-2.67-4.01-2.67-6.44c0-2.26,0.81-4.4,2.32-6.07
					L31.85,60.88z"/>
				
					<rect x="5" y="29.08" transform="matrix(0.7071 -0.7071 0.7071 0.7071 -18.0163 17.675)" fill="#18252F" width="14.66" height="3"/>
				<polygon fill="#18252F" points="40.47,15.7 15.7,40.48 15.87,40.65 13.75,42.78 12.69,41.72 13.75,40.66 13.58,40.48 
					40.46,13.58 40.65,13.76 41.71,12.7 42.77,13.76 40.65,15.88 				"/>
				<path fill="#18252F" d="M12.1,40.19c-0.09,0.47,0.05,0.98,0.41,1.35l0.18,0.18l-0.86,0.86l-4.69-4.69l1.06-1.06l3.63,3.63
					L12.1,40.19z"/>
				<polygon fill="#18252F" points="6.08,34.71 8.2,36.83 7.14,37.89 6.08,36.83 5.01,35.77 				"/>
				<path fill="#18252F" d="M12.69,41.72l1.06,1.06l-0.87,0.86c-0.29,0.29-0.67,0.44-1.05,0.44c-0.39,0-0.77-0.15-1.07-0.44
					l-6.81-6.81l0.03-0.03l2.13,2.12l1.03-1.03l4.69,4.69L12.69,41.72z"/>
				<polygon fill="#18252F" points="6.08,36.83 7.14,37.89 6.11,38.92 3.98,36.8 5.01,35.77 				"/>
				<path fill="#18252F" d="M32.25,3.62L3.62,32.25l2.46,2.46l-1.07,1.06l-3.52-3.52L32.25,1.5l10.33,10.33l-0.87,0.87l-0.19-0.18
					c-0.36-0.37-0.87-0.51-1.35-0.41l0.28-0.28L32.25,3.62z"/>
				<path fill="#18252F" d="M32.25,1.5L1.49,32.25l3.52,3.52L3.98,36.8l-0.03,0.03l-3.52-3.52c-0.58-0.58-0.58-1.54,0-2.12
					L31.18,0.44c0.59-0.59,1.54-0.59,2.13,0l10.33,10.33c0.58,0.58,0.58,1.53,0,2.12l-0.87,0.87l-1.06-1.06l0.87-0.87L32.25,1.5z"/>
			</g>
			<g>
			</g>
		</g>
	</g>
</g>
</svg>
