<?xml version="1.0" encoding="utf-8"?>
<!-- Generator: Adobe Illustrator 22.1.0, SVG Export Plug-In . SVG Version: 6.00 Build 0)  -->
<svg version="1.2" baseProfile="tiny" id="Lager_1" xmlns="http://www.w3.org/2000/svg" xmlns:xlink="http://www.w3.org/1999/xlink"
	 x="0px" y="0px" viewBox="0 0 705.13 363.6" xml:space="preserve">
<g>
	<path fill="#FFFFFF" d="M0.01,11.88l87.19,0.48l0.01,344.68l-87.2-0.01C0.01,357.03-0.01,11.8,0.01,11.88z"/>
	<path fill="#FFFFFF" d="M129.85,129.43c12.75-37.22,39.43-74.92,75.65-96.14c37.87-23.92,87.82-33.9,134.05-22.2
		c17.35,3.64,31.39,8.87,48.43,19.57c0.86,0.61,0.81,0.31,1.39,1.28l-42.78,75.28c-18.73-10.59-41.89-16.04-64.82-11.33
		c-14.74,2.34-27.6,9.28-39.9,17.61c-20.91,18.14-32.82,41.37-34.09,68.3c-0.36,18.25,3.95,35.05,12.68,49.79
		c19.92,32.54,56.07,49.22,93.66,43.96c26.2-3.48,50.54-20.21,64.34-43.69l9.44-16.68L505.92,0l199.2,357.01H604.86
		c-7.1-12.79-21.9-38.2-21.9-38.2l-99.38,0.02l33.89-62.89l30.3-0.23l-41.35-73.72l-9.85,17.42l-33.67,60.85
		c-18.16,35-50.47,70.15-86.85,86.3c-38.51,19.91-93.94,22.35-135.59,7.46c-29.94-10.04-59.22-29.25-79.23-55.72
		c-31.29-39.68-43.98-81.75-37.49-136.6C124.8,152.76,127.54,137.86,129.85,129.43z"/>
</g>
</svg>
