<?xml version="1.0" encoding="utf-8"?>
<!-- Generator: Adobe Illustrator 22.0.1, SVG Export Plug-In . SVG Version: 6.00 Build 0)  -->
<svg version="1.2" baseProfile="tiny" xmlns="http://www.w3.org/2000/svg" xmlns:xlink="http://www.w3.org/1999/xlink" x="0px"
	 y="0px" viewBox="0 0 115.3 81.9" xml:space="preserve">
<g id="Layer_2">
	<polyline fill="#FFFFFF" points="1.5,15.2 3,3.3 8.1,1.5 106.6,1.5 110.4,2.3 113.3,5.2 113.8,10.6 113.9,72.3 113.3,76.8 
		111,79.5 108.1,80.3 8.1,80.4 5.3,79.3 1.5,77 1.3,52.3 	"/>
</g>
<g id="Layer_1">
	<g id="XMLID_175_">
		<g>
			<path fill="#3CB9C1" d="M113.8,64.9v8.9c0,3.6-3,6.6-6.6,6.6H8.1c-3.6,0-6.6-3-6.6-6.6v-8.9V8.1c0-3.6,3-6.6,6.6-6.6h99.1
				c3.6,0,6.6,3,6.6,6.6V64.9z M106.6,54.7V9.1H9.1v45.6v10.2h97.5V54.7z"/>
			<rect x="9.1" y="54.7" fill="#F08576" width="97.5" height="10.2"/>
			<polygon fill="#F08576" points="75.1,31.9 48.8,47 48.8,16.7 			"/>
		</g>
		<g>
			<path fill="#18252F" d="M107.2,81.9H8.1c-4.5,0-8.1-3.6-8.1-8.1V8.1C0,3.6,3.6,0,8.1,0h99.1c4.5,0,8.1,3.6,8.1,8.1v65.7
				C115.3,78.3,111.7,81.9,107.2,81.9z M8.1,3C5.3,3,3,5.3,3,8.1v65.7c0,2.8,2.3,5.1,5.1,5.1h99.1c2.8,0,5.1-2.3,5.1-5.1V8.1
				c0-2.8-2.3-5.1-5.1-5.1H8.1z"/>
			<rect x="52.1" y="71.3" fill="#18252F" width="11.2" height="3"/>
			<path fill="#18252F" d="M106.6,66.4H9.1c-0.8,0-1.5-0.7-1.5-1.5V54.7h3v8.7h94.5v-8.7h3v10.2C108.1,65.7,107.4,66.4,106.6,66.4z"
				/>
			<path fill="#18252F" d="M106.6,56.2H9.1c-0.8,0-1.5-0.7-1.5-1.5V9.1c0-0.8,0.7-1.5,1.5-1.5h97.5c0.8,0,1.5,0.7,1.5,1.5v45.6
				C108.1,55.5,107.4,56.2,106.6,56.2z M10.6,53.2h94.5V10.6H10.6V53.2z"/>
			<rect x="15.7" y="58.3" fill="#18252F" width="5.1" height="3"/>
			<rect x="25.4" y="58.3" fill="#18252F" width="73.8" height="3"/>
			<path fill="#18252F" d="M48.8,48.5c-0.3,0-0.5-0.1-0.8-0.2c-0.5-0.3-0.8-0.8-0.8-1.3V16.7c0-0.5,0.3-1,0.8-1.3
				c0.5-0.3,1-0.3,1.5,0l26.3,15.2c0.5,0.3,0.8,0.8,0.8,1.3c0,0.5-0.3,1-0.8,1.3L49.6,48.3C49.4,48.5,49.1,48.5,48.8,48.5z
				 M50.3,19.3v25.1l21.8-12.6L50.3,19.3z"/>
		</g>
	</g>
</g>
</svg>
