<?xml version="1.0" encoding="utf-8"?>
<!-- Generator: Adobe Illustrator 22.1.0, SVG Export Plug-In . SVG Version: 6.00 Build 0)  -->
<svg version="1.2" baseProfile="tiny" id="Layer_1" xmlns="http://www.w3.org/2000/svg" xmlns:xlink="http://www.w3.org/1999/xlink"
	 x="0px" y="0px" viewBox="0 0 100.78 111.89" xml:space="preserve">
<g id="XMLID_61_">
	<g>
		<path fill="#F08576" d="M99.28,5.41l-3.92,12.85l-7.12,3.78l2.48-8.1L56.77,32.01c-1.46,0.78-3.26,0.43-4.32-0.83l-7.5-8.9
			c-9.37,5.09-20.77,11.3-28.94,15.75H1.5c0.22-0.15,0.59-0.41,42.61-23.27c1.46-0.79,3.28-0.45,4.35,0.82l7.52,8.92L87.43,7.76
			l-8.11-2.48l7.11-3.78L99.28,5.41z"/>
		<rect x="1.68" y="103.63" fill="#FFDB93" width="97.41" height="6.76"/>
		<rect x="1.68" y="97.02" fill="#FFDB93" width="97.41" height="6.61"/>
		<path fill="#C6CA76" d="M99.09,48.26v48.7H1.68v-48.7H99.09z M93.11,84.74V60.48c-3.45,0-6.24-2.79-6.24-6.24H74.04H13.9
			c0,3.45-2.79,6.24-6.23,6.24v24.26c3.44,0,6.23,2.8,6.23,6.24h22.22h50.75C86.87,87.54,89.66,84.74,93.11,84.74z"/>
		<path fill="#FFDB93" d="M62.08,65.99L62.08,65.99c-2.31-4.07-6.68-6.81-11.69-6.81c-5.01,0-9.38,2.74-11.69,6.81
			c-1.11,1.95-1.74,4.21-1.74,6.62c0,2.41,0.63,4.67,1.74,6.62c2.31,4.07,6.68,6.81,11.69,6.81c5.01,0,9.38-2.74,11.68-6.81h0.01
			c1.11-1.95,1.74-4.21,1.74-6.62C63.82,70.2,63.19,67.94,62.08,65.99z M93.11,60.48v24.26c-3.45,0-6.24,2.8-6.24,6.24H36.12H13.9
			c0-3.44-2.79-6.24-6.23-6.24V60.48c3.44,0,6.23-2.79,6.23-6.24h60.14h12.83C86.87,57.69,89.66,60.48,93.11,60.48z"/>
		<path fill="#C6CA76" d="M62.08,65.99c1.11,1.95,1.74,4.21,1.74,6.62c0,2.41-0.63,4.67-1.74,6.62h-0.01
			c-2.3,4.07-6.67,6.81-11.68,6.81c-5.01,0-9.38-2.74-11.69-6.81c-1.11-1.95-1.74-4.21-1.74-6.62c0-2.41,0.63-4.67,1.74-6.62
			c2.31-4.07,6.68-6.81,11.69-6.81C55.4,59.18,59.77,61.92,62.08,65.99L62.08,65.99z"/>
	</g>
	<g>
		<path fill="#18252F" d="M100.59,103.63h-3v-5.11H3.18v5.11h-3v-6.61c0-0.83,0.67-1.5,1.5-1.5h97.41c0.83,0,1.5,0.67,1.5,1.5
			V103.63z"/>
		<path fill="#18252F" d="M99.09,111.89H1.68c-0.83,0-1.5-0.67-1.5-1.5v-6.76c0-0.83,0.67-1.5,1.5-1.5h97.41
			c0.83,0,1.5,0.67,1.5,1.5v6.76C100.59,111.22,99.92,111.89,99.09,111.89z M3.18,108.89h94.41v-3.76H3.18V108.89z"/>
		<path fill="#18252F" d="M99.09,98.46H1.68c-0.83,0-1.5-0.67-1.5-1.5v-48.7c0-0.83,0.67-1.5,1.5-1.5h97.41c0.83,0,1.5,0.67,1.5,1.5
			v48.7C100.59,97.79,99.92,98.46,99.09,98.46z M3.18,95.46h94.41v-45.7H3.18V95.46z"/>
		<path fill="#18252F" d="M36.12,92.48H13.9c-0.83,0-1.5-0.67-1.5-1.5c0-2.61-2.12-4.74-4.73-4.74c-0.83,0-1.5-0.67-1.5-1.5V60.48
			c0-0.83,0.67-1.5,1.5-1.5c2.61,0,4.73-2.13,4.73-4.74c0-0.83,0.67-1.5,1.5-1.5h60.14v3H15.25c-0.6,3.07-3.02,5.49-6.08,6.09v21.55
			c3.06,0.61,5.48,3.03,6.08,6.09h20.87V92.48z"/>
		<path fill="#18252F" d="M86.87,92.48H36.12v-3h49.4c0.6-3.07,3.03-5.49,6.09-6.09V61.83c-3.07-0.6-5.49-3.03-6.09-6.09H74.04v-3
			h12.83c0.83,0,1.5,0.67,1.5,1.5c0,2.61,2.13,4.74,4.74,4.74c0.83,0,1.5,0.67,1.5,1.5v24.26c0,0.83-0.67,1.5-1.5,1.5
			c-2.61,0-4.74,2.13-4.74,4.74C88.37,91.81,87.7,92.48,86.87,92.48z"/>
		<rect x="63.82" y="71.11" fill="#18252F" width="21.36" height="3"/>
		<rect x="15.59" y="71.11" fill="#18252F" width="21.37" height="3"/>
		<rect x="62.08" y="77.73" fill="#18252F" width="12.66" height="3"/>
		<rect x="26.03" y="77.73" fill="#18252F" width="12.67" height="3"/>
		<rect x="62.08" y="64.49" fill="#18252F" width="12.66" height="3"/>
		<rect x="26.03" y="64.49" fill="#18252F" width="12.67" height="3"/>
		<path fill="#18252F" d="M50.39,87.54c-5.37,0-10.34-2.9-12.99-7.57c-1.27-2.22-1.94-4.77-1.94-7.36c0-2.59,0.67-5.14,1.94-7.36
			c2.65-4.67,7.63-7.57,12.99-7.57c5.32,0,10.25,2.84,12.91,7.43c0.03,0.04,0.06,0.09,0.09,0.14c1.27,2.23,1.94,4.77,1.94,7.36
			c0,2.59-0.67,5.13-1.94,7.36c-0.03,0.05-0.06,0.09-0.09,0.14C60.63,84.7,55.7,87.54,50.39,87.54z M50.39,60.68
			c-4.29,0-8.27,2.32-10.38,6.05c-1.01,1.78-1.54,3.81-1.54,5.88c0,2.07,0.53,4.1,1.54,5.88c2.12,3.73,6.1,6.05,10.39,6.05
			c4.29,0,8.27-2.32,10.38-6.05c0.03-0.04,0.05-0.09,0.08-0.13c0.96-1.75,1.47-3.73,1.47-5.75c0-2.02-0.51-4.01-1.47-5.75
			c-0.03-0.04-0.06-0.08-0.08-0.13C58.65,63,54.68,60.68,50.39,60.68z"/>
		<path fill="#18252F" d="M16.01,39.53H1.5c-0.66,0-1.24-0.43-1.43-1.06c-0.19-0.63,0.04-1.31,0.59-1.68
			c0.3-0.2,0.7-0.48,42.74-23.35c0.73-0.4,1.56-0.6,2.39-0.6c1.48,0,2.88,0.65,3.83,1.78l6.74,7.99L83.53,8.14l-4.65-1.42
			c-0.58-0.18-1-0.69-1.05-1.29c-0.06-0.6,0.25-1.18,0.79-1.47l7.11-3.78c0.35-0.19,0.76-0.23,1.14-0.11l12.85,3.91
			c0.38,0.12,0.7,0.38,0.89,0.73c0.19,0.35,0.23,0.76,0.11,1.14L96.79,18.7c-0.12,0.38-0.38,0.7-0.73,0.89l-7.12,3.78
			c-0.53,0.28-1.19,0.22-1.66-0.17c-0.47-0.39-0.66-1.02-0.48-1.6l1.42-4.63L57.47,33.33c-0.72,0.39-1.54,0.59-2.35,0.59
			c-1.48,0-2.87-0.65-3.82-1.78l-6.71-7.96c-9.16,4.97-20.01,10.88-27.86,15.17C16.51,39.47,16.26,39.53,16.01,39.53z M7.3,36.53
			h8.33c8.14-4.44,19.36-10.55,28.61-15.57c0.63-0.34,1.4-0.19,1.86,0.35l7.5,8.9c0.59,0.7,1.64,0.91,2.46,0.47l33.95-18.07
			c0.54-0.28,1.19-0.22,1.66,0.17c0.47,0.39,0.66,1.02,0.48,1.6l-1.42,4.64l3.37-1.79l3.3-10.82L86.59,3.12l-3.36,1.79l4.65,1.42
			c0.58,0.18,1,0.69,1.05,1.29c0.06,0.6-0.25,1.18-0.79,1.47L56.68,25.82c-0.63,0.33-1.4,0.18-1.85-0.36l-7.52-8.92
			c-0.59-0.7-1.67-0.91-2.49-0.47C23.27,27.81,12.56,33.65,7.3,36.53z"/>
	</g>
</g>
<path fill="#18252F" d="M47.7,77.79c0.57,0.57,1.3,0.92,2.17,1.07v-5.77c-0.77-0.19-1.43-0.4-1.99-0.62
	c-0.56-0.22-1.02-0.49-1.39-0.8c-0.37-0.31-0.64-0.69-0.82-1.14c-0.17-0.45-0.26-0.99-0.26-1.63c0-0.65,0.12-1.25,0.35-1.8
	c0.23-0.54,0.55-1.02,0.95-1.41c0.4-0.4,0.87-0.72,1.42-0.95c0.54-0.23,1.13-0.37,1.75-0.41v-1.44h1.2v1.46
	c1.18,0.14,2.11,0.58,2.81,1.31c0.7,0.73,1.19,1.73,1.48,3H53.5c-0.29-1.44-1.1-2.28-2.44-2.53v5.36l1.31,0.35
	c0.29,0.07,0.63,0.2,1.02,0.38c0.39,0.18,0.77,0.43,1.13,0.75c0.36,0.32,0.67,0.72,0.92,1.2c0.25,0.48,0.38,1.05,0.38,1.72
	c0,0.71-0.12,1.34-0.36,1.89c-0.24,0.55-0.57,1.03-0.99,1.43c-0.42,0.4-0.92,0.71-1.5,0.95c-0.58,0.23-1.22,0.38-1.92,0.44v1.79
	h-1.2v-1.79c-1.45-0.15-2.61-0.65-3.46-1.51c-0.86-0.86-1.34-2.06-1.46-3.58h1.85C46.82,76.45,47.12,77.22,47.7,77.79z M48.09,66.8
	c-0.48,0.43-0.73,1.06-0.73,1.88c0,0.38,0.06,0.7,0.19,0.97c0.12,0.27,0.3,0.49,0.52,0.67c0.22,0.18,0.49,0.34,0.79,0.47
	c0.31,0.13,0.64,0.25,1,0.35v-5.1C49.17,66.12,48.57,66.37,48.09,66.8z M52.18,78.63c0.34-0.12,0.64-0.29,0.89-0.51
	c0.25-0.23,0.45-0.51,0.59-0.85c0.14-0.34,0.21-0.74,0.21-1.21c0-0.42-0.07-0.77-0.22-1.06c-0.14-0.28-0.34-0.53-0.59-0.73
	c-0.25-0.2-0.54-0.37-0.89-0.51c-0.35-0.14-0.72-0.26-1.11-0.38v5.47C51.47,78.82,51.84,78.75,52.18,78.63z"/>
</svg>
