<?xml version="1.0" encoding="utf-8"?>
<!-- Generator: Adobe Illustrator 22.0.1, SVG Export Plug-In . SVG Version: 6.00 Build 0)  -->
<svg version="1.2" baseProfile="tiny" id="Layer_1" xmlns="http://www.w3.org/2000/svg" xmlns:xlink="http://www.w3.org/1999/xlink"
	 x="0px" y="0px" viewBox="0 0 109.24 115.01" xml:space="preserve">
<g id="XMLID_62_">
	<g>
		<path fill="#F08576" d="M1.5,54.57c0-29.24,23.64-52.92,52.85-53.06C40.44,18.03,34.53,37.56,36.6,54.15
			c-3.61-5.87-10.08-9.66-17.47-9.66C11.63,44.49,5.07,48.57,1.5,54.57z"/>
		<path fill="#F08576" d="M54.89,1.51c29.22,0.15,52.85,23.95,52.85,53.2c-3.53-6.16-10.17-10.22-17.78-10.22
			c-7.29,0-13.68,3.94-17.31,9.68C74.72,37.57,68.81,18.04,54.89,1.51z"/>
		<path fill="#F08576" d="M54.89,1.51c13.92,16.53,19.83,36.06,17.76,52.66c-0.11,0.16-0.22,0.32-0.32,0.49
			C68.8,48.53,62.2,44.52,54.62,44.49c-0.03,0-0.05,0-0.08,0c-7.49,0-14.05,4.16-17.62,10.17c-0.11-0.17-0.22-0.34-0.32-0.51
			c-2.07-16.59,3.84-36.12,17.75-52.64c0.09,0,0.18-0.01,0.27-0.01C54.71,1.5,54.8,1.51,54.89,1.51z"/>
		<path fill="#C6CA76" d="M90.4,62.64v34.17H54.62H18.99V62.64h35.63H90.4z M66.48,79.72c0-6.51-5.28-11.79-11.79-11.79
			c-6.51,0-11.79,5.28-11.79,11.79c0,6.51,5.28,11.79,11.79,11.79C61.2,91.51,66.48,86.23,66.48,79.72z"/>
		
			<ellipse transform="matrix(0.2309 -0.973 0.973 0.2309 -35.5035 114.5232)" fill="#FFDB93" cx="54.69" cy="79.72" rx="11.79" ry="11.79"/>
	</g>
	<g>
		<rect x="53.12" y="43.86" fill="#18252F" width="3" height="18.78"/>
		<path fill="#18252F" d="M63.4,115.01c-5.67,0-10.28-4.61-10.28-10.28v-7.92h3v7.92c0,4.01,3.27,7.28,7.28,7.28
			c4.01,0,7.28-3.27,7.28-7.28h3C73.68,110.4,69.07,115.01,63.4,115.01z"/>
		<path fill="#18252F" d="M90.4,98.31H18.99c-0.83,0-1.5-0.67-1.5-1.5V62.64c0-0.83,0.67-1.5,1.5-1.5H90.4c0.83,0,1.5,0.67,1.5,1.5
			v34.17C91.9,97.64,91.23,98.31,90.4,98.31z M20.49,95.31H88.9V64.14H20.49V95.31z"/>
		<rect x="71.6" y="78.22" fill="#18252F" width="11.74" height="3"/>
		<rect x="25.89" y="78.22" fill="#18252F" width="11.74" height="3"/>
		<path fill="#18252F" d="M54.69,93.01c-7.33,0-13.29-5.96-13.29-13.29s5.96-13.29,13.29-13.29c7.33,0,13.29,5.96,13.29,13.29
			S62.02,93.01,54.69,93.01z M54.69,69.43c-5.67,0-10.29,4.62-10.29,10.29s4.62,10.29,10.29,10.29c5.67,0,10.29-4.62,10.29-10.29
			S60.36,69.43,54.69,69.43z"/>
		<path fill="#18252F" d="M1.5,56.07c-0.13,0-0.27-0.02-0.4-0.05C0.45,55.84,0,55.24,0,54.57C0,24.63,24.38,0.15,54.34,0.01l0.01,3
			C27.63,3.14,5.61,23.74,3.22,49.85c4.12-4.31,9.88-6.86,15.91-6.86c7.74,0,14.75,3.88,18.75,10.37l-2.56,1.57
			c-3.44-5.6-9.5-8.95-16.19-8.95c-6.65,0-12.91,3.58-16.34,9.35C2.51,55.8,2.02,56.07,1.5,56.07z"/>
		<path fill="#18252F" d="M72.33,56.16C72.33,56.16,72.33,56.16,72.33,56.16c-0.54,0-1.03-0.29-1.3-0.75
			c-3.38-5.87-9.52-9.39-16.42-9.42c-6.69,0-12.95,3.62-16.4,9.44c-0.27,0.45-0.74,0.72-1.26,0.73c-0.5-0.01-1.01-0.25-1.29-0.69
			c-0.14-0.22-0.25-0.39-0.35-0.56c-0.1-0.18-0.17-0.37-0.2-0.58c-2.2-17.62,4.57-37.73,18.09-53.79c0.29-0.34,0.71-0.53,1.15-0.53
			C54.6,0,54.69,0,54.84,0.01l0.03,1.94l0.63,0.53C43.3,16.97,36.81,34.82,37.8,50.85c4.17-4.92,10.31-7.86,16.74-7.86
			c8.07,0.03,15.17,4.11,19.09,10.92l-0.75,0.43l1,0.68c-0.1,0.14-0.18,0.27-0.26,0.4C73.36,55.88,72.86,56.16,72.33,56.16z"/>
		<path fill="#18252F" d="M107.74,56.21c-0.53,0-1.03-0.28-1.3-0.75c-3.35-5.84-9.66-9.47-16.48-9.47c-6.49,0-12.49,3.36-16.04,8.98
			c-0.38,0.59-1.11,0.85-1.77,0.61c-0.66-0.24-1.07-0.9-0.98-1.6c2.1-16.81-4.42-36.07-17.42-51.51c-0.38-0.45-0.46-1.07-0.21-1.6
			c0.25-0.53,0.78-0.86,1.36-0.86c0,0,0,0,0.01,0c29.96,0.15,54.34,24.69,54.34,54.7c0,0.68-0.46,1.27-1.11,1.45
			C108,56.19,107.87,56.21,107.74,56.21z M89.96,42.99c6.16,0,11.96,2.56,16.06,6.9C103.68,24.84,83.34,4.84,58.13,3.13
			c11.12,14.25,16.94,30.74,16.4,46.3C78.62,45.33,84.11,42.99,89.96,42.99z"/>
	</g>
</g>
<path fill="#18252F" d="M52.63,83.77c0.39,0.42,0.89,0.69,1.47,0.8v-4c-0.06-0.03-0.15-0.05-0.26-0.09
	c-0.11-0.03-0.23-0.06-0.35-0.09c-0.47-0.13-0.94-0.28-1.4-0.45c-0.46-0.17-0.87-0.4-1.23-0.69c-0.36-0.29-0.65-0.64-0.87-1.07
	c-0.22-0.43-0.32-0.96-0.32-1.6c0-0.65,0.12-1.22,0.37-1.72c0.25-0.5,0.58-0.92,0.99-1.25c0.41-0.34,0.88-0.6,1.42-0.79
	c0.54-0.19,1.09-0.3,1.66-0.34v-1.47h1.13v1.47c0.57,0.06,1.11,0.19,1.62,0.38c0.5,0.18,0.95,0.44,1.33,0.76
	c0.38,0.33,0.7,0.73,0.94,1.22c0.24,0.48,0.38,1.06,0.42,1.72h-2.72c-0.01-0.51-0.17-0.95-0.48-1.3c-0.31-0.36-0.68-0.54-1.11-0.54
	v3.39c0.15,0.04,0.31,0.08,0.47,0.12c0.16,0.04,0.33,0.08,0.51,0.13c0.94,0.26,1.67,0.57,2.18,0.95c0.51,0.38,0.89,0.77,1.13,1.18
	c0.24,0.41,0.39,0.82,0.43,1.22c0.04,0.41,0.07,0.77,0.07,1.09c0,0.28-0.07,0.63-0.21,1.06c-0.14,0.43-0.39,0.85-0.76,1.25
	c-0.36,0.41-0.85,0.77-1.46,1.09c-0.61,0.32-1.4,0.51-2.35,0.57v1.63h-1.13v-1.63c-1.43-0.1-2.54-0.54-3.35-1.32
	c-0.8-0.78-1.27-1.92-1.4-3.43h2.7C52.05,82.78,52.24,83.35,52.63,83.77z M53.48,74.83c-0.2,0.06-0.39,0.16-0.55,0.29
	c-0.17,0.13-0.3,0.3-0.39,0.5c-0.1,0.2-0.14,0.43-0.14,0.7c0,0.42,0.13,0.75,0.4,0.98c0.27,0.23,0.71,0.41,1.32,0.55v-3.12
	C53.89,74.74,53.68,74.77,53.48,74.83z M55.96,84.41c0.25-0.08,0.47-0.2,0.67-0.35c0.2-0.15,0.36-0.34,0.49-0.57
	c0.13-0.22,0.19-0.49,0.19-0.79c0-0.5-0.16-0.87-0.47-1.12c-0.31-0.25-0.84-0.48-1.6-0.68v3.68C55.47,84.55,55.71,84.49,55.96,84.41
	z"/>
</svg>
