<?xml version="1.0" encoding="utf-8"?>
<!-- Generator: Adobe Illustrator 23.0.1, SVG Export Plug-In . SVG Version: 6.00 Build 0)  -->
<svg version="1.1" id="Layer_1" xmlns="http://www.w3.org/2000/svg" xmlns:xlink="http://www.w3.org/1999/xlink" x="0px" y="0px"
	 viewBox="0 0 461.848175 474.8479919" style="enable-background:new 0 0 461.848175 474.8479919;" xml:space="preserve">
<style type="text/css">
	.st0{display:none;fill-rule:evenodd;clip-rule:evenodd;fill:#96D5F2;}
	.st1{display:none;fill-rule:evenodd;clip-rule:evenodd;fill:#7ACCEE;}
	.st2{display:none;}
	.st3{display:inline;fill-rule:evenodd;clip-rule:evenodd;fill:#068B3A;}
	.st4{display:inline;fill-rule:evenodd;clip-rule:evenodd;fill:#107835;}
	.st5{display:none;fill-rule:evenodd;clip-rule:evenodd;fill:#068B3A;}
	.st6{fill-rule:evenodd;clip-rule:evenodd;fill:#323E56;}
	.st7{fill-rule:evenodd;clip-rule:evenodd;fill:#3E4A66;}
	.st8{fill-rule:evenodd;clip-rule:evenodd;fill:#637291;}
	.st9{fill-rule:evenodd;clip-rule:evenodd;fill:#4B5677;}
	.st10{fill-rule:evenodd;clip-rule:evenodd;fill:#F5F4F4;}
	.st11{fill-rule:evenodd;clip-rule:evenodd;fill:#3F4962;}
	.st12{fill-rule:evenodd;clip-rule:evenodd;fill:#FFDF8E;}
	.st13{display:inline;fill-rule:evenodd;clip-rule:evenodd;fill:#637291;}
	.st14{display:none;fill-rule:evenodd;clip-rule:evenodd;fill:#97C11D;}
	.st15{display:none;fill-rule:evenodd;clip-rule:evenodd;fill:#FFFFFF;}
</style>
<g>
	
		<ellipse transform="matrix(0.7071068 -0.7071068 0.7071068 0.7071068 -90.810791 223.9837189)" class="st0" cx="224.9668732" cy="221.6101837" rx="373.8144836" ry="373.8144226"/>
	<path class="st1" d="M568.5137329,369.1531677c-57.2290344,133.0765991-189.4966431,226.2715149-343.5474243,226.2715149
		c-141.0760956,0-263.8820801-78.1611938-327.5227051-193.5322876
		c86.4967957-44.2549133,223.0085907-72.8203125,376.6359863-72.8203125
		C385.375,329.0720825,487.6850891,344.0671692,568.5137329,369.1531677z"/>
	<g class="st2">
		<path class="st3" d="M-62.3353996,389.8699951c14.9524002,0,27.1477013-12.1953125,27.1477013-27.1480103
			c0-14.9526062-12.1953011-27.1473999-27.1477013-27.1473999c-14.9527016,0-27.1479988,12.1947937-27.1479988,27.1473999
			C-89.4833984,377.6746826-77.2881012,389.8699951-62.3353996,389.8699951z"/>
		<polygon class="st4" points="-67.3412933,364.2078857 -62.6034966,373.8098755 -49.6159973,354.4538879 -45.900898,356.9421692 
			-60.6571999,378.9348755 -60.6571999,415.8494873 -65.1432953,415.8494873 -65.1432953,378.7756958 -71.3541946,366.1877747 		"/>
	</g>
	<path class="st5" d="M510.3783875,462.9880676c-68.5697937,80.9975891-170.9755859,132.436615-285.4121094,132.436615
		c-134.1713867,0-251.8114929-70.7026978-317.7539063-176.8681946
		c61.7299957-13.3018188,134.8119965-21.3320007,214.3461914-22.2232056
		C279.3457031,394.5652771,423.6983032,421.3279724,510.3783875,462.9880676z"/>
	<g>
		<g>
			<rect x="195.0072937" y="335.3240967" class="st6" width="50.9780998" height="133.2489929"/>
			<rect x="195.0072937" y="335.3240967" class="st7" width="34.3218002" height="133.2489929"/>
			<rect x="195.0072937" y="335.3240967" class="st8" width="25.4892998" height="139.5238953"/>
			<rect x="195.0072937" y="335.3240967" class="st9" width="9.085" height="139.5238953"/>
			<path class="st6" d="M253.7177887,335.3240967v6.6195984h9.6807098v-6.6195984h3.441803v133.2489929h-3.441803v-6.6192017
				h-9.6807098v6.6192017h-3.4423981V335.3240967H253.7177887L253.7177887,335.3240967z M253.7177887,345.3855896v7.155304
				h9.6807098v-7.155304H253.7177887L253.7177887,345.3855896z M253.7177887,355.9822693v7.1552124h9.6807098v-7.1552124
				H253.7177887L253.7177887,355.9822693z M253.7177887,366.579895v7.1552734h9.6807098v-7.1552734H253.7177887
				L253.7177887,366.579895z M253.7177887,377.1770935v7.1547852h9.6807098v-7.1547852H253.7177887L253.7177887,377.1770935z
				 M253.7177887,387.774292v7.1546936h9.6807098v-7.1546936H253.7177887L253.7177887,387.774292z M253.7177887,398.3708801
				v7.155304h9.6807098v-7.155304H253.7177887L253.7177887,398.3708801z M253.7177887,408.9680786v7.1548157h9.6807098v-7.1548157
				H253.7177887L253.7177887,408.9680786z M253.7177887,419.5652771v7.1548157h9.6807098v-7.1548157H253.7177887
				L253.7177887,419.5652771z M253.7177887,430.162384v7.155304h9.6807098v-7.155304H253.7177887L253.7177887,430.162384z
				 M253.7177887,440.7595825v7.1547852h9.6807098v-7.1547852H253.7177887L253.7177887,440.7595825z M253.7177887,451.356781
				v7.1547852h9.6807098v-7.1547852H253.7177887z"/>
		</g>
		<path class="st9" d="M14.5712996,52.7878876H447.276886c8.0253906,0,14.5712891,6.5459023,14.5712891,14.5712814v254.1699219
			c0,8.0253906-6.5458984,14.5712891-14.5712891,14.5712891H14.5712996C6.5458999,336.1003723,0,329.5544739,0,321.5290833
			V67.359169C0,59.3337898,6.5458999,52.7878876,14.5712996,52.7878876z"/>
		<path class="st6" d="M456.2792969,332.9729919c-2.480896,1.957489-5.6094055,3.1273804-9.0024109,3.1273804H14.5712996
			c-3.3934994,0-6.5214996-1.1698914-9.0028992-3.1273804H456.2792969z"/>
		<path class="st10" d="M20.3993988,67.359169h421.0488892c3.2098999,0,5.8285828,2.6182175,5.8285828,5.8281174v242.5137024
			c0,3.2099915-2.6186829,5.8280945-5.8285828,5.8280945H20.3993988c-3.2098999,0-5.8280993-2.618103-5.8280993-5.8280945
			V73.1872864C14.5712996,69.9773865,17.1894989,67.359169,20.3993988,67.359169z"/>
		<g>
			<rect x="220.7993011" y="18.4817905" class="st11" width="8.0611" height="35.8740005"/>
			<rect x="342.1239929" y="38.6360893" class="st11" width="8.0615997" height="15.7196999"/>
			<rect x="99.4740982" y="38.6360893" class="st11" width="8.0611" height="15.7196999"/>
			<polygon class="st9" points="21.4154987,14.5124903 68.9628983,36.2488899 383.2348938,36.2488899 430.7817993,14.5124903 
				433.632782,20.7517891 385.3798828,42.8103905 384.6742859,43.1326904 383.9545898,43.1326904 68.2431946,43.1326904 
				67.5234985,43.1326904 66.8179016,42.8103905 18.5649986,20.7517891 			"/>
			<g>
				<path class="st9" d="M19.3197994,14.2703896c7.7206993,0.2314005,13.7212009,9.0209999,13.5201015,15.7119007
					c-0.0298004,1.0048828-0.1993027,1.9032993-0.4893036,2.7069988c-0.0853996,2.6860008-6.2245979,4.6806984-13.7167988,4.4556007
					c-7.4926987-0.2246017-13.5014992-2.5839996-13.4252987-5.2700996c-0.2417002-0.8193016-0.3564-1.7270012-0.3262-2.7314014
					C5.0829997,22.4519901,11.5995998,14.0383902,19.3197994,14.2703896L19.3197994,14.2703896z M32.3505974,32.6892891v0.0004997
					v-0.0033989V32.6892891L32.3505974,32.6892891z M5.2084999,31.8718891v0.0029011l0,0V31.8718891z"/>
				<path class="st12" d="M18.9258003,27.4133892c7.4945984,0.2250996,13.5059052,2.5860004,13.4247971,5.2730007
					c-0.0805969,2.6875-6.2221985,4.6835976-13.7167988,4.4584999c-7.4950914-0.2251015-13.5062981-2.5859985-13.4252987-5.2730007
					C5.2890997,29.1843891,11.430707,27.1882896,18.9258003,27.4133892z"/>
			</g>
			<g>
				<path class="st9" d="M431.8847961,14.2703896c7.7201843,0.2314005,13.7207031,9.0209999,13.5195007,15.7119007
					c-0.0298157,1.0048828-0.1992188,1.9032993-0.4888,2.7069988c-0.0854187,2.6860008-6.2250977,4.6806984-13.7171936,4.4556007
					c-7.492218-0.2246017-13.5015259-2.5839996-13.4253235-5.2700996c-0.2416992-0.8193016-0.3564758-1.7270012-0.3262024-2.7314014
					C417.6474915,22.4519901,424.1645813,14.0383902,431.8847961,14.2703896L431.8847961,14.2703896z M444.9154968,32.6892891
					v0.0004997v-0.0033989V32.6892891L444.9154968,32.6892891z M417.7729797,31.8718891v0.0029011l0,0V31.8718891z"/>
				<path class="st12" d="M431.4902954,27.4133892c7.4950867,0.2250996,13.5057983,2.5860004,13.4252014,5.2730007
					c-0.0809937,2.6875-6.2221069,4.6835976-13.7171936,4.4584999c-7.4952087-0.2251015-13.5059204-2.5859985-13.4253235-5.2730007
					C417.8534851,29.1843891,423.9950867,27.1882896,431.4902954,27.4133892z"/>
			</g>
			<g>
				<path class="st9" d="M225.289093,0.0046903c7.719696,0.2314823,13.7207031,9.0209999,13.5195007,15.7118998
					c-0.0298004,1.004899-0.1992035,1.9038992-0.4891968,2.707099c-0.0855103,2.6860008-6.2246857,4.6806011-13.7173004,4.4554844
					c-7.4922028-0.2245827-13.5010071-2.5834827-13.4248047-5.2700005
					c-0.2416992-0.8192825-0.3564911-1.7270002-0.3262024-2.7313833
					C211.0517883,8.1868896,217.5683899-0.2272097,225.289093,0.0046903L225.289093,0.0046903z M238.319397,18.4236889v0.0004845
					v-0.0034828V18.4236889L238.319397,18.4236889z M211.1772919,17.6062889v0.0028839l0,0V17.6062889z"/>
				<path class="st12" d="M224.8940887,13.14779c7.4951019,0.2250996,13.5063019,2.5859003,13.4253082,5.2729006
					c-0.0805969,2.6874828-6.2221985,4.6835995-13.7173004,4.4584827
					c-7.4951019-0.2245827-13.5059052-2.5858841-13.4248047-5.2728844
					C211.2577972,14.9187899,217.3988953,12.923173,224.8940887,13.14779z"/>
			</g>
		</g>
		<g>
			<rect x="220.7993011" y="336.1008911" class="st11" width="8.0611" height="35.8736"/>
			<rect x="342.1239929" y="336.1003723" class="st11" width="8.0615997" height="15.7197905"/>
			<rect x="99.4740982" y="336.1003723" class="st11" width="8.0611" height="15.7197905"/>
			<polygon class="st9" points="21.4154987,375.9436951 68.9628983,354.2078857 383.2348938,354.2078857 430.7817993,375.9436951 
				433.632782,369.704895 385.3798828,347.6462708 384.6742859,347.3235779 383.9545898,347.3235779 68.2431946,347.3235779 
				67.5234985,347.3235779 66.8179016,347.6462708 18.5649986,369.704895 			"/>
			<g>
				<path class="st9" d="M19.3197994,376.1863708c7.7206993-0.2314758,13.7212009-9.0209961,13.5201015-15.7118835
					c-0.0298004-1.0049133-0.1993027-1.9039001-0.4893036-2.7076111c-0.0853996-2.6854858-6.2245979-4.6800842-13.7167988-4.4555054
					c-7.4926987,0.2256165-13.5014992,2.5844116-13.4252987,5.2705078c-0.2417002,0.8193054-0.3564,1.7269897-0.3262,2.7314148
					C5.0829997,368.0041809,11.5995998,376.4182739,19.3197994,376.1863708L19.3197994,376.1863708z M32.3505974,357.7668762
					L32.3505974,357.7668762v0.0035095V357.7668762L32.3505974,357.7668762z M5.2084999,358.5847778v-0.0033875v0.0004883
					V358.5847778z"/>
				<path class="st12" d="M18.9258003,363.0427856c7.4945984-0.2246094,13.5059052-2.5854187,13.4247971-5.2729187
					c-0.0805969-2.6869812-6.2221985-4.683075-13.7167988-4.4584961c-7.4950914,0.2256165-13.5062981,2.585907-13.4252987,5.273407
					C5.2890997,361.2717896,11.430707,363.2678833,18.9258003,363.0427856z"/>
			</g>
			<g>
				<path class="st9" d="M431.8847961,376.1863708c7.7201843-0.2314758,13.7207031-9.0209961,13.5195007-15.7118835
					c-0.0298157-1.0049133-0.1992188-1.9039001-0.4888-2.7076111c-0.0854187-2.6854858-6.2250977-4.6800842-13.7171936-4.4555054
					c-7.492218,0.2256165-13.5015259,2.5844116-13.4253235,5.2705078c-0.2416992,0.8193054-0.3564758,1.7269897-0.3262024,2.7314148
					C417.6474915,368.0041809,424.1645813,376.4182739,431.8847961,376.1863708L431.8847961,376.1863708z M444.9154968,357.7668762
					L444.9154968,357.7668762v0.0035095V357.7668762L444.9154968,357.7668762z M417.7729797,358.5847778v-0.0033875v0.0004883
					V358.5847778z"/>
				<path class="st12" d="M431.4902954,363.0427856c7.4950867-0.2246094,13.5057983-2.5854187,13.4252014-5.2729187
					c-0.0809937-2.6869812-6.2221069-4.683075-13.7171936-4.4584961c-7.4952087,0.2256165-13.5059204,2.585907-13.4253235,5.273407
					C417.8534851,361.2717896,423.9950867,363.2678833,431.4902954,363.0427856z"/>
			</g>
			<g>
				<path class="st9" d="M225.289093,390.4524841c7.719696-0.2319031,13.7207031-9.0215149,13.5195007-15.7128906
					c-0.0298004-1.004425-0.1992035-1.9033203-0.4891968-2.7065125c-0.0855103-2.6860962-6.2246857-4.6806946-13.7173004-4.4555969
					c-7.4922028,0.2246094-13.5010071,2.5839844-13.4248047,5.269989c-0.2416992,0.8193054-0.3564911,1.7271118-0.3262024,2.7314148
					C211.0517883,382.2703857,217.5683899,390.6838684,225.289093,390.4524841L225.289093,390.4524841z M238.319397,372.0330811
					v-0.0004883v0.0028992V372.0330811L238.319397,372.0330811z M211.1772919,372.8503723v-0.0033875v0.0004883V372.8503723z"/>
				<path class="st12" d="M224.8940887,377.3083801c7.4951019-0.2246094,13.5063019-2.5853882,13.4253082-5.2728882
					c-0.0805969-2.6870117-6.2221985-4.6831055-13.7173004-4.4580078
					c-7.4951019,0.2246094-13.5059052,2.5853882-13.4248047,5.2728882
					C211.2577972,375.537384,217.3988953,377.5334778,224.8940887,377.3083801z"/>
			</g>
		</g>
		<g class="st2">
			<path class="st13" d="M84.9356003,148.0198822h-21.642601v-15.5083008c0-6.2929916,0.5527077-11.242691,1.6581955-14.8500977
				c1.1064072-3.6333084,3.1338043-6.8984985,6.108902-9.7680969c2.9750977-2.8964996,6.7929001-5.1605988,11.4003983-6.7929993
				l4.2129059,9.0044022c-4.2915039,1.4482956-7.3456955,3.4491959-9.2154007,6.0033798
				c-1.8691025,2.5801163-2.8437042,6.003006-2.9487,10.2686157h10.4263V148.0198822L84.9356003,148.0198822z
				 M112.7460938,148.0198822H91.1029968v-15.5083008c0-6.3194122,0.552803-11.2958908,1.6587067-14.9028931
				c1.1054916-3.6069031,3.1664963-6.8387985,6.1611938-9.7153015c3.0078125-2.8896027,6.7929001-5.1605988,11.3480988-6.7929993
				l4.2128983,9.0044022c-4.2919998,1.4482956-7.3524933,3.4449005-9.2157974,6.0033798
				c-1.875,2.5752182-2.8437958,6.003006-2.9487,10.2686157h10.4266968V148.0198822z"/>
			<path class="st13" d="M376.9125977,240.8684845h21.6430969v15.5077972c0,6.2929993-0.5531921,11.2431946-1.6592102,14.8500977
				c-1.1059875,3.6337891-3.132782,6.898407-6.1083984,9.7686157c-2.9750977,2.8959961-6.7929993,5.1605835-11.4009094,6.7928772
				l-4.2123718-9.0047913c4.2914734-1.4483032,7.3456726-3.4493103,9.2153931-6.0029907
				c1.8690796-2.5805054,2.8432007-6.003418,2.9487-10.2684937h-10.4263V240.8684845L376.9125977,240.8684845z
				 M349.1020813,240.8684845h21.6430054v15.5077972c0,6.3193054-0.5531921,11.2958984-1.6586914,14.9028015
				c-1.105896,3.6069946-3.1660156,6.8388977-6.1611023,9.7159119c-3.0078125,2.8890991-6.7929993,5.1605835-11.348114,6.7928772
				l-4.2124023-9.0047913c4.2915039-1.4483032,7.3520203-3.4449158,9.2148132-6.0029907
				c1.8760071-2.5757141,2.843811-6.003418,2.9491882-10.2684937h-10.4266968V240.8684845z"/>
		</g>
	</g>
	<path class="st14" d="M539.3466797,423.9167786c-66.5361023,103.1827087-182.4755859,171.5079041-314.3803711,171.5079041
		c-70.6035004,0-136.6298981-19.5831299-192.9598999-53.6005859
		c68.4164963-43.1075134,178.875885-81.093811,310.0394897-102.0274048
		C410.9091797,428.806488,477.9859009,423.7214661,539.3466797,423.9167786z"/>
	<path class="st15" d="M-131.2868042,278.4543762c-12.1447906,0-21.9895935-9.844696-21.9895935-21.9896851
		c0-12.0903015,9.7581024-21.9009094,21.8282013-21.9873047c0.9568024-21.3042145,18.5278015-38.2808075,40.0681-38.2808075
		c21.5727005,0,39.1615982,17.0283051,40.0708046,38.3775024c0.6832924-0.0639954,1.376194-0.0986938,2.0763931-0.0986938
		c12.1447983,0,21.9892998,9.8447876,21.9892998,21.9893036c0,12.144989-9.8445015,21.9896851-21.9892998,21.9896851
		C-75.0328979,278.4543762-104.8796005,278.4543762-131.2868042,278.4543762z"/>
	<path class="st0" d="M-220.7777863,187.0456848c-6.0740051,0-10.9978027-4.9237976-10.9978027-10.9980011
		c0-6.0468903,4.8804016-10.9530945,10.9171906-10.9965973c0.478302-10.655304,9.2664032-19.1454926,20.0391083-19.1454926
		c10.7892914,0,19.5858917,8.5165863,20.040802,19.1938934c0.3416901-0.0323181,0.6882019-0.049408,1.0382996-0.049408
		c6.0739899,0,10.9977875,4.9234009,10.9977875,10.9976044s-4.9237976,10.9980011-10.9977875,10.9980011
		C-192.6434937,187.0456848-207.5707855,187.0456848-220.7777863,187.0456848z"/>
	<path class="st15" d="M301.4184875-15.820509c-12.9190063,0-23.3910828-10.4720993-23.3910828-23.3907986
		c0-12.8610992,10.3797913-23.2966995,23.219696-23.3889008c1.0170898-22.6618996,19.7079773-40.7199974,42.6210938-40.7199974
		c22.9476929,0,41.657196,18.1134949,42.6239929,40.822998c0.7271118-0.0684013,1.4638977-0.1049995,2.2090149-0.1049995
		c12.9188843,0,23.3905945,10.4721985,23.3905945,23.3908997S401.6200867-15.820509,388.7012024-15.820509
		C361.256897-15.820509,329.5083008-15.820509,301.4184875-15.820509z"/>
	<path class="st0" d="M530.7172852-28.9269085c-8.4580078,0-15.3140259-6.8561993-15.3140259-15.3141994
		c0-8.4203987,6.7954712-15.2524986,15.2017212-15.3128014c0.6660156-14.8369217,12.902832-26.6595993,27.9042969-26.6595993
		c15.0234375,0,27.2728882,11.8592987,27.906189,26.7270012c0.475647-0.044899,0.9581299-0.0685997,1.4458008-0.0685997
		c8.4581299,0,15.3140259,6.855999,15.3140259,15.3139992s-6.855896,15.3141994-15.3140259,15.3141994
		C569.8936157-28.9269085,549.1079102-28.9269085,530.7172852-28.9269085z"/>
</g>
</svg>
