<svg xmlns="http://www.w3.org/2000/svg" xml:space="preserve" viewBox="0 0 255.62 80.06"><path fill="#fff" d="m21.37 79.72 8.17-11.34h18.22L36.44 52.75 16.77 79.72H0l27.96-38.77c.9-1.28 2.13-2.41 3.71-3.37 1.72-1.05 3.39-1.57 5.02-1.57 1.65 0 3.32.52 5.02 1.57 1.5.92 2.71 2.05 3.63 3.37l27.31 38.77zm109.07-22.2c0 6.37-2.52 11.68-7.51 15.87-4.94 4.22-11.25 6.32-18.84 6.32H74.9v-27.2h13.5v15.97h15.68c3.76 0 6.86-.95 9.26-2.86 2.44-1.89 3.65-4.41 3.65-7.52 0-3.1-1.21-5.66-3.67-7.66-2.45-2-5.5-2.99-9.21-2.99H74.9l8.58-11.33h20.62c7.7 0 14.04 1.96 18.94 5.91 4.93 3.96 7.4 9.12 7.4 15.49m4.37-6.26h8.82v28.56h-8.82zm47.2 24.9c0 2.59-1.16 3.9-3.49 3.9-1.75 0-3.34-.65-4.85-1.94l-16.72-13.98v15.68h-8.92v-24.9c0-1.07.34-1.94 1.02-2.63.68-.68 1.65-1.03 2.86-1.03 1.65 0 3.15.57 4.51 1.71l16.72 14V51.26h8.87z"/><defs><path id="a" d="M255.18 79.72h-19.72l-1.45-1.12c-2.81.73-5.82 1.12-9.01 1.12h-13.13c-7.66 0-13.96-2.11-18.95-6.32-4.94-4.19-7.46-9.5-7.46-15.87s2.47-11.53 7.41-15.5c4.94-3.95 11.29-5.91 18.95-5.91h13.13c7.71 0 14.05 1.96 18.95 5.91 4.94 3.96 7.37 9.12 7.37 15.5 0 5.4-1.89 10.18-5.72 14.27zm-30.24-32.27h-13.08c-3.78 0-6.83.99-9.26 2.99-2.42 2-3.63 4.56-3.63 7.66 0 3.11 1.21 5.63 3.63 7.52 2.42 1.91 5.48 2.86 9.26 2.86h10.03l-6.01-5.04h19.58l.44.39c1.26-1.7 1.89-3.59 1.89-5.73q0-4.725-3.63-7.68c-2.38-1.98-5.48-2.97-9.22-2.97"/></defs><clipPath id="c"><use href="#a" overflow="visible"/></clipPath><linearGradient id="b" x1="-324.691" x2="-299.877" y1="411.3" y2="411.3" gradientTransform="matrix(2.8103 0 0 1.758 1097.826 -665.145)" gradientUnits="userSpaceOnUse"><stop offset="0" stop-color="#e42324"/><stop offset="1" stop-color="#bf0c1d"/></linearGradient><path fill="url(#b)" d="M185.45 36.12h69.74v43.6h-69.74z" clip-path="url(#c)"/><path fill="#c00b1d" d="M255.18 79.72v-.15H235.5l-1.5-1.16-.05.05c-2.76.73-5.77 1.12-8.97 1.12h-13.13c-7.61 0-13.86-2.08-18.85-6.3-4.94-4.17-7.42-9.43-7.42-15.75s2.47-11.44 7.37-15.36c4.9-3.93 11.19-5.9 18.85-5.9h13.13c7.71 0 13.96 1.97 18.85 5.9s7.32 9.04 7.32 15.36c0 5.38-1.89 10.08-5.67 14.15l-.15.15 9.79 8.02zv-.15zl.1-.1-9.64-7.95-.1.12.15.12c3.83-4.14 5.77-8.97 5.77-14.39 0-6.41-2.52-11.64-7.46-15.6-4.94-3.99-11.29-5.97-19.04-5.97h-13.13c-7.71 0-14.05 1.99-19.04 5.97-4.99 3.96-7.46 9.18-7.46 15.6 0 6.4 2.52 11.75 7.51 15.99 5.04 4.26 11.39 6.37 19.04 6.37h13.13c3.2 0 6.25-.39 9.06-1.14l-.05-.15-.1.15 1.45 1.14h20.26l-.34-.27zm-30.24-32.27v-.16h-13.08c-3.78 0-6.93 1.01-9.35 3.03-2.47 2.01-3.73 4.63-3.73 7.78 0 3.14 1.26 5.73 3.73 7.65 2.42 1.96 5.57 2.91 9.35 2.91h10.47l-6.01-5.02h19.09l.39.32.1.12.1-.15c1.31-1.72 1.94-3.66 1.94-5.83 0-3.19-1.26-5.81-3.68-7.8-2.42-2-5.53-3-9.3-3v.33c3.73 0 6.74.98 9.11 2.92 2.38 1.95 3.54 4.46 3.54 7.56 0 2.1-.63 3.99-1.84 5.63l.14.1.1-.1-.44-.39-.05-.05h-20.06l6.01 5.04h-9.6c-3.73 0-6.78-.95-9.16-2.86-2.38-1.89-3.59-4.31-3.59-7.38 0-3.06 1.21-5.56 3.59-7.54 2.38-1.95 5.43-2.94 9.16-2.94h13.08v-.17z"/><linearGradient id="e" x1="94.175" x2="112.154" y1="8.989" y2="8.989" gradientUnits="userSpaceOnUse"><stop offset="0" stop-color="#e42324"/><stop offset="1" stop-color="#bf0c1d"/></linearGradient><path fill="url(#e)" d="M112.15 8.99c0 4.96-4.02 8.99-8.99 8.99-4.96 0-8.99-4.02-8.99-8.99 0-4.96 4.02-8.99 8.99-8.99s8.99 4.02 8.99 8.99"/><linearGradient id="f" x1="118.864" x2="131.836" y1="22.724" y2="22.724" gradientUnits="userSpaceOnUse"><stop offset="0" stop-color="#e42324"/><stop offset="1" stop-color="#bf0c1d"/></linearGradient><path fill="url(#f)" d="M131.84 22.72c0 3.58-2.9 6.49-6.49 6.49a6.49 6.49 0 0 1-6.49-6.49c0-3.58 2.9-6.49 6.49-6.49 3.58.01 6.49 2.91 6.49 6.49"/><linearGradient id="g" x1="134.048" x2="143.947" y1="40.624" y2="40.624" gradientUnits="userSpaceOnUse"><stop offset="0" stop-color="#e42324"/><stop offset="1" stop-color="#bf0c1d"/></linearGradient><path fill="url(#g)" d="M143.95 40.62c0 2.73-2.22 4.95-4.95 4.95s-4.95-2.22-4.95-4.95 2.22-4.95 4.95-4.95 4.95 2.22 4.95 4.95"/></svg>