<?xml version="1.0" encoding="utf-8"?>
<!-- Generator: Adobe Illustrator 22.1.0, SVG Export Plug-In . SVG Version: 6.00 Build 0)  -->
<svg version="1.1" id="Lager_1" xmlns="http://www.w3.org/2000/svg" xmlns:xlink="http://www.w3.org/1999/xlink" x="0px" y="0px"
	 viewBox="0 0 221.1 49.8" enable-background="new 0 0 221.1 49.8" xml:space="preserve">
<g>
	<path fill="#023063" d="M6.8,28.4v-9.6c6.5-0.5,10.4,0.1,10.4,4.7c0,5.1-3.9,4.8-6,4.8H6.8 M13.2,33.8c6.2,0,10.9-3.9,10.9-9.7
		c0-3.4-1.8-6.3-4.9-7.7c2.8-1.5,4.3-3.8,4.3-7C23.4,3.8,20.7,0,9.7,0H0v33.8H13.2z M6.8,5.4c4.8,0,9.7-0.5,9.7,4.3
		c0,4.7-4.7,4.1-9.7,4.1V5.4z"/>
	<path fill="#023063" d="M40.4,26.4c-1.2,1.6-3.1,3.2-5.7,3.2c-1.5,0-2.2-1.2-2.2-2.6c0-3.6,5.3-3.8,7.9-4.3V26.4 M41.4,33.8h6.2
		c-0.8-1.6-0.9-3.3-0.9-5.1V16.7c0-4.6-3-7.7-9.5-7.7c-5.1,0-8.6,1.6-10,6.8l6.1,1c0.3-2.1,1.8-3,3.9-3c2.4,0,3.5,1.2,3.1,4.6
		c-5.2,0.6-14.2,2-14.2,8.8c0,4.3,3.4,7.2,7.6,7.2c3.1,0,4.5-1,6.9-2.7L41.4,33.8z"/>
	<polyline fill="#023063" points="58.1,33.8 51.7,33.8 51.7,0 58.1,0 58.1,33.8 	"/>
	<polyline fill="#023063" points="69.3,33.8 62.9,33.8 62.9,0 69.3,0 69.3,33.8 	"/>
	<path fill="#023063" d="M80.5,33.8h-6.4V9.5h6.4V33.8 M80.5,5.9h-6.4V0h6.4V5.9z"/>
	<path fill="#023063" d="M91.5,12c2-1.7,4.6-3,7.3-3c2.6,0,6.4,1.6,6.4,7.6v17.2h-6.4V19.2c0-2,0.1-5-2.7-5c-1.9,0-3.4,1.3-4.6,2.6
		v17h-6.4V9.5h6.4V12"/>
	<path fill="#023063" d="M115.8,17.7c0-2.3,0.8-4.5,3.5-4.5c2.4,0,3.5,1.9,3.5,4.1c0,2.3-0.8,4.5-3.5,4.5
		C116.9,21.7,115.8,19.9,115.8,17.7 M122,34.3c3.8,0.2,4.7,0.1,4.7,1.3c0,2-5.7,2.1-6.7,2.1c-1.5,0-6.1-0.1-6.1-2.4
		c0-0.8,0.4-1.1,1-1.5L122,34.3z M119.3,26c5.3,0,9.7-3.1,9.7-8.5c0-1.4-0.6-2.8-1.3-4.1c0.6-0.3,1-0.5,1.7-0.5c0.7,0,1.4,0.3,2,0.5
		V8.8c-0.6-0.1-1.3-0.2-1.9-0.2c-1.9,0-3.1,0.8-4.4,2.1c-1.8-1.1-3.9-1.7-6-1.7c-5.2,0-9.8,3.1-9.8,8.5c0,2.8,1.3,5,3,6.7
		c-1.9,1.2-3.2,2.4-3.2,4.8c0,1.4,0.9,2.3,1.9,3.1c-1.5,0.9-2.6,1.8-2.6,3.7c0,3.2,2.9,6.1,11.2,6.1c9.7,0,12.1-3.8,12.1-7.4
		c0-9.5-16.9-4-16.9-7.2c0-1.1,1.1-1.5,1.8-1.5L119.3,26z"/>
	<path fill="#023063" d="M145.1,16.6c-0.3-1.7-0.9-2.9-2.8-2.9c-1.5,0-2.6,1.1-2.6,2.7c0,4.2,11.8,1.1,11.8,10.3
		c0,5.2-4.3,7.7-9.2,7.7c-5,0-8.1-2.4-8.8-7.5l6-0.7c0.1,1.7,1,3.4,3,3.4c1.6,0,3.1-0.7,3.1-2.6c0-4.3-11.8-0.8-11.8-10.3
		c0-4.9,4.2-7.8,8.9-7.8c4.3,0,7.7,2.7,8.4,6.9L145.1,16.6"/>
	<polyline fill="#023063" points="161.6,33.8 155.2,33.8 155.2,0 161.6,0 161.6,33.8 	"/>
	<path fill="#023063" d="M176.4,29.6c-3.5,0-4.1-4.9-4.1-7.9s0.6-7.9,4.1-7.9s4.1,4.9,4.1,7.9S179.9,29.6,176.4,29.6 M176.4,34.3
		c7.1,0,10.7-6.2,10.7-12.7c0-6.5-3.6-12.7-10.7-12.7c-7.1,0-10.7,6.2-10.7,12.7C165.7,28.1,169.3,34.3,176.4,34.3z"/>
	<polyline fill="#023063" points="203.1,33.8 196.3,33.8 188.7,9.5 195.5,9.5 199.7,26.9 199.8,26.9 204,9.5 210.4,9.5 203.1,33.8 	
		"/>
	<path fill="#023063" d="M216.4,8.5c-2,0-3.7-1.4-3.7-3.7c0-2.3,1.7-3.7,3.7-3.7c2.1,0,3.7,1.4,3.7,3.7C220,7,218.5,8.5,216.4,8.5
		 M216.4,9.5c2.7,0,4.7-2.1,4.7-4.7c0-2.6-2-4.7-4.7-4.7c-2.8,0-4.7,2.1-4.7,4.7C211.7,7.4,213.6,9.5,216.4,9.5z M214.4,2v5.5h1.2
		V5.6h0.8l0.9,1.9h1.4l-1.1-2.2c0.7-0.2,1.1-0.8,1.1-1.6c0-1-0.6-1.8-2-1.8H214.4z M215.6,4.5V3.1h0.4c0.6,0,1.4-0.1,1.4,0.8
		c0,0.7-0.8,0.7-1.3,0.7H215.6z"/>
	<polyline fill="#023063" points="184.6,5.2 168.5,5.2 168.5,0.1 184.6,0.1 184.6,5.2 	"/>
</g>
<g>
	<path d="M137.8,41.5h1.2l1.5,4.2h0l1.3-4.2h1.2l-2,5.7H140L137.8,41.5z"/>
	<path d="M147.1,46.5L147.1,46.5c-0.2,0.3-0.6,0.8-1.5,0.8c-1.1,0-1.6-0.6-1.6-1.5c0-1.5,1.7-1.9,3.1-1.9v-1
		c-0.1-0.6-0.5-0.7-0.9-0.7c-0.6,0-0.9,0.4-0.9,0.9h-1.1c0-0.9,0.5-1.7,2.1-1.7c1.9,0,1.9,1.4,1.9,1.9v3.9h-1.1V46.5z M146.9,44.7
		c-0.9,0-1.7,0.4-1.7,1.1c0,0.4,0.3,0.7,0.6,0.7c0.7,0,1.3-0.9,1.3-1.5v-0.3H146.9z"/>
	<path d="M150.5,41.5h1.1v1.2h0c0.2-0.5,0.6-1.3,1.8-1.3v1.2c-1,0-1.8,0.5-1.8,2.2v2.4h-1.1V41.5z"/>
	<path d="M158.2,46.4L158.2,46.4c-0.1,0.3-0.6,1-1.6,1c-1.4,0-2-1.3-2-2.9c0-1.9,0.7-3.1,2-3.1c0.9,0,1.4,0.6,1.5,0.9h0V39h1.1v8.3
		h-1.1V46.4z M157,46.5c0.9,0,1.2-1.2,1.2-2.2c0-1-0.3-2.1-1.2-2.1c-0.8,0-1.1,0.9-1.1,2.1C155.9,45.2,156,46.5,157,46.5z"/>
	<path d="M164.4,46.5L164.4,46.5c-0.2,0.3-0.6,0.8-1.5,0.8c-1.1,0-1.6-0.6-1.6-1.5c0-1.5,1.7-1.9,3.1-1.9v-1
		c-0.1-0.6-0.5-0.7-0.9-0.7c-0.6,0-0.9,0.4-0.9,0.9h-1.1c0-0.9,0.5-1.7,2.1-1.7c1.9,0,1.9,1.4,1.9,1.9v3.9h-1.1V46.5z M164.2,44.7
		c-0.9,0-1.7,0.4-1.7,1.1c0,0.4,0.3,0.7,0.6,0.7c0.7,0,1.3-0.9,1.3-1.5v-0.3H164.2z"/>
	<path d="M172.1,47.5c0,1.7-0.9,2.3-2.6,2.3c-0.9,0-1.5-0.1-1.8-0.2v-1.1c0.3,0.2,0.9,0.5,1.6,0.5c1.7,0,1.7-1.2,1.7-1.8v-0.9h0
		c-0.1,0.3-0.6,1-1.6,1c-1.5,0-2-1.4-2-2.9c0-1.6,0.6-3,2-3c0.9,0,1.4,0.6,1.5,0.9h0v-0.8h1.1V47.5z M169.7,46.4
		c0.9,0,1.3-1.2,1.3-2.1c0-0.9-0.3-2-1.2-2c-0.9,0-1.1,1.3-1.1,2.1C168.6,45.1,168.8,46.4,169.7,46.4z"/>
	<path d="M176.4,43.9c0.6,0.4,1.3,0.7,1.3,1.7c0,1.2-0.9,1.7-2.1,1.7c-0.8,0-1.3-0.2-1.5-0.2v-0.9c0.1,0,0.8,0.3,1.4,0.3
		c0.5,0,1.2-0.1,1.2-0.7c0-0.4-0.5-0.7-0.9-0.9l-0.6-0.3c-0.5-0.3-1.1-0.7-1.1-1.5c0-1,0.8-1.6,2-1.6c0.6,0,1,0.2,1.3,0.2v1
		c-0.2-0.1-0.7-0.3-1.3-0.3c-0.5,0-0.9,0.3-0.9,0.6c0,0.4,0.5,0.6,0.8,0.8L176.4,43.9z"/>
	<path d="M183.7,47.5c0,1.7-0.9,2.3-2.6,2.3c-0.9,0-1.5-0.1-1.8-0.2v-1.1c0.3,0.2,0.9,0.5,1.6,0.5c1.7,0,1.7-1.2,1.7-1.8v-0.9h0
		c-0.1,0.3-0.6,1-1.6,1c-1.5,0-2-1.4-2-2.9c0-1.6,0.6-3,2-3c0.9,0,1.4,0.6,1.5,0.9h0v-0.8h1.1V47.5z M181.4,46.4
		c0.9,0,1.3-1.2,1.3-2.1c0-0.9-0.3-2-1.2-2c-0.9,0-1.1,1.3-1.1,2.1C180.3,45.1,180.4,46.4,181.4,46.4z"/>
	<path d="M186.2,39h1.1v8.3h-1.1V39z"/>
	<path d="M192.5,46.5L192.5,46.5c-0.2,0.3-0.6,0.8-1.5,0.8c-1.1,0-1.6-0.6-1.6-1.5c0-1.5,1.7-1.9,3.1-1.9v-1
		c-0.1-0.6-0.5-0.7-0.9-0.7c-0.6,0-0.9,0.4-0.9,0.9h-1.1c0-0.9,0.5-1.7,2.1-1.7c1.9,0,1.9,1.4,1.9,1.9v3.9h-1.1V46.5z M189.7,39.1
		h1.5v1.3h-1.5V39.1z M192.3,44.7c-0.9,0-1.7,0.4-1.7,1.1c0,0.4,0.3,0.7,0.6,0.7c0.7,0,1.3-0.9,1.3-1.5v-0.3H192.3z M192.2,39.1h1.5
		v1.3h-1.5V39.1z"/>
	<path d="M199.1,46.4L199.1,46.4c-0.1,0.3-0.6,1-1.6,1c-1.4,0-2-1.3-2-2.9c0-1.9,0.7-3.1,2-3.1c0.9,0,1.4,0.6,1.5,0.9h0V39h1.1v8.3
		h-1.1V46.4z M197.9,46.5c0.9,0,1.2-1.2,1.2-2.2c0-1-0.3-2.1-1.2-2.1c-0.8,0-1.1,0.9-1.1,2.1C196.7,45.2,196.9,46.5,197.9,46.5z"/>
	<path d="M203.8,47.7c0,1.7-1.4,2.1-2.5,2.1c-0.1,0-0.2,0-0.3,0v-0.9c0.1,0,0.3,0,0.4,0c1.3,0,1.3-0.9,1.3-1.7v-5.7h1.1V47.7z
		 M202.6,39h1.3v1.2h-1.3V39z"/>
	<path d="M210.1,47.2c-0.5,0.1-0.8,0.2-1.4,0.2c-1.7,0-2.8-1-2.8-3.3c0-2.4,1.6-2.7,2.3-2.7c1.4,0,2.1,0.9,2.1,2.3V44h-3.3
		c0,1.1,0.5,2.6,2.1,2.6c0.5,0,0.8-0.1,1.1-0.2V47.2z M209.2,43.2c0-0.4-0.2-1-1-1c-0.9,0-1.1,0.8-1.1,1H209.2z"/>
</g>
</svg>
