<?xml version="1.0" encoding="utf-8"?>
<!-- Generator: Adobe Illustrator 23.0.1, SVG Export Plug-In . SVG Version: 6.00 Build 0)  -->
<svg version="1.1" xmlns="http://www.w3.org/2000/svg" xmlns:xlink="http://www.w3.org/1999/xlink" x="0px" y="0px"
	 viewBox="0 0 101.3798981 117.160202" style="enable-background:new 0 0 101.3798981 117.160202;" xml:space="preserve">
<style type="text/css">
	.st0{fill:#FFFFFF;}
	.st1{fill:#06C7CA;}
	.st2{fill:#D3EEE4;}
	.st3{fill:#18252F;}
</style>
<g id="Layer_2">
	<rect x="9.019516" y="13.583478" class="st0" width="36.3095818" height="78.1111145"/>
	<rect x="21.019516" y="33.6945877" class="st0" width="74.5555573" height="60.5555573"/>
</g>
<g id="Layer_1">
	<g id="XMLID_380_">
		<g>
			<rect x="17.0389996" y="98.7198029" class="st1" width="20.5" height="16.9403992"/>
			<polygon class="st1" points="53.0790977,1.5 53.0790977,9.9102001 49.8798981,9.9102001 4.6991997,9.9102001 1.5,9.9102001 
				1.5,1.5 			"/>
			<rect x="54.0595169" y="98.7198029" class="st1" width="29.3095818" height="16.9403992"/>
			<path class="st1" d="M49.8798981,9.9102001v18.919899h-6.9404984V17.4698009H30.5292988v11.3700981h7.0096989v8.0400028
				h-7.0096989V48.25h7.0096989v8.0401001h-7.0096989V67.660202h7.0096989v8.0400009h-7.0096989v11.369194h7.0096989v11.6504059
				H17.0389996v16.9403992H4.6991997v-105.75H49.8798981z M24.049799,87.069397v-11.369194H11.6395998v11.369194H24.049799z
				 M24.049799,67.660202V56.2901001H11.6395998V67.660202H24.049799z M24.049799,48.25V36.8799019H11.6395998V48.25H24.049799z
				 M24.049799,28.8398991V17.4698009H11.6395998v11.3700981H24.049799z"/>
			<path class="st2" d="M54.0595169,98.7198029v16.9403992H37.5389977V98.7198029V87.069397v-11.369194V67.660202V56.2901001V48.25
				V36.8799019v-8.0400028h5.4004021v-0.0098h6.9404984h50v86.830101H83.3690948V98.7198029H54.0595169z M90.5995941,89.6298981
				v-7.5400009H46.8192978v7.5400009H90.5995941z M90.5995941,75.1298981v-7.5302963H46.8192978v7.5302963H90.5995941z
				 M90.5995941,60.6299019v-7.5303001H46.8192978v7.5303001H90.5995941z M90.5995941,46.1397018v-7.5401001H46.8192978v7.5401001
				H90.5995941z"/>
		</g>
		<g>
			<path class="st3" d="M24.049799,88.569397H11.6395998c-0.828084,0-1.5-0.6718979-1.5-1.5v-11.369194
				c0-0.8281021,0.671916-1.5,1.5-1.5H24.049799c0.8281002,0,1.5,0.6718979,1.5,1.5v11.369194
				C25.549799,87.8974991,24.8778992,88.569397,24.049799,88.569397z M13.1395998,85.569397h9.4101992v-8.369194h-9.4101992
				V85.569397z"/>
			<path class="st3" d="M24.049799,69.160202H11.6395998c-0.828084,0-1.5-0.6719055-1.5-1.5V56.2901001
				c0-0.8280983,0.671916-1.5,1.5-1.5H24.049799c0.8281002,0,1.5,0.6719017,1.5,1.5V67.660202
				C25.549799,68.4882965,24.8778992,69.160202,24.049799,69.160202z M13.1395998,66.160202h9.4101992v-8.3701019h-9.4101992
				V66.160202z"/>
			<path class="st3" d="M24.049799,49.75H11.6395998c-0.828084,0-1.5-0.6717987-1.5-1.5V36.8799019
				c0-0.8281021,0.671916-1.5,1.5-1.5H24.049799c0.8281002,0,1.5,0.6718979,1.5,1.5V48.25
				C25.549799,49.0782013,24.8778992,49.75,24.049799,49.75z M13.1395998,46.75h9.4101992v-8.3700981h-9.4101992V46.75z"/>
			<path class="st3" d="M24.049799,30.3398991H11.6395998c-0.828084,0-1.5-0.6718998-1.5-1.5V17.4698009
				c0-0.8282013,0.671916-1.500001,1.5-1.500001H24.049799c0.8281002,0,1.5,0.6717997,1.5,1.500001v11.3700981
				C25.549799,29.6679993,24.8778992,30.3398991,24.049799,30.3398991z M13.1395998,27.3398991h9.4101992v-8.3700981h-9.4101992
				V27.3398991z"/>
			<path class="st3" d="M42.9393997,30.3398991H30.5292988c-0.8281994,0-1.5-0.6718998-1.5-1.5V17.4698009
				c0-0.8282013,0.6718006-1.500001,1.5-1.500001h12.4101009c0.8281174,0,1.5,0.6717997,1.5,1.500001v11.3602982
				C44.4393997,29.6581993,43.7675171,30.3398991,42.9393997,30.3398991z M32.0293007,27.3398991h9.410099v-8.3700981h-9.410099
				V27.3398991z"/>
			<path class="st3" d="M37.5389977,49.75h-7.0096989c-0.8281994,0-1.5-0.6717987-1.5-1.5V36.8799019
				c0-0.8281021,0.6718006-1.5,1.5-1.5h7.0096989v3h-5.509697V46.75h5.509697V49.75z"/>
			<path class="st3" d="M37.5389977,88.569397h-7.0096989c-0.8281994,0-1.5-0.6718979-1.5-1.5v-11.369194
				c0-0.8281021,0.6718006-1.5,1.5-1.5h7.0096989v3h-5.509697v8.369194h5.509697V88.569397z"/>
			<path class="st3" d="M37.5389977,69.160202h-7.0096989c-0.8281994,0-1.5-0.6719055-1.5-1.5V56.2901001
				c0-0.8280983,0.6718006-1.5,1.5-1.5h7.0096989v3h-5.509697v8.3701019h5.509697V69.160202z"/>
			<rect x="37.5389977" y="114.160202" class="st3" width="16.5205173" height="3"/>
			<path class="st3" d="M99.8798981,117.160202H83.3690948v-3h15.0108032v-83.830101h-48.5v-3h50c0.8281021,0,1.5,0.6719017,1.5,1.5
				v86.830101C101.3798981,116.4882965,100.7080002,117.160202,99.8798981,117.160202z"/>
			<path class="st3" d="M39.0389977,98.7198029h-3V28.8398991c0-0.8280983,0.6719017-1.5098,1.5-1.5098h10.8409004V9.9102001h3
				v18.919899c0,0.8281002-0.6718979,1.5-1.5,1.5H39.0389977V98.7198029z"/>
			<path class="st3" d="M17.0389996,117.160202H4.6991997c-0.8280997,0-1.4999998-0.6719055-1.4999998-1.5v-105.75h2.9999998v104.25
				h10.8397999V117.160202z"/>
			<path class="st3" d="M90.5995941,47.6397018H46.8192978c-0.8280983,0-1.5-0.6719017-1.5-1.5v-7.5401001
				c0-0.8281021,0.6719017-1.5,1.5-1.5h43.7802963c0.8281021,0,1.5,0.6718979,1.5,1.5v7.5401001
				C92.0995941,46.9678001,91.4276962,47.6397018,90.5995941,47.6397018z M48.3192978,44.6397018h40.7802963v-4.5401001H48.3192978
				V44.6397018z"/>
			<path class="st3" d="M90.5995941,62.1299019H46.8192978c-0.8280983,0-1.5-0.6719017-1.5-1.5v-7.5303001
				c0-0.8281021,0.6719017-1.5,1.5-1.5h43.7802963c0.8281021,0,1.5,0.6718979,1.5,1.5v7.5303001
				C92.0995941,61.4580002,91.4276962,62.1299019,90.5995941,62.1299019z M48.3192978,59.1299019h40.7802963v-4.5303001H48.3192978
				V59.1299019z"/>
			<path class="st3" d="M90.5995941,76.6298981H46.8192978c-0.8280983,0-1.5-0.6718979-1.5-1.5v-7.5302963
				c0-0.8281021,0.6719017-1.5,1.5-1.5h43.7802963c0.8281021,0,1.5,0.6718979,1.5,1.5v7.5302963
				C92.0995941,75.9580002,91.4276962,76.6298981,90.5995941,76.6298981z M48.3192978,73.6298981h40.7802963v-4.5302963H48.3192978
				V73.6298981z"/>
			<path class="st3" d="M90.5995941,91.1298981H46.8192978c-0.8280983,0-1.5-0.6718979-1.5-1.5v-7.5400009
				c0-0.8280945,0.6719017-1.5,1.5-1.5h43.7802963c0.8281021,0,1.5,0.6719055,1.5,1.5v7.5400009
				C92.0995941,90.4580002,91.4276962,91.1298981,90.5995941,91.1298981z M48.3192978,88.1298981h40.7802963v-4.5400009H48.3192978
				V88.1298981z"/>
			<path class="st3" d="M83.3690948,117.160202H54.0595169c-0.8281174,0-1.5-0.6719055-1.5-1.5V98.7198029h3v15.4403992h26.3095779
				V98.7198029h3v16.9403992C84.8690948,116.4882965,84.197197,117.160202,83.3690948,117.160202z"/>
			<path class="st3" d="M37.5389977,117.160202H17.0389996c-0.8281002,0-1.5-0.6719055-1.5-1.5V98.7198029
				c0-0.8282013,0.6718998-1.5,1.5-1.5h20.4999981c0.8282013,0,1.5,0.6717987,1.5,1.5v16.9403992
				C39.0389977,116.4882965,38.3671989,117.160202,37.5389977,117.160202z M18.5389996,114.160202h17.4999981v-13.9403992
				H18.5389996V114.160202z"/>
			<path class="st3" d="M53.0790977,11.4102001H1.5c-0.8282,0-1.5-0.6718998-1.5-1.5V1.5C0,0.6719,0.6718,0,1.5,0h51.5790977
				c0.8281021,0,1.5,0.6719,1.5,1.5v8.4102001C54.5790977,10.7383003,53.9071999,11.4102001,53.0790977,11.4102001z M3,8.4102001
				h48.5790977V3H3V8.4102001z"/>
			<rect x="45.3290977" y="97.2198029" class="st3" width="46.7607002" height="3"/>
		</g>
	</g>
</g>
</svg>
