<?xml version="1.0" encoding="utf-8"?>
<!-- Generator: Adobe Illustrator 22.1.0, SVG Export Plug-In . SVG Version: 6.00 Build 0)  -->
<svg version="1.1" id="Layer_1" xmlns="http://www.w3.org/2000/svg" xmlns:xlink="http://www.w3.org/1999/xlink" x="0px" y="0px"
	 viewBox="0 0 28 28" enable-background="new 0 0 28 28" xml:space="preserve">
<g>
	<path fill="#FFFFFF" d="M0.3,8C0.5,8,0.7,8,0.8,7.9l1.4-1.3L4.7,9C4.8,9.1,4.9,9.2,5,9.2c0.1,0,0.3,0,0.4-0.1L9,5.5
		C9.2,5.3,9.2,5,9,4.8L6.5,2.3l1.4-1.5C8,0.7,8,0.5,8,0.3C7.9,0.1,7.7,0,7.5,0h-7C0.2,0,0,0.2,0,0.5v7C0,7.7,0.1,7.9,0.3,8z"/>
	<path fill="#FFFFFF" d="M5.5,19c-0.1-0.1-0.2-0.2-0.4-0.1c-0.1,0-0.3,0.1-0.4,0.1l-2.5,2.5l-1.4-1.4C0.7,20,0.5,20,0.3,20
		C0.1,20.1,0,20.3,0,20.5v7C0,27.8,0.2,28,0.5,28h7c0.2,0,0.4-0.1,0.5-0.3c0.1-0.2,0-0.4-0.1-0.5l-1.3-1.4L9,23.3
		c0.1-0.1,0.1-0.2,0.1-0.4c0-0.1-0.1-0.3-0.1-0.4L5.5,19z"/>
	<path fill="#FFFFFF" d="M27.7,20c-0.2-0.1-0.4,0-0.5,0.1l-1.4,1.3L23.3,19c-0.2-0.2-0.5-0.2-0.7,0L19,22.5c-0.2,0.2-0.2,0.5,0,0.7
		l2.5,2.5l-1.4,1.5C20,27.3,20,27.5,20,27.7c0.1,0.2,0.3,0.3,0.5,0.3h7c0.3,0,0.5-0.2,0.5-0.5v-7C28,20.3,27.9,20.1,27.7,20z"/>
	<path fill="#FFFFFF" d="M27.5,0h-7c-0.2,0-0.4,0.1-0.5,0.3c-0.1,0.2,0,0.4,0.1,0.5l1.3,1.4L19,4.7c-0.1,0.1-0.1,0.2-0.1,0.4
		c0,0.1,0.1,0.3,0.1,0.4L22.5,9c0.1,0.1,0.2,0.1,0.4,0.1c0.1,0,0.3-0.1,0.4-0.1l2.5-2.5l1.4,1.4C27.3,8,27.5,8,27.7,8
		C27.9,7.9,28,7.7,28,7.5v-7C28,0.2,27.8,0,27.5,0z"/>
</g>
</svg>
