<?xml version="1.0" encoding="utf-8"?>
<!-- Generator: Adobe Illustrator 16.0.3, SVG Export Plug-In . SVG Version: 6.00 Build 0)  -->
<!DOCTYPE svg PUBLIC "-//W3C//DTD SVG 1.1//EN" "http://www.w3.org/Graphics/SVG/1.1/DTD/svg11.dtd">
<svg version="1.1" id="Lager_1" xmlns="http://www.w3.org/2000/svg" xmlns:xlink="http://www.w3.org/1999/xlink" x="0px" y="0px"
	 width="516.086px" height="211.184px" viewBox="0 0 516.086 211.184" enable-background="new 0 0 516.086 211.184"
	 xml:space="preserve">
<path fill-rule="evenodd" clip-rule="evenodd" fill="#C0AF64" d="M244.926,74.23c-3.45,5.391-8.723,13.52-12.575,19.141
	c-2.168,3.164-5.328,7.793,1.535,8.828c6.45,0.969,5.411-0.828,12.625-6.387l16.23-16.777c5.009-5.402,10.384-10.522,15.724-15.672
	l3.492,1.504c4.176,1.422,7.972,2.934,12.051,4.609c4.16,1.297,8.315,2.59,12.472,3.879c8.646,2.071,21.496,6,29.848,9.289
	c0.953,0.352,1.587,0.61,2.099,0.821c4.433,1.808,5.945-2.075,8.746-5.633c1.004-1.281,1.554-1.977,1.812-2.934
	c0.906-3.375-0.336-10.894-5.156-12.207c-0.73-0.195-1.637-0.445-2.594-0.746l-9.14-3.289v-0.004l-26.622-9.43l-0.082-0.027
	l-9.941-3.246l6.363-6.922c8.598-9.488,4.754-5.875,9.067-6.355c3.597-0.403,4.101-3.707,3.718-6.953
	c-0.339-2.918-0.48-1.536-1.867-3.653c-1.461-2.242-1.761-5.824-4.074-6.879c-0.797-0.363-8.272-0.543-9.883-0.465
	c-2.315,0.434-3.832,0.915-4.179,3.711c-0.086,0.696,0.039,1.235,0.035,1.903c-0.021,2.164,0.179,1.59-0.927,2.91
	c-5.418,5.578-10.941,11.191-16.495,16.797c-8.478-2.762-22.926-5.664-30.235-10.535l2.457-3.137
	c2.293-2.934,1.586-1.742,1.938-5.895c1.297-15.304,2.055-12.078-13.168-19.195c-0.105-0.051-0.211-0.101-0.313-0.148
	c-0.113,0.019-0.226,0.039-0.335,0.054c-14.813,2.469-21.067,4.032-26.301,8.285c-7.168,5.829-12.321,18.758-15.114,28.028
	c-1.113,3.707-2.652,7.793-2.945,11.57c-0.781,10.133,1.637,11.567,12.36,14.563c2.531,0.707,5.023,1.089,7.445,1.281
	c5.151,0.41,6.203,0.082,8.918-3.387l9.445-12.066c4.176,2.121,6.902,2.793,12.027,3.929c5.981,1.086,10.633,2.36,16.458,4.094
	l-6.493,6.508C248.988,68.363,248.289,68.972,244.926,74.23L244.926,74.23z M220.32,39.996c-0.137,0.145-0.254,0.273-0.344,0.379
	c-0.992,1.144-1.479,2.144-2.222,3.219c-4.039-3.164-12.332-6.086-14.578-6.228c-3.688-0.234-1.5-1.613-0.247-4.754
	c4.457-11.168,7.082-16.637,11.489-20.219c4.754-3.859,9.441-5.625,23.644-7.992c2.688,1.254,3.914,1.828,6.598,3.082
	c0.93,0.52,1.086,0.828,1.652,1.473c-2.414,1.551-3.179,3.269-5.022,5.875c-0.778,1.098-0.528,0.789,0.226,2.023
	c0.696,1.133,1.942,3.297,1.922,6.785c-0.019,3.454-0.39,0.321-1.543,1.11c0.021-3.172-0.242-5.813-3.647-6.742
	c0.879,3.863,2.418,3.906,0.444,7.504c-1.379-2.133,0.067-1.661-3.613-5.942c-0.016,3.047,0.5,4.383,0.48,7.902l-1.226-1.929
	c-1.028-1.863-1.653-3.18-3.478-4.418c0.196,2.504,1.478,3.781,0.492,5.797c-1.976-1.34-1.445-2.203-3.664-3.707
	c0.039,2.32,0.512,2.465,0.496,5.269c-2.808-0.765-1.914-2.422-4.722-3.187c0.156,2.031,0.519,1.703,0.504,4.218
	c-2.535-0.227-1.813-0.867-3.676-2.128c0.195,2.522,2.582,6.429-0.789,5.507C220.554,35.14,220.633,37.375,220.32,39.996
	L220.32,39.996z M246.129,25.695c0.16-0.937,0.504-0.586,0.515-2.375c0.016-2.312-0.515-4.473-1.433-6.457l-0.262-0.066
	c-1.836-0.461-1.465-0.336-0.297-2.203c0.301-0.481,0.625-0.938,1.024-1.329c0.964-0.953,1.582-1.636,2.746-2.395
	c1.023,2.539,0.621,5.789,0.183,9.734c-0.332,3,0.435,1.371-1.433,3.754L246.129,25.695z M219.972,55.984
	c3.082-4.199,9.059-11.871,11.399-12.828l1.144,0.215l-2.918,2.953l-9.957,13.184c-0.144,0.058-0.293,0.113-0.437,0.172
	c0.016-0.043,0.031-0.086,0.043-0.129C220.41,56.121,217.672,59.117,219.972,55.984L219.972,55.984z M233.871,41.41
	c-0.332-0.164-0.629-0.301-0.856-0.367c-6.203-1.789-9.101-3.25-9.078-7.317c0.012-2.078,3.478-4.191,5.817-4.179
	c1.812,0.011,4.789,0.894,6.504,1.425c1.539,0.477,3.914,0.973,6.64,1.489c10.91,4.324,20.758,7.562,31.185,10.73
	c-2.375,2.391-4.755,4.781-7.134,7.168l-2.395-1.008l-0.089-0.035l-12.996-4.191l-0.04-0.012l-0.062-0.016l-12.156-2.722
	l-0.035-0.012l-4.395-0.82L233.871,41.41z M222.304,53.851l0.032-0.023l2.429-2.008L222.304,53.851z M196.57,49.137
	c-0.492,6.386-1.348,5.828,4.238,8.621c1.821,0.91,3.637,1.589,5.43,2.089c2.055,0.575,4.094,0.922,6.086,1.122
	c2.66,0.269,2.93-0.907,3.727-3.266c3.972-11.715,3.105-9.815-7.926-14.094c-1.887-0.73-3.781-1.461-5.758-1.906
	C197.707,40.656,197.129,42.902,196.57,49.137L196.57,49.137z M265.265,52.051l-0.007,0.004L265.265,52.051z M284.297,57.676
	c2.343-2.329,4.647-4.68,6.882-7.086l1.684-1.832c3.547,1.043,7.109,2.097,11.078,3.3c15.396,5.454,20.103,6.965,35.16,13.039
	c3.532,1.122,6.528,2.473,5.09,7.805c-0.137,0.516-0.586,1.086-1.414,2.137c-2.104,2.681-0.574,5.691-3.836,4.359
	c-0.608-0.25-1.354-0.554-2.168-0.855l-25.729-10.348l-25.134-9.844v0.004L284.297,57.676z M299.327,26l3.431-0.168
	c-0.517,2.855-5.278,7.652-7.263,9.816c-1.625,1.778-2.301,3.094-3.93,4.871l-12.59,13.887c-2.953,3.262-5.683,5.754-8.648,9.027
	c-1,1.11-5.819,6.45-11.48,12.684c-9.007,9.922-20.156,22.109-21.453,23.074c-0.425,0.11-0.854,0.223-1.281,0.332
	c-0.363,0.012-0.73,0.02-1.098,0.032c-2.035-0.864-2.351-1.196-1.519-3.254l14.608-20.649c2.649-3.742,4.285-5.566,7.446-8.836
	c7.104-7.355,15.218-16.738,21.19-22.867c4.148-4.258,13.341-12.219,17.375-16.578c1.978-2.141,3.052-2.852,5.556-4.336
	C299.702,24.148,299.629,25.226,299.327,26L299.327,26z M304.429,19.851c-4.468-0.812-4.203,0.004-5-1.722
	c0.477-0.594,5.891-0.301,6.938,0.101c1.691,0.645,5.367,7.391,5.418,7.512c1.181,2.896-1.891,5.543-3.773,1.021
	C305.315,20.297,304.679,24.93,304.429,19.851"/>
<path fill="#1A1A18" d="M9.695,87.273h14.082c3.133,0,5.375,0.168,6.727,0.5c1.765,0.422,3.136,1.242,4.109,2.457
	c0.973,1.219,1.457,2.598,1.457,4.137c0,1.262-0.383,2.551-1.156,3.863c-0.771,1.313-1.922,2.395-3.453,3.246
	c-1.532,0.848-3.883,1.633-7.055,2.348c3.293,0.93,5.578,2.121,6.855,3.574c1.282,1.453,1.922,3.145,1.922,5.071
	c0,1.804-0.632,3.586-1.894,5.347c-1.262,1.758-2.935,3.047-5.017,3.86c-2.086,0.816-5.901,1.222-11.453,1.222H0l0.344-0.972
	c1.433,0,2.464-0.129,3.085-0.395c0.622-0.262,1.122-0.668,1.497-1.219c0.378-0.554,0.82-1.703,1.328-3.457l6.359-21.91
	c0.645-2.223,0.969-3.711,0.969-4.465c0-0.613-0.258-1.121-0.774-1.523c-0.515-0.402-1.64-0.641-3.375-0.711L9.695,87.273z
	 M17.129,104.98l-4.543,15.844c0.875,0.035,1.531,0.051,1.968,0.051c3.907,0,6.622-1.09,8.145-3.27c1.523-2.179,2.285-4.515,2.285-7
	c0-1.191-0.293-2.246-0.879-3.168c-0.586-0.918-1.344-1.558-2.272-1.918C20.902,105.16,19.336,104.98,17.129,104.98L17.129,104.98z
	 M17.761,103.012c2.379-0.036,4.258-0.411,5.633-1.129c1.375-0.719,2.481-1.899,3.313-3.536c0.832-1.636,1.246-3.183,1.246-4.636
	c0-1.364-0.43-2.477-1.285-3.336c-0.86-0.856-2.008-1.27-3.442-1.235l-1.445,0.051L17.761,103.012z M17.761,103.012"/>
<path fill="#1A1A18" d="M47.359,98.547l-3.969,14.761c3.258-7.195,5.711-11.628,7.356-13.293c0.965-0.98,1.979-1.468,3.051-1.468
	c0.734,0,1.328,0.265,1.785,0.8c0.453,0.536,0.683,1.293,0.683,2.273c0,1.695-0.414,3.125-1.234,4.281
	c-0.527,0.735-1.113,1.102-1.762,1.102c-0.699,0-1.226-0.324-1.574-0.973c-0.351-0.644-0.598-1.027-0.738-1.141
	c-0.142-0.113-0.289-0.171-0.446-0.171c-0.175,0-0.359,0.054-0.55,0.156c-0.387,0.211-0.891,0.722-1.512,1.539
	c-0.621,0.812-1.387,2.176-2.301,4.086c-0.91,1.906-1.617,3.523-2.125,4.844c-0.508,1.324-1.219,3.843-2.129,7.554h-6.359
	l4.336-17.418c0.315-1.297,0.473-2.152,0.473-2.574c0-0.473-0.083-0.84-0.25-1.101c-0.165-0.266-0.395-0.458-0.684-0.579
	c-0.289-0.125-0.887-0.183-1.797-0.183l0.234-0.762l7.934-1.734H47.359z M47.359,98.547"/>
<path fill="#1A1A18" d="M53.504,115.015c1.211,0,2.234,0.422,3.074,1.262c0.84,0.844,1.262,1.86,1.262,3.047
	c0,1.191-0.426,2.207-1.274,3.051c-0.851,0.84-1.871,1.258-3.062,1.258c-1.192,0-2.207-0.418-3.047-1.258
	c-0.84-0.844-1.262-1.86-1.262-3.051c0-1.187,0.422-2.203,1.262-3.047C51.297,115.437,52.312,115.015,53.504,115.015"/>
<path fill-rule="evenodd" clip-rule="evenodd" fill="none" d="M243.789,73.097c-3.449,5.387-8.724,13.52-12.57,19.141
	c-2.168,3.16-5.329,7.793,1.535,8.824c6.449,0.973,5.406-0.824,12.621-6.386l16.233-16.778c5.004-5.402,10.383-10.519,15.719-15.668
	l3.496,1.504c4.172,1.418,7.974,2.93,12.052,4.61c4.155,1.293,8.315,2.586,12.472,3.878c8.641,2.071,21.497,6,29.848,9.29
	c0.953,0.351,1.582,0.608,2.099,0.82c4.429,1.808,5.944-2.074,8.746-5.637c1.004-1.277,1.555-1.976,1.808-2.93
	c0.911-3.375-0.332-10.898-5.152-12.207c-0.729-0.199-1.637-0.445-2.594-0.75l-9.14-3.285v-0.004l-26.621-9.433l-0.082-0.024
	l-9.946-3.246l6.367-6.922c8.598-9.488,4.754-5.875,9.066-6.359c3.599-0.397,4.099-3.707,3.72-6.953
	c-0.34-2.914-0.481-1.531-1.868-3.649c-1.464-2.242-1.765-5.824-4.074-6.878c-0.801-0.364-8.272-0.547-9.887-0.465
	c-2.313,0.433-3.828,0.914-4.175,3.711c-0.086,0.691,0.039,1.234,0.03,1.902c-0.016,2.16,0.185,1.59-0.922,2.91
	c-5.422,5.578-10.94,11.188-16.496,16.793c-8.477-2.758-22.93-5.66-30.233-10.535l2.453-3.133c2.297-2.933,1.59-1.746,1.94-5.894
	c1.297-15.31,2.056-12.079-13.168-19.2c-0.104-0.047-0.211-0.097-0.315-0.144c-0.11,0.019-0.223,0.035-0.336,0.055
	c-14.81,2.468-21.063,4.031-26.301,8.285c-7.168,5.828-12.316,18.757-15.109,28.027c-1.118,3.707-2.653,7.793-2.946,11.566
	c-0.781,10.137,1.637,11.571,12.36,14.567c2.531,0.707,5.022,1.086,7.441,1.281c5.152,0.41,6.207,0.082,8.922-3.387l9.445-12.066
	c4.172,2.121,6.903,2.789,12.028,3.93c5.976,1.086,10.632,2.359,16.457,4.089l-6.496,6.508
	C247.851,67.23,247.152,67.84,243.789,73.097L243.789,73.097z M219.187,38.863c-0.136,0.145-0.254,0.274-0.343,0.375
	c-0.997,1.149-1.481,2.145-2.223,3.219c-4.039-3.16-12.332-6.082-14.578-6.227c-3.688-0.23-1.5-1.609-0.246-4.75
	c4.457-11.168,7.078-16.636,11.488-20.218c4.754-3.864,9.441-5.625,23.644-7.993c2.688,1.254,3.915,1.828,6.598,3.082
	c0.926,0.52,1.086,0.829,1.652,1.473c-2.418,1.551-3.183,3.266-5.023,5.875c-0.781,1.098-0.527,0.785,0.227,2.023
	c0.691,1.133,1.941,3.297,1.921,6.786c-0.019,3.449-0.39,0.32-1.543,1.109c0.02-3.172-0.246-5.816-3.648-6.746
	c0.879,3.863,2.418,3.906,0.445,7.508c-1.379-2.137,0.067-1.66-3.613-5.946c-0.019,3.051,0.5,4.387,0.481,7.907l-1.227-1.93
	c-1.027-1.863-1.652-3.184-3.477-4.418c0.196,2.504,1.473,3.777,0.493,5.797c-1.977-1.34-1.446-2.203-3.668-3.707
	c0.039,2.32,0.515,2.465,0.5,5.269c-2.809-0.765-1.918-2.421-4.723-3.187c0.156,2.031,0.516,1.699,0.5,4.215
	c-2.535-0.227-1.809-0.864-3.672-2.125c0.195,2.523,2.582,6.429-0.793,5.508C219.422,34.008,219.5,36.242,219.187,38.863
	L219.187,38.863z M244.996,24.558c0.16-0.933,0.504-0.586,0.515-2.371c0.012-2.312-0.515-4.472-1.433-6.457l-0.266-0.066
	c-1.836-0.461-1.465-0.336-0.297-2.203c0.301-0.485,0.629-0.942,1.024-1.328c0.969-0.953,1.586-1.637,2.75-2.399
	c1.022,2.543,0.621,5.793,0.183,9.735c-0.336,3.003,0.434,1.375-1.433,3.757L244.996,24.558z M218.84,54.847
	c3.082-4.199,9.058-11.867,11.398-12.824l1.145,0.215l-2.918,2.953l-9.957,13.184c-0.145,0.058-0.293,0.113-0.438,0.168
	c0.016-0.039,0.027-0.086,0.043-0.125C219.277,54.988,216.539,57.984,218.84,54.847L218.84,54.847z M232.738,40.277
	c-0.336-0.164-0.633-0.305-0.855-0.367c-6.204-1.789-9.106-3.25-9.082-7.316c0.011-2.079,3.476-4.192,5.82-4.18
	c1.812,0.008,4.789,0.891,6.504,1.426c1.535,0.476,3.914,0.968,6.64,1.488c10.911,4.324,20.758,7.56,31.184,10.73
	c-2.375,2.391-4.758,4.782-7.137,7.168l-2.39-1.007l-0.095-0.036l-12.995-4.191l-0.035-0.016l-0.063-0.011l-12.16-2.727
	l-0.031-0.008l-4.396-0.82L232.738,40.277z M221.172,52.719l0.031-0.024l2.43-2.008L221.172,52.719z M195.437,48
	c-0.496,6.39-1.347,5.832,4.239,8.625c1.82,0.91,3.636,1.586,5.429,2.09c2.055,0.574,4.094,0.922,6.082,1.121
	c2.664,0.269,2.93-0.91,3.731-3.266c3.972-11.715,3.104-9.82-7.93-14.098c-1.883-0.73-3.781-1.46-5.758-1.902
	C196.574,39.523,195.996,41.769,195.437,48L195.437,48z M264.129,50.914l-0.004,0.008L264.129,50.914z M283.164,56.539
	c2.344-2.324,4.647-4.676,6.879-7.086l1.687-1.828c3.543,1.043,7.11,2.097,11.078,3.301c15.391,5.453,20.098,6.964,35.157,13.039
	c3.53,1.121,6.53,2.468,5.093,7.804c-0.136,0.512-0.586,1.086-1.414,2.137c-2.104,2.68-0.574,5.691-3.836,4.359
	c-0.609-0.25-1.355-0.554-2.168-0.855l-25.734-10.348l-25.133-9.843L283.164,56.539z M298.19,24.867l3.435-0.168
	c-0.517,2.852-5.281,7.652-7.263,9.813c-1.629,1.777-2.301,3.097-3.93,4.875l-12.589,13.886c-2.954,3.258-5.685,5.754-8.649,9.028
	c-1.004,1.105-5.819,6.449-11.479,12.683c-9.012,9.922-20.157,22.106-21.457,23.074c-0.426,0.11-0.852,0.223-1.278,0.332
	c-0.363,0.008-0.729,0.02-1.097,0.032c-2.036-0.864-2.352-1.196-1.524-3.258l14.61-20.645c2.652-3.742,4.289-5.57,7.449-8.836
	c7.104-7.355,15.215-16.738,21.19-22.867c4.149-4.258,13.34-12.222,17.371-16.582c1.981-2.137,3.055-2.847,5.56-4.332
	C298.569,23.015,298.495,24.09,298.19,24.867L298.19,24.867z M303.297,18.715c-4.474-0.809-4.203,0.007-5-1.719
	c0.472-0.598,5.89-0.301,6.937,0.099c1.692,0.647,5.363,7.39,5.414,7.515c1.18,2.891-1.887,5.539-3.772,1.02
	C304.183,19.164,303.547,23.797,303.297,18.715"/>
<path fill="#1A1A18" d="M81.104,141.574h41.735l9.254-31.891c1.234-4.375,1.851-7.711,1.851-10.011c0-2.242-0.758-3.953-2.273-5.133
	c-1.512-1.18-5.161-1.965-10.938-2.355l0.926-3.113h56.711l-0.926,3.113c-5.551,0-9.758,1.176-12.621,3.536
	c-2.859,2.355-5.301,7.011-7.32,13.964l-21.203,73.036c-1.403,4.769-2.102,8.191-2.102,10.266c0,2.074,0.754,3.648,2.27,4.711
	c1.964,1.461,5.523,2.246,10.687,2.355l-0.844,3.113H90.695l1.262-3.113c5.387,0,9.354-1.051,11.906-3.152
	c2.555-2.105,4.895-6.833,7.027-14.18l9.844-33.993H79.168l-9.758,33.993c-1.406,4.656-2.106,8.105-2.106,10.352
	c0,2.016,0.856,3.656,2.567,4.922c1.711,1.262,5.09,1.949,10.14,2.059l-0.843,3.113h-54.86l0.926-3.113
	c5.383,0,9.324-1.051,11.82-3.152c2.497-2.105,4.809-6.833,6.942-14.18l21.207-73.036c1.23-4.207,1.848-7.515,1.848-9.929
	c0-2.297-0.743-4.035-2.227-5.215c-1.488-1.18-5.035-1.965-10.645-2.355l0.926-3.113h55.785l-1.261,3.113
	c-5.164,0-9.059,1.11-11.696,3.325c-2.636,2.214-5.05,6.941-7.238,14.175L81.104,141.574z M81.104,141.574"/>
<path fill="#1A1A18" d="M161.906,160.14c-0.277,1.325-0.414,2.415-0.414,3.27c0,1.531,0.664,2.754,1.996,3.668
	c1.328,0.918,3.109,1.379,5.34,1.379c2.141,0,4.289-0.348,6.445-1.039c2.153-0.696,4.653-1.906,7.496-3.641l1.375,0.828
	c-3.515,2.832-6.937,4.848-10.269,6.051s-7.016,1.805-11.051,1.805c-5.109,0-8.641-0.817-10.594-2.446
	c-1.957-1.632-2.937-3.515-2.937-5.656c0-3.344,1.461-6.683,4.379-10.027c2.922-3.344,6.894-6.024,11.925-8.039
	c5.028-2.02,10.079-3.028,15.157-3.028c2.566,0,4.507,0.407,5.82,1.223c1.316,0.817,1.973,1.844,1.973,3.086
	c0,1.488-0.641,2.938-1.926,4.344c-1.774,1.914-4.004,3.457-6.695,4.629c-2.692,1.172-5.7,2.066-9.032,2.675
	C168.66,159.633,165.664,159.937,161.906,160.14L161.906,160.14z M162.315,158.551c2.692-0.266,4.778-0.625,6.262-1.086
	c1.48-0.457,2.933-1.192,4.355-2.2c1.422-1.011,2.653-2.285,3.692-3.824s1.558-2.98,1.558-4.324c0-0.57-0.238-1.02-0.711-1.344
	c-0.472-0.328-1.078-0.492-1.808-0.492c-1.469,0-3.121,0.684-4.953,2.051C167.347,149.816,164.551,153.558,162.315,158.551"/>
<path fill="#1A1A18" d="M209.397,143.265l-5.687,13.114c3.82-3.832,6.679-6.449,8.574-7.856c2.781-2.039,5.184-3.426,7.199-4.156
	c2.021-0.734,3.914-1.102,5.688-1.102c1.589,0,2.949,0.391,4.082,1.176c1.129,0.785,1.695,1.809,1.695,3.074
	c0,1.141-0.367,2.528-1.102,4.157l-5.867,13.054c-0.492,1.141-0.733,1.883-0.733,2.231c0,0.203,0.113,0.387,0.344,0.551
	c0.23,0.164,0.464,0.246,0.711,0.246c0.304,0,0.625-0.082,0.96-0.246c1.071-0.59,2.157-1.426,3.258-2.508
	c0.274-0.285,0.719-0.711,1.328-1.281l1.743,0.703c-4.493,5.031-9.215,7.55-14.168,7.55c-1.895,0-3.379-0.328-4.45-0.98
	c-1.07-0.652-1.605-1.469-1.605-2.445c0-0.856,0.367-2.129,1.102-3.821l5.73-13.054c0.398-0.856,0.598-1.489,0.598-1.895
	c0-0.226-0.137-0.422-0.411-0.597c-0.277-0.172-0.597-0.258-0.964-0.258c-1.164,0-2.567,0.527-4.219,1.59
	c-4.219,2.687-8.301,6.695-12.242,12.011l-3.762,9.082h-11.695l8.578-19.629c0.824-1.933,1.238-3.308,1.238-4.125
	c0-0.347-0.125-0.636-0.367-0.871c-0.246-0.234-0.645-0.418-1.195-0.55c-0.547-0.133-1.59-0.2-3.118-0.2l0.504-1.16l15.457-1.805
	H209.397z M209.397,143.265"/>
<path fill="#1A1A18" d="M254.09,143.265l-6.926,17.18c5.687-8.375,9.969-13.531,12.84-15.469c1.683-1.14,3.453-1.711,5.319-1.711
	c1.285,0,2.324,0.309,3.117,0.934c0.797,0.621,1.192,1.5,1.192,2.641c0,1.98-0.715,3.64-2.153,4.984
	c-0.918,0.856-1.94,1.285-3.074,1.285c-1.223,0-2.141-0.379-2.75-1.133c-0.612-0.754-1.039-1.195-1.284-1.328
	c-0.246-0.133-0.505-0.199-0.777-0.199c-0.31,0-0.629,0.063-0.965,0.184c-0.672,0.246-1.551,0.839-2.637,1.789
	c-1.086,0.945-2.422,2.531-4.012,4.754c-1.59,2.222-2.828,4.101-3.715,5.64c-0.886,1.539-2.125,4.469-3.714,8.789h-11.098
	l7.566-20.269c0.551-1.508,0.825-2.508,0.825-2.996c0-0.551-0.145-0.977-0.434-1.285c-0.293-0.305-0.688-0.528-1.191-0.672
	c-0.504-0.141-1.555-0.215-3.145-0.215l0.414-0.887l13.848-2.016H254.09z M254.09,143.265"/>
<path fill="#1A1A18" d="M287.636,143.265L278.237,165c-0.519,1.246-0.78,2.058-0.78,2.445c0,0.227,0.137,0.434,0.413,0.629
	c0.273,0.191,0.566,0.289,0.871,0.289c0.52,0,1.039-0.152,1.56-0.457c1.375-0.754,3.026-2.121,4.953-4.098l1.558,0.614
	c-4.617,5.359-9.522,8.039-14.718,8.039c-1.989,0-3.571-0.371-4.747-1.117c-1.179-0.743-1.765-1.688-1.765-2.829
	c0-0.753,0.258-1.71,0.776-2.871l6.375-14.613c0.613-1.406,0.918-2.469,0.918-3.18c0-0.449-0.293-0.847-0.871-1.191
	c-0.582-0.348-1.375-0.522-2.387-0.522c-0.457,0-1.008,0.011-1.648,0.031l0.595-1.223l15.546-1.68H287.636z M284.793,129.203
	c1.897,0,3.496,0.438,4.793,1.313c1.3,0.879,1.948,1.938,1.948,3.18s-0.655,2.305-1.973,3.18c-1.312,0.879-2.902,1.316-4.769,1.316
	c-1.832,0-3.407-0.437-4.724-1.316c-1.312-0.875-1.969-1.938-1.969-3.18s0.649-2.301,1.95-3.18
	C281.347,129.64,282.929,129.203,284.793,129.203"/>
<path fill="#1A1A18" d="M315.776,129.203l-12.655,28.918l10.504-6.48l3.483-2.078c1.008-0.691,1.711-1.285,2.11-1.773
	c0.242-0.305,0.367-0.59,0.367-0.856c0-0.429-0.31-0.785-0.918-1.07c-0.614-0.285-2.095-0.476-4.449-0.582l0.503-1.16h18.664
	l-0.457,1.16c-2.203,0.348-3.992,0.746-5.367,1.195c-1.07,0.344-2.383,0.914-3.941,1.711c-2.323,1.203-3.991,2.129-5,2.782
	l-2.016,1.253l2.797,8.438c1.067,3.262,1.863,5.148,2.383,5.656c0.336,0.305,0.734,0.457,1.191,0.457
	c1.071,0,2.34-0.836,3.809-2.508c0.211-0.222,0.505-0.539,0.871-0.945l1.695,0.703c-2.293,2.852-4.875,5.024-7.75,6.512
	c-1.925,1-3.668,1.496-5.226,1.496c-1.56,0-2.86-0.371-3.899-1.113c-1.039-0.746-2.078-2.696-3.117-5.856l-2.293-6.941l-5.043,2.996
	l-4.586,10.488h-11.695l15.224-34.515c0.644-1.469,0.964-2.457,0.964-2.965c0-0.469-0.152-0.852-0.457-1.149
	c-0.308-0.293-0.727-0.511-1.261-0.656c-0.535-0.14-1.599-0.215-3.188-0.215l0.414-1.129l15.59-1.773H315.776z M315.776,129.203"/>
<path fill="#1A1A18" d="M362.491,143.265l-2.02,9.446h-1.695c-0.246-2.446-1.371-4.371-3.371-5.778
	c-2.004-1.406-4.147-2.109-6.44-2.109c-1.411,0-2.571,0.273-3.489,0.824c-0.914,0.551-1.375,1.215-1.375,1.989
	c0,0.652,0.2,1.265,0.598,1.835c0.396,0.571,1.285,1.344,2.66,2.321c4.828,3.465,7.762,5.851,8.806,7.156
	c1.038,1.305,1.558,2.699,1.558,4.188c0,1.608-0.613,3.132-1.836,4.57c-1.222,1.437-3.046,2.59-5.48,3.453
	c-2.43,0.867-4.961,1.301-7.59,1.301c-1.772,0-3.957-0.235-6.555-0.703c-1.714-0.328-2.996-0.489-3.852-0.489
	c-0.766,0-1.362,0.075-1.789,0.227c-0.43,0.156-0.901,0.477-1.422,0.965H327.5l2.25-10.18h1.465
	c1.069,2.465,2.069,4.223,3.004,5.274c0.933,1.05,2.179,1.882,3.738,2.507c1.558,0.621,3.054,0.93,4.495,0.93
	c1.681,0,3.07-0.352,4.173-1.055c1.097-0.703,1.647-1.543,1.647-2.519c0-0.961-0.358-1.887-1.078-2.785
	c-0.715-0.895-2.375-2.293-4.973-4.188c-3.578-2.586-5.933-4.586-7.063-5.992c-0.797-1.02-1.19-2.18-1.19-3.484
	c0-2.2,1.199-4.036,3.597-5.504c2.399-1.465,5.771-2.2,10.113-2.2c1.895,0,4.219,0.223,6.969,0.672
	c1.375,0.223,2.478,0.336,3.305,0.336c1.191,0,2.152-0.336,2.888-1.008H362.491z M362.491,143.265"/>
<path fill="#1A1A18" d="M394.344,143.265l-2.021,9.446h-1.694c-0.246-2.446-1.368-4.371-3.371-5.778
	c-2.004-1.406-4.149-2.109-6.442-2.109c-1.406,0-2.57,0.273-3.488,0.824c-0.913,0.551-1.375,1.215-1.375,1.989
	c0,0.652,0.199,1.265,0.599,1.835c0.394,0.571,1.285,1.344,2.66,2.321c4.828,3.465,7.765,5.851,8.804,7.156
	c1.039,1.305,1.559,2.699,1.559,4.188c0,1.608-0.612,3.132-1.836,4.57c-1.223,1.437-3.047,2.59-5.479,3.453
	c-2.431,0.867-4.957,1.301-7.586,1.301c-1.774,0-3.961-0.235-6.56-0.703c-1.715-0.328-2.996-0.489-3.852-0.489
	c-0.765,0-1.363,0.075-1.789,0.227c-0.429,0.156-0.902,0.477-1.421,0.965h-1.7l2.25-10.18h1.465c1.07,2.465,2.074,4.223,3.004,5.274
	c0.935,1.05,2.181,1.882,3.738,2.507c1.559,0.621,3.059,0.93,4.496,0.93c1.68,0,3.071-0.352,4.172-1.055
	c1.102-0.703,1.649-1.543,1.649-2.519c0-0.961-0.36-1.887-1.074-2.785c-0.719-0.895-2.379-2.293-4.978-4.188
	c-3.578-2.586-5.934-4.586-7.063-5.992c-0.796-1.02-1.191-2.18-1.191-3.484c0-2.2,1.199-4.036,3.599-5.504
	c2.401-1.465,5.772-2.2,10.112-2.2c1.896,0,4.22,0.223,6.97,0.672c1.375,0.223,2.476,0.336,3.304,0.336
	c1.191,0,2.153-0.336,2.887-1.008H394.344z M394.344,143.265"/>
<path fill="#1A1A18" d="M422.112,143.265c2.414,0,4.685,0.372,6.813,1.114c2.121,0.746,3.726,1.781,4.812,3.105
	s1.629,2.793,1.629,4.403c0,3.3-1.383,6.601-4.147,9.906c-2.771,3.301-6.415,5.902-10.938,7.808
	c-4.526,1.907-9.082,2.86-13.668,2.86c-4.155,0-7.375-0.824-9.651-2.477c-2.278-1.652-3.414-3.668-3.414-6.054
	c0-2.833,0.847-5.489,2.543-7.961c1.694-2.477,3.851-4.637,6.464-6.485c2.614-1.844,5.618-3.34,9.012-4.492
	C414.961,143.84,418.476,143.265,422.112,143.265L422.112,143.265z M420.233,144.887c-1.621,0-2.965,0.315-4.035,0.945
	c-2.141,1.285-4.555,4.285-7.246,9.004s-4.034,8.972-4.034,12.761c0,0.938,0.426,1.715,1.284,2.325
	c0.855,0.613,1.863,0.918,3.023,0.918c1.196,0,2.25-0.243,3.164-0.735c1.348-0.734,2.996-2.379,4.954-4.937
	c1.957-2.555,3.562-5.379,4.815-8.469c1.255-3.086,1.88-5.914,1.88-8.48c0-1.063-0.384-1.883-1.146-2.461
	C422.129,145.176,421.241,144.887,420.233,144.887"/>
<path fill="#1A1A18" d="M458.69,143.265l-5.687,13.114c3.823-3.832,6.679-6.449,8.578-7.856c2.78-2.039,5.179-3.426,7.198-4.156
	c2.017-0.734,3.914-1.102,5.688-1.102c1.585,0,2.949,0.391,4.078,1.176c1.132,0.785,1.699,1.809,1.699,3.074
	c0,1.141-0.367,2.528-1.103,4.157l-5.871,13.054c-0.488,1.141-0.729,1.883-0.729,2.231c0,0.203,0.112,0.387,0.34,0.551
	c0.229,0.164,0.468,0.246,0.714,0.246c0.305,0,0.625-0.082,0.961-0.246c1.071-0.59,2.157-1.426,3.258-2.508
	c0.274-0.285,0.715-0.711,1.328-1.281l1.742,0.703c-4.492,5.031-9.218,7.55-14.167,7.55c-1.899,0-3.379-0.328-4.45-0.98
	c-1.07-0.652-1.604-1.469-1.604-2.445c0-0.856,0.366-2.129,1.101-3.821l5.731-13.054c0.397-0.856,0.598-1.489,0.598-1.895
	c0-0.226-0.137-0.422-0.415-0.597c-0.273-0.172-0.597-0.258-0.96-0.258c-1.165,0-2.571,0.527-4.224,1.59
	c-4.219,2.687-8.297,6.695-12.241,12.011l-3.763,9.082h-11.69l8.574-19.629c0.823-1.933,1.237-3.308,1.237-4.125
	c0-0.347-0.121-0.636-0.367-0.871c-0.241-0.234-0.641-0.418-1.191-0.55c-0.55-0.133-1.589-0.2-3.117-0.2l0.504-1.16l15.453-1.805
	H458.69z M458.69,143.265"/>
<path fill="#1A1A18" d="M516.086,143.265l-2.017,9.446h-1.698c-0.242-2.446-1.367-4.371-3.371-5.778
	c-2-1.406-4.149-2.109-6.442-2.109c-1.406,0-2.566,0.273-3.484,0.824s-1.375,1.215-1.375,1.989c0,0.652,0.195,1.265,0.595,1.835
	c0.397,0.571,1.284,1.344,2.659,2.321c4.832,3.465,7.767,5.851,8.806,7.156c1.039,1.305,1.558,2.699,1.558,4.188
	c0,1.608-0.608,3.132-1.832,4.57c-1.223,1.437-3.051,2.59-5.479,3.453c-2.431,0.867-4.961,1.301-7.591,1.301
	c-1.773,0-3.961-0.235-6.559-0.703c-1.711-0.328-2.996-0.489-3.851-0.489c-0.767,0-1.36,0.075-1.789,0.227
	c-0.426,0.156-0.903,0.477-1.422,0.965h-1.696l2.247-10.18h1.468c1.071,2.465,2.071,4.223,3.004,5.274
	c0.931,1.05,2.181,1.882,3.738,2.507c1.559,0.621,3.055,0.93,4.493,0.93c1.679,0,3.073-0.352,4.172-1.055
	c1.101-0.703,1.652-1.543,1.652-2.519c0-0.961-0.36-1.887-1.078-2.785c-0.72-0.895-2.379-2.293-4.978-4.188
	c-3.574-2.586-5.93-4.586-7.062-5.992c-0.793-1.02-1.192-2.18-1.192-3.484c0-2.2,1.199-4.036,3.602-5.504
	c2.398-1.465,5.77-2.2,10.109-2.2c1.896,0,4.219,0.223,6.974,0.672c1.374,0.223,2.476,0.336,3.301,0.336
	c1.19,0,2.155-0.336,2.89-1.008H516.086z M516.086,143.265"/>
<line fill="none" stroke="#1A1A18" stroke-width="2.6629" stroke-miterlimit="4" x1="149.945" y1="179.746" x2="504.086" y2="179.746"/>
<path fill="#1A1A18" d="M173.019,187.898c-0.656-0.191-1.397-0.336-2.226-0.429c-0.828-0.098-1.657-0.145-2.485-0.145
	c-1.199,0-2.347,0.086-3.449,0.266c-1.101,0.175-2.074,0.453-2.926,0.828c-0.847,0.375-1.523,0.847-2.027,1.414
	c-0.5,0.566-0.75,1.234-0.75,2c0,0.59,0.199,1.094,0.605,1.512c0.403,0.422,0.903,0.785,1.504,1.094
	c0.598,0.309,1.246,0.59,1.946,0.84c0.695,0.25,1.343,0.504,1.945,0.762c0.598,0.258,1.098,0.539,1.504,0.84
	c0.402,0.305,0.605,0.668,0.605,1.094c0,0.457-0.144,0.859-0.425,1.207c-0.286,0.344-0.672,0.637-1.161,0.871
	c-0.492,0.234-1.054,0.418-1.687,0.543c-0.629,0.125-1.297,0.188-1.992,0.188c-1.004,0.016-1.935-0.066-2.797-0.242
	c-0.859-0.18-1.539-0.371-2.043-0.578l-0.914,1.926c0.871,0.234,1.769,0.398,2.694,0.496c0.926,0.094,1.883,0.145,2.863,0.145
	c1.352,0,2.586-0.117,3.711-0.344c1.121-0.227,2.086-0.551,2.891-0.973c0.809-0.418,1.434-0.926,1.883-1.512
	c0.444-0.59,0.668-1.254,0.668-1.992c0-0.645-0.199-1.195-0.606-1.645c-0.402-0.449-0.91-0.84-1.519-1.172
	c-0.61-0.332-1.262-0.621-1.961-0.871c-0.699-0.25-1.353-0.496-1.961-0.742c-0.609-0.242-1.117-0.496-1.52-0.762
	c-0.406-0.266-0.605-0.59-0.605-0.973c0-0.426,0.168-0.797,0.504-1.113c0.34-0.321,0.765-0.579,1.276-0.786
	c0.512-0.207,1.074-0.359,1.685-0.453c0.609-0.097,1.187-0.144,1.734-0.144c0.695,0,1.434,0.062,2.207,0.187
	c0.774,0.125,1.422,0.285,1.945,0.477L173.019,187.898z M205.375,187.543h-16.642l-0.59,1.945h6.571l-4.055,12.793h3.531
	l4.024-12.793h6.539L205.375,187.543z M234.168,187.543h-12.36l-4.644,14.738h12.687l0.555-1.742h-9.187l1.57-4.93h8.371
	l0.586-1.723h-8.434l1.438-4.598h8.859L234.168,187.543z M270.086,187.543h-3.203l-3.892,12.664l-5.43-12.664h-4.968l-4.641,14.738
	h3.172l3.953-12.637l5.363,12.637h4.969L270.086,187.543z M305.844,187.543h-3.532l-1.929,6.188h-9.614l1.93-6.188h-3.496
	l-4.645,14.738h3.5l2.09-6.605h9.613l-2.093,6.605h3.53L305.844,187.543z M341.534,187.543h-3.53l-2.942,9.395
	c-0.176,0.543-0.426,1.043-0.754,1.5s-0.73,0.852-1.211,1.184c-0.477,0.332-1.046,0.594-1.699,0.785
	c-0.652,0.191-1.394,0.285-2.222,0.285c-0.762,0-1.418-0.059-1.961-0.176c-0.547-0.117-0.989-0.285-1.325-0.496
	c-0.339-0.215-0.589-0.469-0.754-0.762c-0.164-0.297-0.242-0.613-0.242-0.953c0-0.219,0.021-0.445,0.063-0.672
	c0.043-0.23,0.097-0.453,0.163-0.676l2.977-9.414h-3.5l-3.007,9.438c-0.086,0.277-0.142,0.547-0.164,0.805
	c-0.021,0.258-0.032,0.512-0.032,0.762c0,0.711,0.2,1.316,0.606,1.824c0.401,0.508,0.937,0.922,1.601,1.238s1.426,0.547,2.289,0.695
	c0.86,0.148,1.75,0.223,2.664,0.223c2.637,0,4.813-0.438,6.523-1.305c1.712-0.871,2.884-2.305,3.517-4.309L341.534,187.543z
	 M376.539,188.031c-0.828-0.25-1.778-0.43-2.845-0.543c-1.069-0.109-2.137-0.164-3.203-0.164c-1.875,0-3.651,0.199-5.332,0.598
	c-1.676,0.394-3.148,0.98-4.414,1.754c-1.262,0.773-2.273,1.73-3.023,2.875c-0.75,1.141-1.128,2.449-1.128,3.922
	c0,0.793,0.195,1.555,0.589,2.285c0.391,0.73,0.981,1.375,1.766,1.934c0.785,0.559,1.754,1.008,2.91,1.336
	c1.156,0.332,2.496,0.5,4.021,0.5c1.241,0,2.479-0.07,3.711-0.211c1.233-0.141,2.468-0.363,3.711-0.676l2.257-7.203h-7.063
	l-0.555,1.68h3.892l-1.31,4.156c-0.676,0.16-1.354,0.277-2.043,0.352c-0.687,0.074-1.359,0.109-2.011,0.109
	c-1.047,0-1.958-0.117-2.731-0.352c-0.772-0.234-1.422-0.555-1.944-0.961c-0.524-0.406-0.914-0.879-1.177-1.414
	c-0.262-0.539-0.395-1.102-0.395-1.691c0-1.059,0.247-2.027,0.739-2.906c0.487-0.875,1.179-1.633,2.073-2.273
	c0.895-0.642,1.974-1.142,3.238-1.493c1.262-0.355,2.668-0.531,4.219-0.531c0.914,0,1.824,0.055,2.73,0.164
	c0.903,0.113,1.727,0.32,2.465,0.633L376.539,188.031z M411.937,188.031c-0.828-0.25-1.777-0.43-2.847-0.543
	c-1.067-0.109-2.133-0.164-3.204-0.164c-1.875,0-3.652,0.199-5.328,0.598c-1.679,0.394-3.152,0.98-4.414,1.754
	c-1.265,0.773-2.272,1.73-3.022,2.875c-0.755,1.141-1.13,2.449-1.13,3.922c0,0.793,0.195,1.555,0.586,2.285
	c0.395,0.73,0.984,1.375,1.77,1.934c0.782,0.559,1.754,1.008,2.907,1.336c1.155,0.332,2.496,0.5,4.022,0.5
	c1.242,0,2.481-0.07,3.711-0.211c1.231-0.141,2.47-0.363,3.711-0.676l2.254-7.203h-7.059l-0.558,1.68h3.89l-1.304,4.156
	c-0.677,0.16-1.36,0.277-2.047,0.352c-0.685,0.074-1.356,0.109-2.009,0.109c-1.047,0-1.957-0.117-2.73-0.352
	s-1.421-0.555-1.945-0.961c-0.522-0.406-0.918-0.879-1.18-1.414c-0.261-0.539-0.391-1.102-0.391-1.691
	c0-1.059,0.246-2.027,0.734-2.906c0.492-0.875,1.185-1.633,2.078-2.273c0.891-0.642,1.973-1.142,3.235-1.493
	c1.265-0.355,2.672-0.531,4.218-0.531c0.915,0,1.825,0.055,2.73,0.164c0.906,0.113,1.728,0.32,2.47,0.633L411.937,188.031z
	 M443.539,187.543h-12.36l-4.64,14.738h12.683l0.559-1.742h-9.187l1.565-4.93h8.371l0.591-1.723h-8.438l1.442-4.598h8.858
	L443.539,187.543z M474.948,190.683c0-0.531-0.168-0.992-0.508-1.382c-0.336-0.391-0.785-0.719-1.34-0.985
	c-0.554-0.261-1.187-0.457-1.898-0.582c-0.706-0.129-1.434-0.191-2.172-0.191h-7.062l-4.61,14.738h3.496l2.028-6.516h1.601
	c0.61,0,1.106,0.035,1.488,0.109c0.383,0.074,0.692,0.188,0.934,0.344c0.238,0.152,0.427,0.355,0.556,0.605s0.25,0.547,0.358,0.883
	l1.375,4.574h3.758l-1.862-5.367c-0.177-0.516-0.414-0.945-0.72-1.293c-0.305-0.348-0.87-0.578-1.698-0.695
	c0.651-0.059,1.343-0.176,2.073-0.344s1.406-0.418,2.027-0.75s1.141-0.754,1.555-1.262S474.948,191.433,474.948,190.683
	L474.948,190.683z M471.319,191.101c0,0.633-0.19,1.145-0.574,1.536c-0.379,0.391-0.855,0.691-1.422,0.895
	c-0.565,0.207-1.19,0.348-1.879,0.422c-0.687,0.074-1.324,0.109-1.914,0.109h-2.155l1.469-4.84h2.257
	c1.371,0,2.418,0.165,3.141,0.489C470.961,190.035,471.319,190.5,471.319,191.101L471.319,191.101z M497.789,187.543h-3.531
	l-4.642,14.738h3.531L497.789,187.543z M497.789,187.543"/>
<path fill="none" stroke="#1A1A18" stroke-width="0.8504" stroke-miterlimit="22.9256" d="M173.019,187.898
	c-0.656-0.191-1.397-0.336-2.226-0.429c-0.828-0.098-1.657-0.145-2.485-0.145c-1.199,0-2.347,0.086-3.449,0.266
	c-1.101,0.175-2.074,0.453-2.926,0.828c-0.847,0.375-1.523,0.847-2.027,1.414c-0.5,0.566-0.75,1.234-0.75,2
	c0,0.59,0.199,1.094,0.605,1.512c0.403,0.422,0.903,0.785,1.504,1.094c0.598,0.309,1.246,0.59,1.946,0.84
	c0.695,0.25,1.343,0.504,1.945,0.762c0.598,0.258,1.098,0.539,1.504,0.84c0.402,0.305,0.605,0.668,0.605,1.094
	c0,0.457-0.144,0.859-0.425,1.207c-0.286,0.344-0.672,0.637-1.161,0.871c-0.492,0.234-1.054,0.418-1.687,0.543
	c-0.629,0.125-1.297,0.188-1.992,0.188c-1.004,0.016-1.935-0.066-2.797-0.242c-0.859-0.18-1.539-0.371-2.043-0.578l-0.914,1.926
	c0.871,0.234,1.769,0.398,2.694,0.496c0.926,0.094,1.883,0.145,2.863,0.145c1.352,0,2.586-0.117,3.711-0.344
	c1.121-0.227,2.086-0.551,2.891-0.973c0.809-0.418,1.434-0.926,1.883-1.512c0.444-0.59,0.668-1.254,0.668-1.992
	c0-0.645-0.199-1.195-0.606-1.645c-0.402-0.449-0.91-0.84-1.519-1.172c-0.61-0.332-1.262-0.621-1.961-0.871
	c-0.699-0.25-1.353-0.496-1.961-0.742c-0.609-0.242-1.117-0.496-1.52-0.762c-0.406-0.266-0.605-0.59-0.605-0.973
	c0-0.426,0.168-0.797,0.504-1.113c0.34-0.321,0.765-0.579,1.276-0.786c0.512-0.207,1.074-0.359,1.685-0.453
	c0.609-0.097,1.187-0.144,1.734-0.144c0.695,0,1.434,0.062,2.207,0.187c0.774,0.125,1.422,0.285,1.945,0.477L173.019,187.898z
	 M205.375,187.543h-16.642l-0.59,1.945h6.571l-4.055,12.793h3.531l4.024-12.793h6.539L205.375,187.543z M234.168,187.543h-12.36
	l-4.644,14.738h12.687l0.555-1.742h-9.187l1.57-4.93h8.371l0.586-1.723h-8.434l1.438-4.598h8.859L234.168,187.543z M270.086,187.543
	h-3.203l-3.892,12.664l-5.43-12.664h-4.968l-4.641,14.738h3.172l3.953-12.637l5.363,12.637h4.969L270.086,187.543z M305.844,187.543
	h-3.532l-1.929,6.188h-9.614l1.93-6.188h-3.496l-4.645,14.738h3.5l2.09-6.605h9.613l-2.093,6.605h3.53L305.844,187.543z
	 M341.534,187.543h-3.53l-2.942,9.395c-0.176,0.543-0.426,1.043-0.754,1.5s-0.73,0.852-1.211,1.184
	c-0.477,0.332-1.046,0.594-1.699,0.785c-0.652,0.191-1.394,0.285-2.222,0.285c-0.762,0-1.418-0.059-1.961-0.176
	c-0.547-0.117-0.989-0.285-1.325-0.496c-0.339-0.215-0.589-0.469-0.754-0.762c-0.164-0.297-0.242-0.613-0.242-0.953
	c0-0.219,0.021-0.445,0.063-0.672c0.043-0.23,0.097-0.453,0.163-0.676l2.977-9.414h-3.5l-3.007,9.438
	c-0.086,0.277-0.142,0.547-0.164,0.805c-0.021,0.258-0.032,0.512-0.032,0.762c0,0.711,0.2,1.316,0.606,1.824
	c0.401,0.508,0.937,0.922,1.601,1.238s1.426,0.547,2.289,0.695c0.86,0.148,1.75,0.223,2.664,0.223c2.637,0,4.813-0.438,6.523-1.305
	c1.712-0.871,2.884-2.305,3.517-4.309L341.534,187.543z M376.539,188.031c-0.828-0.25-1.778-0.43-2.845-0.543
	c-1.069-0.109-2.137-0.164-3.203-0.164c-1.875,0-3.651,0.199-5.332,0.598c-1.676,0.394-3.148,0.98-4.414,1.754
	c-1.262,0.773-2.273,1.73-3.023,2.875c-0.75,1.141-1.128,2.449-1.128,3.922c0,0.793,0.195,1.555,0.589,2.285
	c0.391,0.73,0.981,1.375,1.766,1.934c0.785,0.559,1.754,1.008,2.91,1.336c1.156,0.332,2.496,0.5,4.021,0.5
	c1.241,0,2.479-0.07,3.711-0.211c1.233-0.141,2.468-0.363,3.711-0.676l2.257-7.203h-7.063l-0.555,1.68h3.892l-1.31,4.156
	c-0.676,0.16-1.354,0.277-2.043,0.352c-0.687,0.074-1.359,0.109-2.011,0.109c-1.047,0-1.958-0.117-2.731-0.352
	c-0.772-0.234-1.422-0.555-1.944-0.961c-0.524-0.406-0.914-0.879-1.177-1.414c-0.262-0.539-0.395-1.102-0.395-1.691
	c0-1.059,0.247-2.027,0.739-2.906c0.487-0.875,1.179-1.633,2.073-2.273c0.895-0.642,1.974-1.142,3.238-1.493
	c1.262-0.355,2.668-0.531,4.219-0.531c0.914,0,1.824,0.055,2.73,0.164c0.903,0.113,1.727,0.32,2.465,0.633L376.539,188.031z
	 M411.937,188.031c-0.828-0.25-1.777-0.43-2.847-0.543c-1.067-0.109-2.133-0.164-3.204-0.164c-1.875,0-3.652,0.199-5.328,0.598
	c-1.679,0.394-3.152,0.98-4.414,1.754c-1.265,0.773-2.272,1.73-3.022,2.875c-0.755,1.141-1.13,2.449-1.13,3.922
	c0,0.793,0.195,1.555,0.586,2.285c0.395,0.73,0.984,1.375,1.77,1.934c0.782,0.559,1.754,1.008,2.907,1.336
	c1.155,0.332,2.496,0.5,4.022,0.5c1.242,0,2.481-0.07,3.711-0.211c1.231-0.141,2.47-0.363,3.711-0.676l2.254-7.203h-7.059
	l-0.558,1.68h3.89l-1.304,4.156c-0.677,0.16-1.36,0.277-2.047,0.352c-0.685,0.074-1.356,0.109-2.009,0.109
	c-1.047,0-1.957-0.117-2.73-0.352s-1.421-0.555-1.945-0.961c-0.522-0.406-0.918-0.879-1.18-1.414
	c-0.261-0.539-0.391-1.102-0.391-1.691c0-1.059,0.246-2.027,0.734-2.906c0.492-0.875,1.185-1.633,2.078-2.273
	c0.891-0.642,1.973-1.142,3.235-1.493c1.265-0.355,2.672-0.531,4.218-0.531c0.915,0,1.825,0.055,2.73,0.164
	c0.906,0.113,1.728,0.32,2.47,0.633L411.937,188.031z M443.539,187.543h-12.36l-4.64,14.738h12.683l0.559-1.742h-9.187l1.565-4.93
	h8.371l0.591-1.723h-8.438l1.442-4.598h8.858L443.539,187.543z M474.948,190.683c0-0.531-0.168-0.992-0.508-1.382
	c-0.336-0.391-0.785-0.719-1.34-0.985c-0.554-0.261-1.187-0.457-1.898-0.582c-0.706-0.129-1.434-0.191-2.172-0.191h-7.062
	l-4.61,14.738h3.496l2.028-6.516h1.601c0.61,0,1.106,0.035,1.488,0.109c0.383,0.074,0.692,0.188,0.934,0.344
	c0.238,0.152,0.427,0.355,0.556,0.605s0.25,0.547,0.358,0.883l1.375,4.574h3.758l-1.862-5.367c-0.177-0.516-0.414-0.945-0.72-1.293
	c-0.305-0.348-0.87-0.578-1.698-0.695c0.651-0.059,1.343-0.176,2.073-0.344s1.406-0.418,2.027-0.75s1.141-0.754,1.555-1.262
	S474.948,191.433,474.948,190.683L474.948,190.683z M471.319,191.101c0,0.633-0.19,1.145-0.574,1.536
	c-0.379,0.391-0.855,0.691-1.422,0.895c-0.565,0.207-1.19,0.348-1.879,0.422c-0.687,0.074-1.324,0.109-1.914,0.109h-2.155
	l1.469-4.84h2.257c1.371,0,2.418,0.165,3.141,0.489C470.961,190.035,471.319,190.5,471.319,191.101L471.319,191.101z
	 M497.789,187.543h-3.531l-4.642,14.738h3.531L497.789,187.543z M497.789,187.543"/>
<path fill-rule="evenodd" clip-rule="evenodd" fill="#1A1A18" d="M166.289,120.488c14.644-19.715,34.762-35.113,58.104-43.93
	c-1.601,2.438-3.226,4.86-4.867,7.262c-18.539,8.254-34.683,20.922-47.109,36.668H166.289z M166.289,120.488"/>
<path fill-rule="evenodd" clip-rule="evenodd" fill="#1A1A18" d="M348.354,94.844c9.56,7.328,18.067,15.964,25.254,25.644h-6.125
	c-7.069-8.961-15.348-16.922-24.582-23.641c1.164-0.23,2.313-0.574,3.442-1.046C347.077,95.496,347.741,95.18,348.354,94.844"/>
<path fill-rule="evenodd" clip-rule="evenodd" fill="#1A1A18" d="M327.319,20.199c50.32,16.063,91.371,52.836,113.113,100.289
	h-8.726c-20.75-42.957-58.185-76.359-103.896-91.82c0.199-1.867,0.184-3.801-0.043-5.758
	C327.655,21.961,327.511,21.058,327.319,20.199L327.319,20.199z"/>
<path fill-rule="evenodd" clip-rule="evenodd" fill="#1A1A18" d="M177.902,44.945c-15.996,9.656-30.359,21.746-42.574,35.75h-10.305
	c15.271-18.84,34.137-34.648,55.551-46.394C179.472,37.851,178.402,41.207,177.902,44.945L177.902,44.945z"/>
<path fill-rule="evenodd" clip-rule="evenodd" fill="#1A1A18" d="M456.847,211.184"/>
</svg>
