<?xml version="1.0" encoding="utf-8"?>
<!-- Generator: Adobe Illustrator 22.1.0, SVG Export Plug-In . SVG Version: 6.00 Build 0)  -->
<svg version="1.1" id="Layer_1" xmlns="http://www.w3.org/2000/svg" xmlns:xlink="http://www.w3.org/1999/xlink" x="0px" y="0px"
	 viewBox="0 0 135.45 81.47" enable-background="new 0 0 135.45 81.47" xml:space="preserve">
<g id="XMLID_94_">
	<g>
		<g id="XMLID_1_">
			<g>
				<path fill="#FFFFFF" d="M135.33,39.67l0.12,0.15l-2.38,1.84l-0.13-0.18C128.08,35.05,102.11,3,68.3,3
					C32,3,3.56,39.11,2.37,40.65L0,38.81C1.23,37.23,30.55,0,68.3,0C103.53,0,130.32,33.04,135.33,39.67z"/>
				<path fill="#FFDB93" d="M94.63,45.24c0,9.4-4.88,18.06-12.85,22.94L69.75,45.83l22.19-12.31
					C93.71,37.16,94.63,41.18,94.63,45.24z"/>
				<path fill="#18252F" d="M93.14,29.42l0.73,1.31c-0.24-0.44-0.5-0.87-0.76-1.29L93.14,29.42z"/>
				<path fill="#18252F" d="M93.11,29.44l-1.31,0.73c-3.82-6.1-9.89-10.64-17.06-12.47l0.29-1.46
					C82.55,18.12,89.01,22.85,93.11,29.44z"/>
				<path fill="#18252F" d="M91.8,30.17l1.31-0.73c0.26,0.42,0.52,0.85,0.76,1.29l-1.31,0.73C92.32,31.02,92.06,30.59,91.8,30.17z"
					/>
				<path fill="#18252F" d="M91.8,30.17c0.26,0.42,0.52,0.85,0.76,1.29l-1.31,0.73c-0.24-0.44-0.5-0.87-0.76-1.3L91.8,30.17z"/>
				<path fill="#18252F" d="M91.25,32.19l-21.81,12.1l0.38-1.93l20.67-11.47C90.75,31.32,91.01,31.75,91.25,32.19z"/>
				<path fill="#F08576" d="M90.49,30.89L69.82,42.36l4.62-23.18C81.09,20.88,86.82,25.07,90.49,30.89z"/>
				<path fill="#18252F" d="M74.74,17.7c7.17,1.83,13.24,6.37,17.06,12.47l-1.31,0.72c-3.67-5.82-9.4-10.01-16.05-11.71L74.74,17.7z
					"/>
				<path fill="#18252F" d="M93.87,30.73c2.46,4.42,3.76,9.44,3.76,14.51c0,11.01-6.02,21.09-15.72,26.33l-0.72-1.32
					c8.9-4.8,14.94-14.2,14.94-25.01c0-5.01-1.3-9.7-3.57-13.78L93.87,30.73z"/>
				<path fill="#18252F" d="M81.9,71.57L81.09,72c-0.17,0.08-0.34,0.17-0.52,0.25l-0.72-1.32c0.46-0.21,0.9-0.44,1.34-0.68
					l0.72,1.32H81.9z"/>
				<path fill="#18252F" d="M80.48,68.93l0.71,1.32c-0.44,0.24-0.88,0.47-1.34,0.68l-0.71-1.32C79.59,69.4,80.04,69.17,80.48,68.93z
					"/>
				<path fill="#18252F" d="M81.09,72l-0.51,0.28l-0.01-0.03C80.75,72.17,80.92,72.08,81.09,72z"/>
				<path fill="#18252F" d="M68.44,46.57l12.04,22.36c-0.44,0.24-0.89,0.47-1.34,0.68L67.21,47.46L68.44,46.57z"/>
				<path fill="#D4EAE3" d="M67.21,47.46l11.93,22.15c-3.58,1.69-7.41,2.54-11.42,2.54c-8.05,0-15.73-3.68-20.83-9.91L67.21,47.46z"
					/>
				<path fill="#18252F" d="M75.04,16.18l-0.01,0.06c-0.48-0.13-0.98-0.24-1.47-0.34L75.04,16.18z"/>
				<path fill="#18252F" d="M75.03,16.24l-0.29,1.46c-0.48-0.12-0.97-0.23-1.47-0.33l0.29-1.47C74.05,16,74.55,16.11,75.03,16.24z"
					/>
				<path fill="#18252F" d="M74.44,19.18l-4.62,23.18l-1.72,0.96l4.88-24.48C73.47,18.94,73.96,19.05,74.44,19.18z"/>
				<path fill="#18252F" d="M72.98,18.84l0.29-1.47c0.5,0.1,0.99,0.21,1.47,0.33l-0.3,1.48C73.96,19.05,73.47,18.94,72.98,18.84z"/>
				<path fill="#3CB9C1" d="M71.5,18.59l-5.11,25.68l-0.69,0.38l0.08,0.15L45.13,59.81c-2.83-4.37-4.32-9.37-4.32-14.57
					c0-14.84,12.07-26.92,26.91-26.92C68.95,18.32,70.22,18.41,71.5,18.59z"/>
				<polygon fill="#18252F" points="69.82,42.36 69.44,44.29 67.72,45.24 68.1,43.32 				"/>
				<path fill="#18252F" d="M69.19,45.53l0.25-1.24l21.81-12.1l1.31-0.73c2.27,4.08,3.57,8.77,3.57,13.78
					c0,10.81-6.04,20.21-14.94,25.01l-0.71-1.32L68.44,46.57l0.16-0.12l-0.88-1.21L69.19,45.53z M81.78,68.18
					c7.97-4.88,12.85-13.54,12.85-22.94c0-4.06-0.92-8.08-2.69-11.72L69.75,45.83L81.78,68.18z"/>
				<polygon fill="#18252F" points="69.44,44.29 69.19,45.53 67.72,45.24 				"/>
				<polygon fill="#18252F" points="68.6,46.45 68.44,46.57 67.72,45.24 				"/>
				<polygon fill="#18252F" points="68.44,46.57 67.21,47.46 66.5,46.13 67.72,45.24 				"/>
				<polygon fill="#18252F" points="68.1,43.32 67.72,45.24 66.84,44.03 66.36,44.38 66.39,44.27 				"/>
				<polygon fill="#18252F" points="66.84,44.03 67.72,45.24 66.25,44.95 66.36,44.38 				"/>
				<polygon fill="#18252F" points="67.72,45.24 66.5,46.13 65.78,44.8 66.36,44.38 66.25,44.95 				"/>
				<path fill="#18252F" d="M66.5,46.13L45.97,61.05c-0.29-0.41-0.58-0.82-0.84-1.24L65.78,44.8L66.5,46.13z"/>
				<polygon fill="#18252F" points="66.39,44.27 66.36,44.38 65.78,44.8 65.7,44.65 				"/>
				<path fill="#18252F" d="M111.67,63.78C93.38,78.4,77.99,81.47,68.3,81.47c-9.68,0-25.07-3.07-43.36-17.69
					C14.07,55.08,7.39,46.52,7.12,46.16l-0.71-0.92l0.71-0.92c0.27-0.36,6.95-8.92,17.82-17.62C43.23,12.07,58.62,9,68.3,9
					c9.69,0,25.08,3.07,43.37,17.7c10.87,8.7,17.54,17.26,17.82,17.62l0.71,0.92l-0.71,0.92C129.21,46.52,122.54,55.08,111.67,63.78
					z M68.3,12c-29.03,0-53.54,27.79-58.07,33.24c4.53,5.45,29.07,33.23,58.07,33.23c29.04,0,53.55-27.78,58.07-33.23
					C121.84,39.79,97.32,12,68.3,12z"/>
				<path fill="#18252F" d="M46.89,62.24c5.1,6.23,12.78,9.91,20.83,9.91c4.01,0,7.84-0.85,11.42-2.54l0.71,1.32
					c-3.68,1.74-7.78,2.72-12.13,2.72c-9.44,0-17.79-4.63-22.96-11.72l1.21-0.88L66.5,46.13l0.71,1.33L46.89,62.24z"/>
				<path fill="#18252F" d="M45.97,61.05l-1.21,0.88c-0.3-0.41-0.58-0.82-0.85-1.24l1.22-0.88C45.39,60.23,45.68,60.64,45.97,61.05z
					"/>
				<path fill="#18252F" d="M44.76,61.93c5.17,7.09,13.52,11.72,22.96,11.72c4.35,0,8.45-0.98,12.13-2.72l0.72,1.32
					c-3.99,1.9-8.4,2.9-12.85,2.9c-9.5,0-18.54-4.61-24.17-12.34L44.76,61.93z"/>
				<path fill="#18252F" d="M44.76,61.93l-1.21,0.88l-0.02-0.03c-0.29-0.4-0.57-0.8-0.83-1.21l1.21-0.88
					C44.18,61.11,44.46,61.52,44.76,61.93z"/>
				<path fill="#FFFFFF" d="M43.55,62.81c5.63,7.73,14.67,12.34,24.17,12.34c4.45,0,8.86-1,12.85-2.9l0.01,0.03L81.09,72l0.81-0.43
					h0.01c9.7-5.24,15.72-15.32,15.72-26.33c0-5.07-1.3-10.09-3.76-14.51l-0.73-1.31l-0.03,0.02c-4.1-6.59-10.56-11.32-18.08-13.2
					l0.01-0.06l-1.48-0.28c-1.97-0.39-3.94-0.58-5.84-0.58c-16.49,0-29.91,13.42-29.91,29.92c0,5.83,1.69,11.45,4.89,16.33
					l-0.04,0.03l0.87,1.18L43.55,62.81z M126.37,45.24c-4.52,5.45-29.03,33.23-58.07,33.23c-29,0-53.54-27.78-58.07-33.23
					C14.76,39.79,39.27,12,68.3,12C97.32,12,121.84,39.79,126.37,45.24z"/>
				<path fill="#18252F" d="M42.7,61.57c0.26,0.41,0.54,0.81,0.83,1.21l-0.87-1.18L42.7,61.57z"/>
				<path fill="#18252F" d="M39.31,45.24c0-15.7,12.72-28.42,28.41-28.42c1.9,0,3.75,0.2,5.55,0.55l-0.29,1.47L68.1,43.32
					l-1.71,0.95l5.11-25.68c-1.28-0.18-2.55-0.27-3.78-0.27c-14.84,0-26.91,12.08-26.91,26.92c0,5.2,1.49,10.2,4.32,14.57
					l-1.22,0.88C41.01,56.24,39.31,50.94,39.31,45.24z"/>
				<path fill="#18252F" d="M67.72,16.82c-15.69,0-28.41,12.72-28.41,28.42c0,5.7,1.7,11,4.6,15.45l-1.21,0.88
					c-3.2-4.88-4.89-10.5-4.89-16.33c0-16.5,13.42-29.92,29.91-29.92c1.9,0,3.87,0.19,5.84,0.58l-0.29,1.47
					C71.47,17.02,69.62,16.82,67.72,16.82z"/>
			</g>
			<g>
			</g>
		</g>
	</g>
</g>
</svg>
