<?xml version="1.0" encoding="utf-8"?>
<!-- Generator: Adobe Illustrator 22.1.0, SVG Export Plug-In . SVG Version: 6.00 Build 0)  -->
<svg version="1.2" baseProfile="tiny" id="Layer_1" xmlns="http://www.w3.org/2000/svg" xmlns:xlink="http://www.w3.org/1999/xlink"
	 x="0px" y="0px" viewBox="0 0 175.75 34.81" xml:space="preserve">
<g>
	<polygon fill-rule="evenodd" fill="#FFFFFF" points="94.42,26.48 94.42,9.06 94.4,9.06 90.27,9.06 90.27,7.01 90.27,3.15 
		91.63,3.13 92.99,3.15 105.49,3.15 106.99,3.15 106.99,4.6 106.99,9.06 104.04,9.06 102.95,9.06 102.95,13.17 102.95,27.13 
		103.89,27.13 105.56,27.13 106.1,23.93 106.14,23.93 106.23,23.91 106.3,23.91 106.36,23.91 106.43,23.93 106.99,23.93 
		112.77,23.93 112.77,34.14 90.27,34.14 90.27,28.87 94.42,27.95 94.44,27.24 94.42,26.48 	"/>
	<polygon fill-rule="evenodd" fill="#FFFFFF" points="1,9.06 0,9.06 0,3.15 12.08,3.15 12.93,3.15 13.78,3.15 13.78,8.28 
		13.78,8.69 13.78,9.06 12.55,9.06 10.96,9.06 11.9,13.86 13.37,21.41 14.18,17.88 15.92,10.34 17.55,3.15 20.23,3.15 21.84,3.15 
		26.41,3.15 28.18,10.98 28.31,11.54 30.48,21.03 31.46,16.61 31.95,14.45 33.16,9.06 31.44,9.06 30.23,9.06 30.23,6.83 30.23,3.15 
		33.18,3.15 40.59,3.15 43.54,3.15 43.54,7.3 43.54,9.06 42.64,9.06 41.59,9.06 40.28,14.42 36.71,28.89 35.41,34.14 30.54,34.14 
		28.96,34.14 24.96,34.14 23.93,28.96 22.8,23 21.5,16.32 19.07,27.69 18.82,28.87 17.68,34.14 13.19,34.14 10.76,34.14 7.77,34.14 
		6.76,29.96 2.9,13.91 1.74,9.06 1,9.06 	"/>
	<polygon fill-rule="evenodd" fill="#FFFFFF" points="68.65,26.48 68.65,9.06 68.63,9.06 64.48,9.06 64.48,7.01 64.48,3.15 
		65.84,3.13 67.23,3.15 79.73,3.15 81.22,3.15 81.22,4.6 81.22,9.06 78.28,9.06 77.18,9.06 77.18,13.17 77.18,27.13 78.14,27.13 
		79.8,27.13 80.35,23.93 80.4,23.93 80.49,23.91 80.55,23.91 80.62,23.91 80.69,23.93 81.22,23.93 87.01,23.93 87.01,34.14 
		64.48,34.14 64.48,28.87 68.65,27.95 68.65,27.24 68.65,26.48 	"/>
	<polygon fill-rule="evenodd" fill="#FFFFFF" points="112.95,9.06 112.41,9.06 112.41,4.35 112.39,3.77 112.41,3.15 113.73,3.15 
		124.56,3.15 125.16,3.17 125.74,3.15 125.74,9.06 125.21,9.06 125.07,9.06 123.89,9.06 125.32,12.21 126.59,14.96 127.98,12.19 
		129.52,9.06 128.33,9.06 127.57,9.06 127.57,7.52 127.57,7.37 127.57,7.21 127.57,3.15 129.81,3.15 138.78,3.15 139.79,3.15 
		140.79,3.15 140.79,7.75 140.79,9.06 140.32,9.06 138.58,9.06 137.31,11.59 133.54,19.02 131.06,23.93 131.04,25.9 131.04,27.95 
		134.81,28.87 134.81,29.94 134.81,34.14 129.29,34.14 118.09,34.14 118.09,30.34 118.09,28.87 122.17,27.95 122.17,25.52 
		122.17,23.93 119.02,18.2 118.22,16.66 114.16,9.06 112.95,9.06 	"/>
	<path fill-rule="evenodd" fill="#FFFFFF" d="M154.55,9.96c0.38-1.45,0.92-2.46,1.79-3.66l0.8-0.85l0.92-0.76
		c1.92-1.23,3.91-1.72,6.14-1.96l0.58-0.04l1.18-0.02h1.07l1.07,0.04l1.05,0.09l1.07,0.09l1.07,0.11l1.05,0.16l1.05,0.18l1.05,0.2
		v9.06h-7.39v-0.94V9.62h-0.65l-0.76,0.18l-1.03,0.42c-1.45,0.85-1.72,2.28-0.18,3.24l0.47,0.27l0.98,0.42l1.54,0.54l0.78,0.31
		c2.03,0.8,4.33,1.88,5.8,3.53l0.69,0.98c1.21,2.39,1.27,3.91,0.67,6.5l-0.13,0.47c-0.96,2.9-2.66,4.89-5.56,6.39l-1.07,0.49
		c-3.28,1.25-6.12,1.18-9.62,0.94l-0.98-0.13l-2.92-0.54v-9.69h7.08v2.86h1.09h0.92l0.22-0.02l0.96-0.33l0.18-0.07
		c1.43-1.05,0.8-2.14-0.2-3.13l-0.18-0.11l-1.05-0.42l-1.23-0.42l-1.21-0.42l-1.23-0.47l-1.74-0.76l-1.03-0.71l-0.92-0.83
		l-0.78-0.94l-0.65-0.92l-0.45-0.89l-0.16-0.47C154.08,13.78,153.97,12.1,154.55,9.96L154.55,9.96z"/>
	<polygon fill-rule="evenodd" fill="#FFFFFF" points="45.5,11.21 47.09,11.19 48.69,11.21 49.45,11.21 56.71,11.21 57.04,11.21 
		57.38,11.23 57.71,11.21 58.07,11.21 58.07,27.95 61.35,28.87 61.35,31.19 61.35,34.14 55.82,34.14 45.5,34.14 45.5,30.01 
		45.5,28.87 49.43,27.95 49.43,17.39 45.5,17.39 45.5,11.21 	"/>
	<path fill-rule="evenodd" fill="#FFFFFF" d="M53.81,0c2.75,0,4.98,2.21,4.98,4.96c0,2.72-2.23,4.96-4.98,4.96
		c-2.72,0-4.96-2.23-4.96-4.96C48.85,2.21,51.08,0,53.81,0L53.81,0z"/>
	<path fill-rule="evenodd" fill="#FFFFFF" d="M145.26,12.44c2.75,0,4.98,2.23,4.98,4.96c0,2.75-2.23,4.98-4.98,4.98
		c-2.72,0-4.96-2.23-4.96-4.98C140.3,14.67,142.53,12.44,145.26,12.44L145.26,12.44z"/>
	<path fill-rule="evenodd" fill="#FFFFFF" d="M145.26,24.87c2.75,0,4.98,2.23,4.98,4.98c0,2.72-2.23,4.96-4.98,4.96
		c-2.72,0-4.96-2.23-4.96-4.96C140.3,27.1,142.53,24.87,145.26,24.87L145.26,24.87z"/>
</g>
</svg>
