<?xml version="1.0" encoding="utf-8"?>
<!-- Generator: Adobe Illustrator 22.0.1, SVG Export Plug-In . SVG Version: 6.00 Build 0)  -->
<svg version="1.2" baseProfile="tiny" xmlns="http://www.w3.org/2000/svg" xmlns:xlink="http://www.w3.org/1999/xlink" x="0px"
	 y="0px" viewBox="0 0 123.2 72.6" xml:space="preserve">
<g id="Layer_2">
	<polygon fill="#FFFFFF" points="1.6,36.3 12.7,24.9 28.1,12.6 48.3,3 62.5,1.5 71.5,3 83.1,6.1 91.3,9.8 111,24.3 116.8,31.3 
		121.6,36.3 118.1,40.8 106.6,52.5 92.8,61.3 80.2,67.8 67.1,71.2 58.2,71.2 51.7,70.6 41,67.2 32,62.8 20.5,55.2 12.3,48.6 
		2.8,38.7 	"/>
</g>
<g id="Layer_1">
	<g id="XMLID_176_">
		<g>
			<path fill="#F08576" d="M74.4,27.5c1.8,1.8,2.7,4.1,2.7,6.4c0,2.3-0.9,4.6-2.7,6.4L61.6,53.2L48.8,40.4c-3.5-3.5-3.5-9.3,0-12.8
				c3.5-3.5,9.3-3.5,12.8,0C65.2,24,70.9,24,74.4,27.5z"/>
			<path fill="#3CB9C1" d="M61.6,9.8c14.6,0,26.5,11.9,26.5,26.5c0,14.6-11.9,26.5-26.5,26.5c-14.6,0-26.5-11.9-26.5-26.5
				C35.1,21.7,47,9.8,61.6,9.8z M77.1,33.9c0-2.3-0.9-4.7-2.7-6.4c-3.5-3.5-9.3-3.5-12.8,0c-3.5-3.5-9.3-3.5-12.8,0
				c-3.5,3.5-3.5,9.3,0,12.8l12.8,12.8l12.8-12.8C76.2,38.6,77.1,36.3,77.1,33.9z"/>
		</g>
		<g>
			<path fill="#18252F" d="M61.6,72.6c-9.7,0-25.1-3.1-43.4-17.7C7.3,46.2,0.6,37.6,0.3,37.2c-0.4-0.5-0.4-1.3,0-1.8
				c0.3-0.4,7-8.9,17.9-17.7C36.5,3.1,51.9,0,61.6,0c9.7,0,25.1,3.1,43.4,17.7c10.9,8.7,17.6,17.3,17.9,17.7c0.4,0.5,0.4,1.3,0,1.8
				c-0.3,0.4-7,8.9-17.9,17.7C86.7,69.5,71.3,72.6,61.6,72.6z M3.4,36.3C8,41.8,32.5,69.6,61.6,69.6c29.1,0,53.7-27.8,58.2-33.3
				C115.3,30.9,90.7,3,61.6,3C32.5,3,8,30.9,3.4,36.3z"/>
			<path fill="#18252F" d="M61.6,64.3c-15.4,0-28-12.5-28-28c0-15.4,12.5-28,28-28c15.4,0,28,12.5,28,28
				C89.6,51.7,77,64.3,61.6,64.3z M61.6,11.3c-13.8,0-25,11.2-25,25c0,13.8,11.2,25,25,25c13.8,0,25-11.2,25-25
				C86.6,22.5,75.4,11.3,61.6,11.3z"/>
			<path fill="#18252F" d="M61.6,54.7c-0.4,0-0.8-0.1-1.1-0.4L47.7,41.4c-4.1-4.1-4.1-10.8,0-15c2-2,4.6-3.1,7.5-3.1
				c2.3,0,4.6,0.8,6.4,2.2c1.8-1.4,4.1-2.2,6.4-2.2c2.8,0,5.5,1.1,7.5,3.1c2,2,3.1,4.6,3.1,7.5c0,2.8-1.1,5.5-3.1,7.5L62.7,54.2
				C62.4,54.5,62,54.7,61.6,54.7z M55.2,26.4c-2,0-3.9,0.8-5.3,2.2c-2.9,3-2.9,7.8,0,10.7L61.6,51l11.8-11.8
				c1.4-1.4,2.2-3.3,2.2-5.3c0-2-0.8-3.9-2.2-5.4C72,27.2,70,26.4,68,26.4c-2,0-3.9,0.8-5.4,2.2c-0.6,0.6-1.5,0.6-2.1,0
				C59.1,27.2,57.2,26.4,55.2,26.4z"/>
		</g>
	</g>
</g>
</svg>
