<?xml version="1.0" encoding="utf-8"?>
<!-- Generator: Adobe Illustrator 22.1.0, SVG Export Plug-In . SVG Version: 6.00 Build 0)  -->
<svg version="1.2" baseProfile="tiny" id="Layer_1" xmlns="http://www.w3.org/2000/svg" xmlns:xlink="http://www.w3.org/1999/xlink"
	 x="0px" y="0px" viewBox="0 0 85.07 111.8" xml:space="preserve">
<g id="XMLID_52_">
	<g>
		<g id="XMLID_1_">
			<g>
				<circle fill="#FFFFFF" cx="51.86" cy="71" r="3.71"/>
				<path fill="#F08576" d="M77.07,87.43h0.01V12.99c0-0.83-0.68-1.5-1.5-1.5H64.05V5.96c0.47,0.11,0.97,0.16,1.5,0.16h15.03
					c0.82,0,1.5,0.67,1.5,1.5v99.68c0,0.83-0.68,1.5-1.5,1.5H4.5c-0.82,0-1.5-0.67-1.5-1.5V7.62c0-0.83,0.68-1.5,1.5-1.5h15.03
					c0.53,0,1.04-0.05,1.5-0.16v5.53H9.5c-0.82,0-1.5,0.67-1.5,1.5v88.19c0,0.83,0.68,1.5,1.5,1.5h52.33c0.38,0,0.77-0.15,1.06-0.44
					l13.75-13.75C76.92,88.2,77.07,87.82,77.07,87.43z"/>
				<path fill="#18252F" d="M77.07,87.43h-1.49v-1.5c0.6,0,1.15,0.36,1.38,0.93C77.04,87.04,77.07,87.24,77.07,87.43z"/>
				<path fill="#18252F" d="M75.58,12.99H64.05v-1.5h11.53c0.82,0,1.5,0.67,1.5,1.5v74.44h-0.01c0-0.19-0.03-0.39-0.11-0.57
					c-0.23-0.57-0.78-0.93-1.38-0.93V12.99z"/>
				<rect x="74.08" y="85.93" fill="#18252F" width="1.5" height="1.5"/>
				<polygon fill="#18252F" points="75.58,12.99 75.58,85.93 74.08,85.93 74.08,14.49 64.05,14.49 64.05,12.99 				"/>
				<path fill="#FFFFFF" d="M74.08,14.49v71.44H61.83c-0.83,0-1.5,0.67-1.5,1.5v12.25H11V14.49h10.03v2.61c0,0.83,0.67,1.5,1.5,1.5
					h40.02c0.83,0,1.5-0.67,1.5-1.5v-2.61H74.08z M65.07,44.46l2.76-7.09l-7.1-2.75l-5.08,2.24l5.19,2.02
					C40.28,48.91,25.03,65.47,18.82,84.59l2.85,0.92c5.94-18.28,20.56-34.16,40.27-43.83l-1.96,5.02L65.07,44.46z M58.57,71
					c0-3.7-3.01-6.71-6.71-6.71S45.15,67.3,45.15,71c0,3.7,3.01,6.71,6.71,6.71S58.57,74.7,58.57,71z M34.95,40.38l3.72-3.71
					l-2.13-2.12l-3.71,3.71l-3.72-3.71L27,36.67l3.71,3.71L27,44.09l2.11,2.12l3.72-3.71l3.71,3.71l2.13-2.12L34.95,40.38z"/>
				<polygon fill="#FFDB93" points="71.95,88.93 63.33,97.56 63.33,88.93 				"/>
				<rect x="62.55" y="12.99" fill="#18252F" width="1.5" height="1.5"/>
				<rect x="62.55" y="11.49" fill="#18252F" width="1.5" height="1.5"/>
				<path fill="#18252F" d="M64.05,5.96v5.53h-1.5v-6.1C62.98,5.65,63.48,5.84,64.05,5.96z"/>
				<path fill="#18252F" d="M64.05,1.5v1.29c0-0.01-0.01-0.01-0.01-0.01C63.85,1.15,62.02,0,59.55,0h3C63.38,0,64.05,0.67,64.05,1.5
					z"/>
				<path fill="#18252F" d="M63.67,39.97L64,40.69c-0.25,0.12-0.5,0.23-0.75,0.36L63.67,39.97z"/>
				<path fill="#18252F" d="M62.55,3.06c0-0.86-1.34-1.56-3-1.56V0c2.47,0,4.3,1.15,4.49,2.78c0,0,0.01,0,0.01,0.01V4.4
					C63.16,4.14,62.55,3.64,62.55,3.06z"/>
				<path fill="#18252F" d="M63.38,39.34l0.29,0.63l-0.42,1.08c-0.22,0.1-0.44,0.2-0.66,0.31L63.38,39.34z"/>
				<polygon fill="#18252F" points="63.47,38.83 64.11,38.83 63.85,39.51 63.67,39.97 63.38,39.34 63.37,39.33 63.07,38.68 				"/>
				<path fill="#18252F" d="M63.07,38.68l0.3,0.65l-1.91-0.75c0.2-0.1,0.41-0.2,0.62-0.29L63.07,38.68z"/>
				<path fill="#18252F" d="M63.33,97.56l8.62-8.63h-8.62V97.56z M61.83,99.68V87.43h12.25h1.5l-13.75,13.75V99.68z"/>
				<path fill="#18242F" d="M66.54,37.95l-2.26,5.77l-2.49,1.1l1.46-3.77c0.25-0.13,0.5-0.24,0.75-0.36l-0.33-0.72l0.18-0.46
					l0.26-0.68h-0.64l-0.4-0.15l-0.32-0.71c-0.23,0.1-0.45,0.21-0.67,0.32l-3.82-1.49l2.5-1.1L66.54,37.95z"/>
				<path fill="#18252F" d="M63.38,39.34l-0.79,2.02c-0.22,0.1-0.43,0.2-0.65,0.32l0.8-2.06l-1.9-0.74c0.2-0.1,0.41-0.2,0.62-0.3
					l1.91,0.75L63.38,39.34z"/>
				<path fill="#18252F" d="M63.07,38.68l-0.99-0.39c0.22-0.11,0.44-0.22,0.67-0.32L63.07,38.68z"/>
				<path fill="#18252F" d="M62.74,39.62l-0.8,2.06c-19.71,9.67-34.33,25.55-40.27,43.83l-2.85-0.92
					c6.21-19.12,21.46-35.68,42.02-45.71L62.74,39.62z"/>
				<path fill="#18252F" d="M62.55,3.06c0,0.58,0.61,1.08,1.5,1.34v1.56c-0.57-0.12-1.07-0.31-1.5-0.57V3.06z"/>
				<path fill="#18252F" d="M61.83,102.68v-1.5l13.75-13.75h1.49c0,0.39-0.15,0.77-0.43,1.06l-13.75,13.75
					C62.6,102.53,62.21,102.68,61.83,102.68z"/>
				<rect x="60.33" y="99.68" fill="#18252F" width="1.5" height="1.5"/>
				<path fill="#18252F" d="M61.83,87.43v12.25h-1.5V87.43c0-0.83,0.67-1.5,1.5-1.5h12.25v1.5H61.83z"/>
				<path fill="#18252F" d="M61.83,101.18v1.5c-0.2,0-0.39-0.04-0.58-0.11c-0.56-0.24-0.92-0.78-0.92-1.39H61.83z"/>
				<path fill="#18252F" d="M9.5,12.99v88.19h50.83c0,0.61,0.36,1.15,0.92,1.39c0.19,0.07,0.38,0.11,0.58,0.11H9.5
					c-0.82,0-1.5-0.67-1.5-1.5V12.99c0-0.83,0.68-1.5,1.5-1.5h11.53v1.5H9.5z"/>
				<path fill="#FFDB93" d="M61.05,3.33V15.6H24.03V3.33C24.25,3.2,24.76,3,25.53,3h34.02C60.32,3,60.83,3.2,61.05,3.33z
					 M56.21,10.8v-3H28.87v3H56.21z"/>
				<path fill="#18252F" d="M61.05,3v0.33C60.83,3.2,60.32,3,59.55,3H61.05z"/>
				<path fill="#18252F" d="M62.55,5.39c-0.84-0.48-1.38-1.2-1.48-2.05c-0.01,0-0.01-0.01-0.02-0.01V3h-1.5V1.5c1.66,0,3,0.7,3,1.56
					V5.39z"/>
				<rect x="25.53" y="1.5" fill="#18252F" width="34.02" height="1.5"/>
				<rect x="25.53" y="0" fill="#18252F" width="34.02" height="1.5"/>
				<path fill="#18252F" d="M61.79,44.82l2.49-1.1l2.26-5.77l-5.78-2.25l-2.5,1.1l3.82,1.49c-0.21,0.09-0.42,0.19-0.62,0.29
					l-4.5-1.75l3.79-1.67l6.44,2.5l-2.52,6.43l-3.79,1.67l1.71-4.4c0.22-0.11,0.44-0.21,0.66-0.31L61.79,44.82z"/>
				<path fill="#18252F" d="M55.65,36.86l5.08-2.24l7.1,2.75l-2.76,7.09l-5.09,2.24l1.96-5.02c0.22-0.12,0.43-0.22,0.65-0.32
					l-1.71,4.4l3.79-1.67l2.52-6.43l-6.44-2.5l-3.79,1.67l4.5,1.75c-0.21,0.1-0.42,0.2-0.62,0.3L55.65,36.86z"/>
				<rect x="28.87" y="7.8" fill="#18252F" width="27.34" height="3"/>
				<path fill="#18252F" d="M51.86,64.29c3.7,0,6.71,3.01,6.71,6.71c0,3.7-3.01,6.71-6.71,6.71S45.15,74.7,45.15,71
					C45.15,67.3,48.16,64.29,51.86,64.29z M55.57,71c0-2.05-1.67-3.71-3.71-3.71c-2.05,0-3.71,1.66-3.71,3.71
					c0,2.05,1.66,3.71,3.71,3.71C53.9,74.71,55.57,73.05,55.57,71z"/>
				
					<rect x="33.12" y="35.96" transform="matrix(0.7081 -0.7062 0.7062 0.7081 -16.0213 36.1775)" fill="#18252F" width="5.25" height="3"/>
				
					<rect x="34.24" y="40.67" transform="matrix(0.7088 -0.7054 0.7054 0.7088 -20.1327 37.8233)" fill="#18252F" width="3" height="5.25"/>
				
					<rect x="31.33" y="38.88" transform="matrix(0.7071 -0.7071 0.7071 0.7071 -18.9388 35.038)" fill="#18252F" width="3" height="3"/>
				
					<rect x="28.41" y="34.84" transform="matrix(0.7071 -0.7071 0.7071 0.7071 -17.7321 32.1212)" fill="#18252F" width="2.99" height="5.25"/>
				
					<rect x="27.28" y="41.8" transform="matrix(0.7081 -0.7062 0.7062 0.7081 -21.8417 33.7591)" fill="#18252F" width="5.25" height="2.99"/>
				<path fill="#18252F" d="M22.53,0h3c-2.47,0-4.3,1.15-4.49,2.78c0,0-0.01,0-0.01,0.01V1.5C21.03,0.67,21.7,0,22.53,0z"/>
				<path fill="#18252F" d="M24.03,3.33V3h1.5C24.76,3,24.25,3.2,24.03,3.33z"/>
				<path fill="#18252F" d="M24.03,15.6h37.02V3.33c0.01,0,0.01,0.01,0.02,0.01c0.1,0.85,0.64,1.57,1.48,2.05v6.1v1.5v1.5v2.61
					H22.53v-2.61v-1.5v-1.5v-6.1c0.84-0.49,1.38-1.21,1.48-2.05c0.01,0,0.01-0.01,0.02-0.01V15.6z"/>
				<path fill="#18252F" d="M25.53,3h-1.5v0.33c-0.01,0-0.01,0.01-0.02,0.01c-0.1,0.84-0.64,1.56-1.48,2.05V3.06
					c0-0.86,1.34-1.56,3-1.56V3z"/>
				<rect x="21.03" y="11.49" fill="#18252F" width="1.5" height="1.5"/>
				<path fill="#18252F" d="M22.53,5.39v6.1h-1.5V5.96C21.6,5.84,22.1,5.64,22.53,5.39z"/>
				<path fill="#18252F" d="M21.03,4.4c0.89-0.26,1.5-0.76,1.5-1.34v2.33c-0.43,0.25-0.93,0.45-1.5,0.57V4.4z"/>
				<path fill="#18252F" d="M22.53,18.6c-0.83,0-1.5-0.67-1.5-1.5v-2.61h1.5v2.61h40.02v-2.61h1.5v2.61c0,0.83-0.67,1.5-1.5,1.5
					H22.53z"/>
				<path fill="#18252F" d="M22.53,3.06c0,0.58-0.61,1.08-1.5,1.34V2.79c0-0.01,0.01-0.01,0.01-0.01C21.23,1.15,23.06,0,25.53,0v1.5
					C23.87,1.5,22.53,2.2,22.53,3.06z"/>
				<rect x="21.03" y="12.99" fill="#18252F" width="1.5" height="1.5"/>
				<polygon fill="#18252F" points="11,99.68 60.33,99.68 60.33,101.18 9.5,101.18 9.5,12.99 21.03,12.99 21.03,14.49 11,14.49 				
					"/>
				<path fill="#18252F" d="M19.53,4.62c0.54,0,1.06-0.08,1.5-0.22v1.56c-0.46,0.11-0.97,0.16-1.5,0.16H4.5C3.68,6.12,3,6.79,3,7.62
					v99.68c0,0.83,0.68,1.5,1.5,1.5h76.08c0.82,0,1.5-0.67,1.5-1.5V7.62c0-0.83-0.68-1.5-1.5-1.5H65.55c-0.53,0-1.03-0.05-1.5-0.16
					V4.4c0.44,0.14,0.96,0.22,1.5,0.22h15.03c1.65,0,3,1.35,3,3v99.68c0,1.65-1.35,3-3,3H4.5c-1.64,0-3-1.35-3-3V7.62
					c0-1.65,1.36-3,3-3H19.53z"/>
				<path fill="#18252F" d="M21.03,2.79V4.4c-0.44,0.14-0.96,0.22-1.5,0.22H4.5c-1.64,0-3,1.35-3,3v99.68c0,1.65,1.36,3,3,3h76.08
					c1.65,0,3-1.35,3-3V7.62c0-1.65-1.35-3-3-3H65.55c-0.54,0-1.06-0.08-1.5-0.22V2.79c0.21,0.13,0.73,0.33,1.5,0.33h15.03
					c2.48,0,4.5,2.02,4.5,4.5v99.68c0,2.48-2.02,4.5-4.5,4.5H4.5c-2.48,0-4.5-2.02-4.5-4.5V7.62c0-2.48,2.02-4.5,4.5-4.5h15.03
					C20.3,3.12,20.82,2.92,21.03,2.79z"/>
			</g>
			<g>
			</g>
		</g>
	</g>
</g>
</svg>
