<?xml version="1.0" encoding="utf-8"?>
<!-- Generator: Adobe Illustrator 22.0.1, SVG Export Plug-In . SVG Version: 6.00 Build 0)  -->
<svg version="1.2" baseProfile="tiny" id="Layer_1" xmlns="http://www.w3.org/2000/svg" xmlns:xlink="http://www.w3.org/1999/xlink"
	 x="0px" y="0px" viewBox="0 0 276.1 238" xml:space="preserve">
<g>
	<path fill="#FFFFFF" d="M268.3,213.4h-91.5c-1,0-1.8,0.8-1.8,1.8v2.4c0,1.8-1.5,3.2-3.2,3.2h-67.5c-1.8,0-3.2-1.5-3.2-3.2v-2.4
		c0-1-0.8-1.8-1.8-1.8H7.8c-4.3,0-7.8,3.5-7.8,7.8v9c0,4.3,3.5,7.8,7.8,7.8h260.5c4.3,0,7.8-3.5,7.8-7.8v-9
		C276.1,216.9,272.6,213.4,268.3,213.4z"/>
	<g>
		<path fill="#FFFFFF" d="M47.2,66.1H31.1c-8.3,0-15,6.7-15,15v116.6c0,1,0.8,1.8,1.8,1.8h9.6c1,0,1.8-0.8,1.8-1.8V81.2
			c0-1,0.8-1.8,1.8-1.8h16.1V66.1z"/>
		<path fill="#FFFFFF" d="M245,66.1H119.9v13.2H245c1,0,1.8,0.8,1.8,1.8v116.6c0,1,0.8,1.8,1.8,1.8h9.6c1,0,1.8-0.8,1.8-1.8V81.2
			C260,72.9,253.3,66.1,245,66.1z"/>
	</g>
	<polygon fill="#FFFFFF" points="61.1,43.9 61.1,92.4 105.9,92.4 105.9,43.9 123.6,43.9 83.5,0 43.4,43.9 	"/>
	<path fill="#FFFFFF" d="M188.7,110.9l-1.4-0.1c-0.2,0-0.3,0-0.4,0.1H89.3c-0.1-0.1-0.3-0.1-0.4-0.1l-1.4,0.1
		c-4.5,0.5-7.9,4.2-7.9,8.7v64.2c0,4.8,3.9,8.8,8.8,8.8h99.5c4.8,0,8.8-3.9,8.8-8.8v-64.2C196.6,115.1,193.2,111.3,188.7,110.9z
		 M189,119.3c0,0.1,0.1,0.2,0.1,0.3v62l-31.2-31.2L189,119.3z M123.8,155.9l8.1,8.1c3.4,3.4,9,3.4,12.4,0l8.3-8.3l26.9,26.9H97
		L123.8,155.9z M138.9,158.7c-0.5,0.5-1.3,0.5-1.8,0l-40.3-40.3h82.4L138.9,158.7z M87.1,119.3l31.3,31.3L87.1,182v-62.4
		C87.1,119.5,87.1,119.4,87.1,119.3z"/>
</g>
</svg>
