<?xml version="1.0" encoding="utf-8"?>
<!-- Generator: Adobe Illustrator 22.1.0, SVG Export Plug-In . SVG Version: 6.00 Build 0)  -->
<svg version="1.1" id="Layer_1" xmlns="http://www.w3.org/2000/svg" xmlns:xlink="http://www.w3.org/1999/xlink" x="0px" y="0px"
	 viewBox="0 0 141.2 101.2" enable-background="new 0 0 141.2 101.2" xml:space="preserve">
<g id="XMLID_353_">
	<g>
		<path fill="#F08576" d="M78.1,37.1c1.2,0,2.3,0.2,3.4,0.4c1.7,4,2.6,8.5,2.6,13.1c0,4.6-0.9,9-2.6,13.1l0,0
			c-1.1,0.3-2.2,0.4-3.4,0.4c-7.5,0-13.5-6.1-13.5-13.5C64.6,43.1,70.7,37.1,78.1,37.1z"/>
		<path fill="#F08576" d="M50.6,64.6c7.5,0,13.5,6.1,13.5,13.5c0,1.2-0.2,2.3-0.4,3.4c-4,1.7-8.5,2.7-13.1,2.7c-4.6,0-9-0.9-13-2.6
			c-0.3-1.1-0.5-2.3-0.5-3.6C37.1,70.6,43.2,64.6,50.6,64.6z"/>
		<path fill="#F08576" d="M50.6,44c3.7,0,6.7,3,6.7,6.7c0,3.7-3,6.7-6.7,6.7c-3.7,0-6.7-3-6.7-6.7C44,46.9,46.9,44,50.6,44z"/>
		<path fill="#F08576" d="M23.1,37.1c7.5,0,13.5,6.1,13.5,13.5c0,7.5-6.1,13.5-13.5,13.5c-1.2,0-2.3-0.2-3.4-0.4c0,0,0,0,0,0
			c-1.7-4-2.7-8.5-2.7-13.1c0-4.6,0.9-9.1,2.6-13.1l0,0C20.7,37.2,21.9,37.1,23.1,37.1z"/>
		<path fill="#F08576" d="M64.1,23.1c0,7.5-6.1,13.5-13.5,13.5c-7.4,0-13.5-6-13.5-13.4c0-1.2,0.2-2.4,0.5-3.5c4-1.7,8.4-2.6,13-2.6
			c4.6,0,9.1,1,13.1,2.7C64,20.8,64.1,21.9,64.1,23.1z"/>
		<path fill="#D4EAE3" d="M19.7,63.8c1.2,0.4,2.5,0.5,3.8,0.5c7.6,0,13.8-6.2,13.8-13.8c0-7.6-6.2-13.8-13.8-13.8
			c-2.3,0-4.5,0.6-6.4,1.6c-0.1,0-0.2,0.1-0.3,0.1c-4.4,2.2-7.4,6.8-7.4,12.1c0,5.2,3,9.7,7.3,12C17.7,63.1,18.7,63.5,19.7,63.8z
			 M37.5,19.7c-0.3,1.1-0.4,2.2-0.4,3.4c0,0,0,0.1,0,0.1c0,0,0,0.1,0,0.1c0,7.6,6.2,13.8,13.8,13.8c7.6,0,13.8-6.2,13.8-13.8
			c0-1.2-0.2-2.3-0.4-3.5c-1.4-5.5-6.2-9.7-12-10.3c-0.5-0.1-1-0.1-1.6-0.1C44.3,9.5,39,13.8,37.5,19.7z M50.6,1.5
			c27.1,0,49.1,22,49.1,49.1s-22,49.1-49.1,49.1c-27.1,0-49.1-22-49.1-49.1S23.5,1.5,50.6,1.5z M91.9,50.6c0-6.5-4.5-11.9-10.5-13.4
			c-1.1-0.3-2.2-0.4-3.3-0.4c-7.6,0-13.8,6.2-13.8,13.8c0,7.6,6.2,13.8,13.8,13.8C85.7,64.4,91.9,58.2,91.9,50.6z M64.6,77.9
			c0-7.6-6.2-13.8-13.8-13.8c-7.6,0-13.8,6.2-13.8,13.8c0,0,0,0.1,0,0.1c0,0,0,0.1,0,0.1c0,7.5,6.1,13.5,13.5,13.5
			c0.5,0,1,0,1.6-0.1C59.1,90.9,64.6,85,64.6,77.9z M57.3,50.6c0-3.7-3-6.7-6.7-6.7c-3.7,0-6.7,3-6.7,6.7c0,3.7,3,6.7,6.7,6.7
			C54.3,57.3,57.3,54.3,57.3,50.6z"/>
	</g>
	<g>
		<path fill="#18252F" d="M126.8,44.5c-8,0-14.5-6.5-14.5-14.5h3c0,6.3,5.1,11.5,11.5,11.5c6.3,0,11.5-5.1,11.5-11.5
			c0-6.3-5.1-11.5-11.5-11.5h-40v-3h40c8,0,14.5,6.5,14.5,14.5C141.2,38,134.7,44.5,126.8,44.5z"/>
		<path fill="#18252F" d="M18.3,64.3c-1.8-4.3-2.8-8.9-2.8-13.7c0-4.7,0.9-9.3,2.8-13.7l2.8,1.2c-1.7,3.9-2.5,8.1-2.5,12.5
			c0,4.3,0.9,8.6,2.5,12.5L18.3,64.3z"/>
		<path fill="#18252F" d="M18.4,64.5c-0.1-0.1-0.1-0.3-0.2-0.4l1.9-0.5L18.4,64.5z"/>
		<path fill="#18252F" d="M50.6,85.7c-4.7,0-9.3-0.9-13.6-2.7l1.2-2.8c4,1.7,8.2,2.5,12.5,2.5c4.3,0,8.5-0.9,12.5-2.5l0.6,1.4
			l1.1,1.1l0,0c-0.1,0.1-0.3,0.2-0.5,0.3C59.9,84.8,55.3,85.7,50.6,85.7z"/>
		<path fill="#18252F" d="M82.9,64.3l-2.8-1.2c1.7-4,2.5-8.2,2.5-12.5c0-4.4-0.9-8.6-2.5-12.5L80,37.9l2.7-1.2l0.1,0.3
			c1.8,4.3,2.8,9,2.8,13.7C85.7,55.3,84.8,59.9,82.9,64.3z"/>
		<path fill="#18252F" d="M63.5,21.2l-0.2-0.1c-0.1,0-0.2-0.1-0.3-0.1c-3.9-1.7-8.2-2.5-12.5-2.5c-4.3,0-8.5,0.8-12.4,2.5
			c-0.2,0.1-0.4,0.1-0.7,0.1l0-1.5l-0.7-1.3c0,0,0.1-0.1,0.2-0.1c4.3-1.8,8.9-2.7,13.6-2.7c4.7,0,9.3,0.9,13.7,2.8l0.2,0.1
			c0.1,0,0.2,0.1,0.3,0.1L63.5,21.2z"/>
		<path fill="#18252F" d="M50.6,101.2C22.7,101.2,0,78.5,0,50.6C0,22.7,22.7,0,50.6,0c27.9,0,50.6,22.7,50.6,50.6
			C101.2,78.5,78.5,101.2,50.6,101.2z M50.6,3C24.4,3,3,24.4,3,50.6c0,26.2,21.4,47.6,47.6,47.6c26.3,0,47.6-21.4,47.6-47.6
			C98.2,24.4,76.9,3,50.6,3z"/>
		<path fill="#18252F" d="M23.1,65.7c-1.2,0-2.5-0.2-3.7-0.5c0,0-0.1,0-0.1,0c-1.1-0.3-2.2-0.7-3.2-1.2c-5-2.6-8.1-7.7-8.1-13.3
			c0-5.7,3.1-10.8,8.2-13.4l1.4,2.7c-4.1,2.1-6.6,6.2-6.6,10.7c0,4.5,2.5,8.6,6.5,10.7c0.8,0.4,1.6,0.7,2.5,1c0,0,0.1,0,0.1,0
			c1,0.3,2,0.4,3,0.4c6.6,0,12-5.4,12-12c0-6.6-5.4-12-12-12c-1,0-2.1,0.1-3,0.4c-0.8,0.2-1.5,0.5-2.2,0.8L16.6,37
			c0.9-0.4,1.8-0.7,2.7-1c1.2-0.3,2.5-0.5,3.8-0.5c8.3,0,15,6.7,15,15C38.1,58.9,31.4,65.7,23.1,65.7z"/>
		<path fill="#18252F" d="M50.6,93.2c-8.3,0-15-6.7-15-15V78c0.1-8.2,6.8-14.9,15-14.9c8.3,0,15,6.7,15,15c0,1.3-0.2,2.6-0.5,3.8
			c-1.5,6-6.7,10.5-12.8,11.2C51.8,93.1,51.2,93.2,50.6,93.2z M50.6,66.1c-6.6,0-12,5.3-12,11.9v0.1c0,6.6,5.4,12,12,12
			c0.5,0,0.9,0,1.4-0.1c4.9-0.6,9-4.2,10.3-8.9c0.3-1,0.4-2,0.4-3C62.6,71.5,57.2,66.1,50.6,66.1z"/>
		<path fill="#18252F" d="M50.6,38.1c-8.2,0-15-6.7-15-14.9v-0.1c0-1.3,0.2-2.5,0.5-3.8C37.8,12.7,43.7,8,50.6,8
			c0.6,0,1.2,0,1.7,0.1c6.1,0.7,11.3,5.2,12.8,11.2c0.3,1.2,0.5,2.5,0.5,3.8C65.6,31.4,58.9,38.1,50.6,38.1z M50.6,11
			c-5.5,0-10.3,3.7-11.6,9c-0.3,1-0.4,2-0.4,3v0.1c0.1,6.6,5.5,11.9,12,11.9c6.6,0,12-5.4,12-12c0-1-0.1-2-0.4-3
			c-1.2-4.8-5.4-8.4-10.3-8.9C51.5,11.1,51.1,11,50.6,11z"/>
		<path fill="#18252F" d="M78.1,65.7c-8.3,0-15-6.7-15-15c0-8.3,6.7-15,15-15c1.3,0,2.5,0.2,3.8,0.5c6.6,1.7,11.3,7.7,11.3,14.6
			c0,6.9-4.6,12.8-11.3,14.6C80.7,65.5,79.4,65.7,78.1,65.7z M78.1,38.6c-6.6,0-12,5.4-12,12c0,6.6,5.4,12,12,12c1,0,2.1-0.1,3-0.4
			c5.3-1.4,9-6.2,9-11.7c0-5.5-3.7-10.3-9-11.7C80.2,38.7,79.2,38.6,78.1,38.6z"/>
		<path fill="#18252F" d="M50.6,58.8c-4.5,0-8.2-3.7-8.2-8.2c0-4.5,3.7-8.2,8.2-8.2c4.5,0,8.2,3.7,8.2,8.2
			C58.8,55.1,55.1,58.8,50.6,58.8z M50.6,45.5c-2.8,0-5.2,2.3-5.2,5.2c0,2.8,2.3,5.2,5.2,5.2c2.8,0,5.2-2.3,5.2-5.2
			C55.8,47.8,53.4,45.5,50.6,45.5z"/>
		<path fill="#18252F" d="M78.1,65.9c-8.4,0-15.3-6.8-15.3-15.3c0-8.4,6.9-15.3,15.3-15.3c1.2,0,2.5,0.1,3.7,0.4
			c6.8,1.7,11.6,7.8,11.6,14.8C93.4,59,86.5,65.9,78.1,65.9z M78.1,38.3c-6.8,0-12.3,5.5-12.3,12.3c0,6.8,5.5,12.3,12.3,12.3
			c6.8,0,12.3-5.5,12.3-12.3c0-5.7-3.8-10.6-9.3-11.9C80.1,38.5,79.1,38.3,78.1,38.3z"/>
		<path fill="#18252F" d="M23.6,65.9c-1.5,0-2.9-0.2-4.3-0.6c-1.1-0.3-2.2-0.8-3.2-1.4c-4.8-2.7-7.8-7.8-7.8-13.3
			c0-5.6,3-10.7,7.9-13.4c0.1-0.1,0.3-0.1,0.4-0.2c2.1-1.1,4.5-1.7,7-1.7c8.4,0,15.3,6.8,15.3,15.3C38.8,59,32,65.9,23.6,65.9z
			 M23.6,38.3c-2,0-3.9,0.5-5.7,1.4c-0.1,0.1-0.2,0.1-0.2,0.1c-3.9,2.2-6.4,6.3-6.4,10.8c0,4.4,2.4,8.5,6.3,10.7
			c0.8,0.5,1.7,0.8,2.6,1.1c1.1,0.3,2.3,0.5,3.4,0.5c6.8,0,12.3-5.5,12.3-12.3C35.8,43.8,30.3,38.3,23.6,38.3z"/>
		<path fill="#18252F" d="M50.8,38.6c-8.4,0-15.3-6.9-15.3-15.3v-0.1c0-1.4,0.2-2.7,0.6-4C37.9,12.7,44,8.1,50.8,8.1
			c0.5,0,1,0,1.5,0.1c6.4,0.6,11.7,5.2,13.3,11.4c0.3,1.2,0.5,2.5,0.5,3.8C66.1,31.8,59.3,38.6,50.8,38.6z M50.8,11.1
			c-5.5,0-10.4,3.7-11.8,9c-0.3,1-0.4,2.1-0.4,3.2v0.1c0,6.8,5.5,12.3,12.3,12.3c6.8,0,12.3-5.5,12.3-12.3c0-1-0.1-2.1-0.4-3.1
			c-1.3-5-5.6-8.6-10.7-9.1C51.6,11.1,51.2,11.1,50.8,11.1z"/>
		<path fill="#18252F" d="M50.8,93.2c-6.8,0-12.9-4.6-14.7-11.2c-0.4-1.3-0.5-2.6-0.6-3.9v-0.1c0-8.4,6.9-15.3,15.3-15.3
			c8.4,0,15.3,6.8,15.3,15.3c0,7.9-5.9,14.4-13.8,15.2C51.8,93.1,51.3,93.2,50.8,93.2z M50.8,65.6c-6.8,0-12.3,5.5-12.3,12.3V78
			c0,1,0.2,2.1,0.4,3.2c1.5,5.3,6.3,9,11.8,9c0.4,0,0.8,0,1.2-0.1c6.3-0.6,11.1-5.9,11.1-12.2C63.1,71.1,57.6,65.6,50.8,65.6z"/>
	</g>
</g>
</svg>
