<?xml version="1.0" encoding="utf-8"?>
<!-- Generator: Adobe Illustrator 22.1.0, SVG Export Plug-In . SVG Version: 6.00 Build 0)  -->
<svg version="1.1" id="Layer_1" xmlns="http://www.w3.org/2000/svg" xmlns:xlink="http://www.w3.org/1999/xlink" x="0px" y="0px"
	 viewBox="0 0 135.6 69.6" enable-background="new 0 0 135.6 69.6" xml:space="preserve">
<g id="XMLID_343_">
	<g>
		<path fill="#F08576" d="M88,14.1c3.4,0,6.1,2.8,6.1,6.1c0,3.4-2.8,6.1-6.1,6.1c-3.4,0-6.1-2.8-6.1-6.1
			C81.9,16.8,84.6,14.1,88,14.1z"/>
		<path fill="#3CB9C1" d="M8.2,20.2v14.6v3.8c0,0.9-0.4,1.8-1,2.4c-0.6,0.6-1.4,1-2.4,1c-1.8,0-3.3-1.5-3.3-3.3V16.4
			c0-0.9,0.4-1.8,1-2.4c0.6-0.6,1.4-1,2.4-1c1.9,0,3.3,1.5,3.3,3.3V20.2z"/>
		<path fill="#3CB9C1" d="M104.6,17.8V41v23.1c0,2.2-1.8,4-4,4H25.7c-2.2,0-4-1.8-4-4V34.8H54h4c3.7,0,6.7-2.7,7.2-6.2
			c0-0.1,0-0.3,0-0.4c0-0.2,0-0.5,0-0.7s0-0.5,0-0.7c0-0.1,0-0.3,0-0.4c-0.5-3.5-3.6-6.2-7.2-6.2h-4H21.7V5.5c0-2.2,1.8-4,4-4h74.9
			c2.2,0,4,1.8,4,4V17.8z M94.2,20.2c0-3.4-2.8-6.1-6.1-6.1c-3.4,0-6.1,2.8-6.1,6.1c0,3.4,2.8,6.1,6.1,6.1
			C91.4,26.3,94.2,23.6,94.2,20.2z"/>
		<polygon fill="#D4EAE3" points="127.4,7.6 127.4,51.2 104.6,41 104.6,17.8 		"/>
		<path fill="#3CB9C1" d="M134.1,5.1v48.3c0,0.9-0.4,1.8-1,2.4c-0.6,0.6-1.4,1-2.4,1c-1.8,0-3.3-1.5-3.3-3.3v-2.2V7.6V5.1
			c0-0.9,0.4-1.8,1-2.4c0.6-0.6,1.4-1,2.4-1C132.6,1.8,134.1,3.3,134.1,5.1z"/>
		<path fill="#D4EAE3" d="M65.3,26.8c0,0.2,0,0.5,0,0.7c0,0.2,0,0.5,0,0.7c0,0.1,0,0.3,0,0.4c-0.6,3.3-3.6,4.6-3.6,4.6
			c-2,0.9-5.5,1.6-7.6,1.6H21.7H8.2V20.2h13.6H54c2.2,0,5.6,0.7,7.6,1.6c0,0,3,1.4,3.6,4.6C65.3,26.6,65.3,26.7,65.3,26.8z"/>
	</g>
	<g>
		<rect x="103.5" y="11.2" transform="matrix(0.9129 -0.4081 0.4081 0.9129 4.904 48.4553)" fill="#18252F" width="25" height="3"/>
		<rect x="114.5" y="33.6" transform="matrix(0.408 -0.913 0.913 0.408 26.5804 133.2046)" fill="#18252F" width="3" height="25"/>
		<path fill="#18252F" d="M100.6,69.6H25.7c-3,0-5.5-2.5-5.5-5.5V34.8h3v29.3c0,1.4,1.1,2.5,2.5,2.5h74.9c1.4,0,2.5-1.1,2.5-2.5V5.5
			c0-1.4-1.1-2.5-2.5-2.5H25.7c-1.4,0-2.5,1.1-2.5,2.5v14.7h-3V5.5c0-3,2.5-5.5,5.5-5.5h74.9c3,0,5.5,2.5,5.5,5.5v58.6
			C106.1,67.2,103.6,69.6,100.6,69.6z"/>
		<path fill="#18252F" d="M54,36.3v-3c2,0,5.2-0.7,7-1.5c0.1,0,2.3-1.1,2.7-3.5l3,0.5c-0.7,4-4.3,5.6-4.4,5.7
			C60.1,35.6,56.4,36.3,54,36.3z"/>
		<path fill="#18252F" d="M66.8,28.4l-3-0.4c0-0.2,0-0.3,0-0.5c0-0.2,0-0.3,0-0.5l3-0.4c0,0.3,0.1,0.6,0.1,0.9
			C66.8,27.8,66.8,28.1,66.8,28.4z"/>
		<path fill="#18252F" d="M63.8,26.7c-0.4-2.4-2.6-3.4-2.7-3.5c-1.8-0.8-5-1.5-7-1.5v-3c2.4,0,6,0.8,8.3,1.8
			c0.2,0.1,3.7,1.7,4.4,5.7L63.8,26.7z"/>
		<path fill="#18252F" d="M88,27.8c-4.2,0-7.6-3.4-7.6-7.6c0-4.2,3.4-7.6,7.6-7.6c4.2,0,7.6,3.4,7.6,7.6
			C95.7,24.4,92.2,27.8,88,27.8z M88,15.6c-2.6,0-4.6,2.1-4.6,4.6c0,2.6,2.1,4.6,4.6,4.6c2.6,0,4.6-2.1,4.6-4.6
			C92.7,17.7,90.6,15.6,88,15.6z"/>
		<path fill="#18252F" d="M130.8,58.2c-2.7,0-4.8-2.2-4.8-4.8V5.1c0-1.3,0.5-2.5,1.4-3.4c0.9-0.9,2.1-1.4,3.4-1.4
			c2.7,0,4.8,2.2,4.8,4.8v48.3c0,1.3-0.5,2.5-1.4,3.4C133.2,57.7,132,58.2,130.8,58.2z M130.8,3.3c-0.5,0-1,0.2-1.3,0.5
			c-0.4,0.3-0.5,0.8-0.5,1.3v48.3c0,1,0.8,1.8,1.8,1.8c0.5,0,1-0.2,1.3-0.5c0.3-0.3,0.5-0.8,0.5-1.3V5.1
			C132.6,4.1,131.8,3.3,130.8,3.3z"/>
		<rect x="90.2" y="33.3" fill="#18252F" width="5.5" height="3"/>
		<rect x="80.4" y="33.3" fill="#18252F" width="5.5" height="3"/>
		<path fill="#18252F" d="M58,36.3H8.2v-3H58c2.9,0,5.3-2.1,5.7-5c0-0.1,0-0.1,0-0.2c0-0.1,0-0.1,0-0.2c0-0.2,0-0.3,0-0.5
			c0-0.2,0-0.3,0-0.5l0-0.2c0-0.1,0-0.1,0-0.1c-0.4-2.8-2.9-5-5.7-5H8.2v-3H58c4.3,0,8,3.2,8.7,7.5c0,0.2,0.1,0.3,0.1,0.5
			c0,0.2,0,0.5,0,0.8c0,0.3,0,0.5,0,0.8c0,0.2,0,0.4-0.1,0.6C66.1,33.1,62.3,36.3,58,36.3z"/>
		<path fill="#18252F" d="M4.8,43.5c-2.7,0-4.8-2.2-4.8-4.8V16.4c0-1.3,0.5-2.5,1.4-3.4c0.9-0.9,2.1-1.4,3.4-1.4
			c2.7,0,4.8,2.2,4.8,4.8v22.2c0,1.3-0.5,2.5-1.4,3.4C7.4,43,6.1,43.5,4.8,43.5z M4.8,14.5c-0.5,0-1,0.2-1.3,0.5
			C3.3,15.3,3,15.8,3,16.4v22.2c0,1,0.8,1.8,1.8,1.8c0.5,0,1-0.2,1.3-0.5c0.4-0.3,0.5-0.8,0.5-1.3V16.4C6.7,15.4,5.9,14.5,4.8,14.5z
			"/>
	</g>
</g>
</svg>
