<?xml version="1.0" encoding="utf-8"?>
<!-- Generator: Adobe Illustrator 23.0.1, SVG Export Plug-In . SVG Version: 6.00 Build 0)  -->
<svg version="1.1" id="Layer_1" xmlns="http://www.w3.org/2000/svg" xmlns:xlink="http://www.w3.org/1999/xlink" x="0px" y="0px"
	 viewBox="0 0 324.9 475.7" enable-background="new 0 0 324.9 475.7" xml:space="preserve">
<g>
	<path fill="#FFFFFF" d="M322.2,261.5v-30.4c0-27.6-40.8-27.6-40.8,0v28.4c0,1.1-0.9,1.9-1.9,1.9h-0.6c-1.1,0-1.9-0.9-1.9-1.9v-49.5
		c0-27.6-52.6-27.6-52.6,0v49.5c0,1.1-0.9,1.9-1.9,1.9h0c-1.1,0-1.9-0.9-1.9-1.9v-68.8c0-27.6-58.2-27.6-58.2,0v68.8
		c0,1.1-0.9,1.9-1.9,1.9h-1.7c-1.1,0-1.9-0.9-1.9-1.9V94.8c0-27.6-58.2-27.6-58.2,0v166.7v20.2l-3,48.5c-0.9,5.2-8.4,6-11.4,1.6
		l-32-46.2C29.2,261-16.6,303.6,6.2,328.2L78,418.8c7.5,9.3,45.2,56.8,92.9,56.8c17.1,0,55-0.6,72-3.6c39-6.8,57.3-42.6,64.7-64.1
		c5.7-16.8,14.8-51.3,16.7-68.9C326.4,319.8,322.2,261.5,322.2,261.5z"/>
</g>
</svg>
