<?xml version="1.0" encoding="utf-8"?>
<!-- Generator: Adobe Illustrator 23.0.1, SVG Export Plug-In . SVG Version: 6.00 Build 0)  -->
<svg version="1.1" xmlns="http://www.w3.org/2000/svg" xmlns:xlink="http://www.w3.org/1999/xlink" x="0px" y="0px"
	 viewBox="0 0 121 121" enable-background="new 0 0 121 121" xml:space="preserve">
<g id="Layer_1">
</g>
<g id="Layer_2">
	<g>
		<g>
			<defs>
				<path id="SVGID_1_" d="M121,60.5c0,33.4-27.1,60.5-60.5,60.5C27.1,121,0,93.9,0,60.5S27.1,0,60.5,0C93.9,0,121,27.1,121,60.5z"
					/>
			</defs>
			<use xlink:href="#SVGID_1_"  overflow="visible" fill="#E74F43"/>
			<clipPath id="SVGID_2_">
				<use xlink:href="#SVGID_1_"  overflow="visible"/>
			</clipPath>
			<path clip-path="url(#SVGID_2_)" fill="#AE3C33" d="M130,83.1L88.4,41.3c0,0-7-4.3-10.8-6.4c-3.6-2-9.4-4.6-9.4-4.6l-6.9-6.9
				c0,0-1,4.2-2.1,5.4c-0.4,0.4-1.5,3.1-2.2,3.1c-2.3,0.1-3.7,0.3-6,1c-7.6,2.2-13,6.2-17.6,12.7c-2.6,3.6-6.7,5.9-7.6,10.3
				c-0.2,0.9,0.1,1.7-0.1,2.6c-0.1,0.6-0.6,3-0.6,3l8.2,8.6c0,0,0,2.9,0,4.4c0,3.8,0,7.7,0,11.5c0,2.8,1.5,6.8,1.5,6.8l36,36
				c0,0,3.2,3.7,5.8,4c2,0.2,4.2,0,6.3,0c7.4,0,14.7,0,22.1,0c6.1,0,12.3,0.2,18.4,0c5.4-0.1,4.2-5.3,4.2-9.5c0-4.1,0-8.1,0-12.2
				C127.7,107.5,130,83.1,130,83.1z"/>
		</g>
		<g>
			<g>
				<g>
					<g>
						<g>
							<path fill="#FFFFFF" d="M85.1,92.8H36c-1.4,0-2.6-1.1-2.6-2.6V68.3c0-1.4,1.1-2.6,2.6-2.6h49.1c1.4,0,2.6,1.1,2.6,2.6v21.9
								C87.7,91.7,86.5,92.8,85.1,92.8z M64.7,90h20.2V68.6H64.7c4.3,1.7,7.3,5.8,7.3,10.7C72,84.2,68.9,88.3,64.7,90z M36.3,90
								h20.2c-4.3-1.7-7.3-5.8-7.3-10.7c0-4.9,3-9,7.3-10.7H36.3V90z M60.6,70.7c-4.7,0-8.6,3.8-8.6,8.6c0,4.7,3.8,8.6,8.6,8.6
								c4.7,0,8.6-3.8,8.6-8.6C69.1,74.6,65.3,70.7,60.6,70.7z"/>
						</g>
					</g>
					<path fill="#FFFFFF" d="M60.2,61.9c1.8-4.2,6.7-5.4,9.2-5.5c4.3-0.1,7.9,2.4,8.9,5.7h0.1c1.1-3.2,4.6-5.7,8.9-5.7
						c3.9,0,7.2,2,8.6,4.8c-0.5-17-14.4-30.8-32.1-32.3L57,29c-17.6,1.7-31.4,15.5-31.8,32.5c1.3-2.9,4.7-5,8.7-5
						c4.3,0,7.9,2.4,8.9,5.7h0.1c1-3.2,4.6-5.7,8.9-5.7C54.2,56.5,59.4,58.1,60.2,61.9L60.2,61.9z"/>
				</g>
				<g>
					<g>
						<rect x="59.9" y="71.7" fill="#FFFFFF" width="1.9" height="15.2"/>
					</g>
					<g>
						<path fill="#FFFFFF" d="M60.6,85.5c-1.2,0-2.6-0.4-3.7-1l0.9-1.7c1.5,0.8,3.3,1,4.1,0.4c0.4-0.3,0.7-0.9,0.6-1.5
							c-0.1-0.7-0.7-1.2-1.7-1.6c-2-0.3-3.4-1.6-3.7-3.3c-0.3-1.5,0.5-2.9,1.8-3.5c2.6-1.3,5,0.4,5.1,0.4l-1.1,1.5l0.6-0.8l-0.6,0.8
							c-0.1,0-1.6-1.1-3.2-0.3c-0.6,0.3-0.9,0.9-0.8,1.5c0.1,0.7,0.7,1.5,2.1,1.7l0.2,0c2.4,0.8,3,2.2,3.1,3.1
							c0.2,1.2-0.3,2.5-1.3,3.3C62.4,85.3,61.6,85.5,60.6,85.5z"/>
					</g>
				</g>
				<g>
					<path fill="#FFFFFF" d="M60.6,31.4c-0.8,0-1.4-0.6-1.4-1.4l0-5.3c0-0.8,0.6-1.4,1.4-1.4c0.8,0,1.4,0.6,1.4,1.4l0,5.3
						C62,30.7,61.3,31.4,60.6,31.4z"/>
				</g>
			</g>
			<g>
				<rect x="59" y="59.4" fill="#FFFFFF" width="2.9" height="7.4"/>
			</g>
		</g>
	</g>
</g>
</svg>
