<?xml version="1.0" encoding="utf-8"?>
<!-- Generator: Adobe Illustrator 22.1.0, SVG Export Plug-In . SVG Version: 6.00 Build 0)  -->
<svg version="1.1" id="Layer_1" xmlns="http://www.w3.org/2000/svg" xmlns:xlink="http://www.w3.org/1999/xlink" x="0px" y="0px"
	 viewBox="0 0 397.3 115.5" style="enable-background:new 0 0 397.3 115.5;" xml:space="preserve">
<style type="text/css">
	.st0{fill:none;stroke:#FFFFFF;stroke-width:0.41;}
	.st1{fill:#007DBB;}
	.st2{fill:#FFFFFF;}
</style>
<polygon points="209.5,63.2 209.5,26.6 212.3,26.6 212.3,60.8 231.7,60.8 231.7,63.2 "/>
<rect x="239" y="26.6" width="2.8" height="36.7"/>
<g>
	<path d="M274.5,59.9c-2.2,2.2-5.4,3.3-9.2,3.3h-12.3V26.6h12.3c3.8,0,7,1.2,9.2,3.3c3.7,3.7,3.6,9.5,3.6,14.5
		S278.2,56.2,274.5,59.9 M272.6,31.9c-2.1-2.2-4.9-2.8-7.9-2.8h-8.9v31.7h8.9c2.9,0,5.8-0.7,7.9-2.8c2.9-3,2.7-9.5,2.7-13.5
		S275.5,34.9,272.6,31.9"/>
	<rect x="288" y="26.6" width="2.8" height="36.7"/>
	<polygon points="326,63.2 304.9,31.4 304.9,63.2 302.1,63.2 302.1,26.6 304.9,26.6 326,58.4 326,26.6 328.8,26.6 328.8,63.2 	"/>
	<path d="M360.9,59.3c-2.4,2.7-5.9,4.2-9.6,4.2c-3.4,0-6.7-1.3-9.2-3.8c-3.3-3.3-3.4-6.6-3.4-14.9c0-8.3,0.1-11.5,3.4-14.9
		c2.4-2.4,5.7-3.8,9.2-3.8c6.4,0,11.4,4.2,12.5,10.7H361c-1.1-5-4.8-8.2-9.7-8.2c-2.6,0-5.1,1-6.9,2.8c-2.6,2.6-2.8,5.5-2.8,13.3
		c0,7.9,0.2,10.7,2.8,13.3c1.9,1.9,4.3,2.8,6.9,2.8c2.9,0,5.7-1.2,7.6-3.6c1.6-2,2.2-4.1,2.2-7.3V47h-9.8v-2.5h12.6v6
		C363.9,54.3,363,57,360.9,59.3"/>
	<path d="M393.9,59.8c-2.4,2.4-5.7,3.8-9.2,3.8c-3.4,0-6.7-1.3-9.2-3.8c-3.3-3.3-3.4-6.6-3.4-14.9s0.1-11.5,3.4-14.9
		c2.4-2.4,5.7-3.8,9.2-3.8c3.5,0,6.7,1.3,9.2,3.8c3.3,3.3,3.4,6.6,3.4,14.9S397.3,56.5,393.9,59.8 M391.7,31.6
		c-1.9-1.9-4.3-2.8-6.9-2.8s-5.1,1-6.9,2.8c-2.6,2.6-2.8,5.5-2.8,13.3s0.2,10.7,2.8,13.3c1.9,1.9,4.3,2.8,6.9,2.8s5.1-1,6.9-2.8
		c2.6-2.6,2.8-5.5,2.8-13.3S394.3,34.2,391.7,31.6 M377.9,18.6h3v4h-3V18.6z M388.6,18.6h3v4h-3V18.6z"/>
	<polygon points="114.1,114.1 114.1,77.4 121.2,77.4 121.2,107.7 137.8,107.7 137.8,114.1 	"/>
	<path d="M164.5,114.1l-2.2-6.5h-13l-2.2,6.5h-7.5L153,77.4h5.6l13.4,36.7H164.5z M155.7,75.3c-3.7,0-6.7-3-6.7-6.7
		c0-3.7,3-6.7,6.7-6.7c3.7,0,6.7,3,6.7,6.7C162.4,72.3,159.4,75.3,155.7,75.3 M156,88.2l-4.6,13.3h9.1L156,88.2z M155.7,65.6
		c-1.6,0-3,1.3-3,3c0,1.6,1.3,3,3,3c1.6,0,3-1.4,3-3C158.7,66.9,157.4,65.6,155.7,65.6"/>
	<path d="M186.6,114.4c-5.6,0-9.8-1.2-13.4-4.8l4.6-4.6c2.3,2.3,5.5,3.1,8.9,3.1c4.2,0,6.5-1.6,6.5-4.5c0-1.3-0.4-2.4-1.1-3.1
		c-0.7-0.7-1.5-1-3.2-1.3l-4.4-0.6c-3.1-0.5-5.5-1.4-7.1-3c-1.7-1.8-2.6-4.1-2.6-7.2c0-6.5,4.8-11.1,12.8-11.1c5,0,8.7,1.2,11.8,4.3
		l-4.5,4.5c-2.3-2.2-5.1-2.5-7.5-2.5c-3.8,0-5.7,2.1-5.7,4.6c0,0.9,0.3,1.9,1.1,2.6c0.7,0.7,1.9,1.2,3.4,1.4l4.3,0.6
		c3.3,0.5,5.5,1.4,7,2.8c2,1.9,2.8,4.5,2.8,7.8C200.2,110.4,194.3,114.4,186.6,114.4"/>
	<path d="M241.9,114.1l-2.7-3.2c-1.7,1.3-4.2,3.5-9.5,3.5c-8.1,0-12.1-4.2-12.1-11.1c0-4.7,3.4-7.7,6.6-9.8
		c-1.5-1.7-3.7-4.3-3.7-7.8c0-5,3.7-8.5,9.8-8.5c5.8,0,9.4,3.7,9.4,8.6c0,2.8-1.5,4.7-3.8,6.4c0,0-1.7,1.3-2.6,1.9l6.2,7.3
		c1.2-1.6,1.7-3.8,1.9-6.4h6.3c-0.3,4.7-1.3,8.5-3.9,11.4l6.6,7.8H241.9z M227.9,97.5c-2.2,1.5-3.7,3-3.7,5.6c0,3,2.5,5.1,5.6,5.1
		c2.2,0,3.8-0.7,5.5-2.2L227.9,97.5z M230.4,82.8c-2,0-3,1.3-3,3c0,1.3,1.1,2.6,2.4,4.1c0.5-0.3,1.5-1,1.5-1
		c1.2-0.8,2.1-1.8,2.1-3.1C233.4,84.1,232.3,82.8,230.4,82.8"/>
	<polygon points="267.9,114.1 267.9,77.4 275.1,77.4 275.1,107.7 291.7,107.7 291.7,114.1 	"/>
	<path d="M318.4,114.1l-2.2-6.5h-13l-2.2,6.5h-7.5l13.3-36.7h5.6l13.4,36.7H318.4z M309.9,88.2l-4.6,13.3h9.1L309.9,88.2z"/>
	<path d="M349.9,114.1l-7.2-14.6h-5.1v14.6h-7.2V77.4h14.4c7.5,0,11.9,5.1,11.9,11.2c0,5.1-3.1,8.3-6.7,9.6l8.2,15.8H349.9z
		 M344.3,83.8h-6.7v9.7h6.7c3.1,0,5.2-2,5.2-4.8S347.4,83.8,344.3,83.8"/>
	<polygon points="390.1,114.1 390.1,92.7 383.1,106.6 378.3,106.6 371.2,92.7 371.2,114.1 364.1,114.1 364.1,77.4 371.1,77.4 
		380.7,97.2 390.2,77.4 397.3,77.4 397.3,114.1 	"/>
	<path d="M107.8,27.2l46.3-26.7l5.1-0.2l4.4,7.6l-2.8,4.3l-8.2,4.7c1.7,3,3.7,4,7.5,1.8l2.7-1.5L178.8,45l-9.5,5.5l-9.4-16.3
		l-1.8,1.1l3.4,5.9l-3.1,1.8l1.7,2.9l-5.3,3.1l-3.3-5.7l-2,1.1l3.3,5.7l-5.6,3.2l-1.7-2.9l-3.1,1.8l-3.4-5.9l-1.8,1l9.4,16.2
		l-9.6,5.5L120.8,41l2.5-1.4c2.2-1.2,3.8-5.1,2.5-7.4l-11.4,6.6l1.6,2.8l-7.8,4.5l-4.4-1.3L83.9,56.5c-1.8,1-2.5,2-3.4,5.2
		c-1.4,4.7-4.9,27.7-10.2,36s-14.2,15.4-17.6,17.6l-6.2-10.7c-9.9,3.7-24.7,4.5-37-3.1l23.6-13.6l0.2-6.3l-1.6-2.8l-12.2-3.3
		L0.5,86.3C-1.2,70.9,5.3,52,24.1,41.1L42,39.3c9.2,5.7,26.3,10.6,34.1,6.1l21.1-12.2l1.6-4.5l7.4-4.3L107.8,27.2z"/>
	<path class="st0" d="M107.8,27.2l46.3-26.7l5.1-0.2l4.4,7.6l-2.8,4.3l-8.2,4.7c1.7,3,3.7,4,7.5,1.8l2.7-1.5L178.8,45l-9.5,5.5
		l-9.4-16.3l-1.8,1.1l3.4,5.9l-3.1,1.8l1.7,2.9l-5.3,3.1l-3.3-5.7l-2,1.1l3.3,5.7l-5.6,3.2l-1.7-2.9l-3.1,1.8l-3.4-5.9l-1.8,1
		l9.4,16.2l-9.6,5.5L120.8,41l2.5-1.4c2.2-1.2,3.8-5.1,2.5-7.4l-11.4,6.6l1.6,2.8l-7.8,4.5l-4.4-1.3L83.9,56.5c-1.8,1-2.5,2-3.4,5.2
		c-1.4,4.7-4.9,27.7-10.2,36s-14.2,15.4-17.6,17.6l-6.2-10.7c-9.9,3.7-24.7,4.5-37-3.1l23.6-13.6l0.2-6.3l-1.6-2.8l-12.2-3.3
		L0.5,86.3C-1.2,70.9,5.3,52,24.1,41.1L42,39.3c9.2,5.7,26.3,10.6,34.1,6.1l21.1-12.2l1.6-4.5l7.4-4.3L107.8,27.2z"/>
	<path class="st1" d="M59.9,81.7L71,75.3L57,51l-11.2,6.4l-9-15.5l4.5-0.4c7.3,4.8,26.4,11.3,35.9,5.8l21.1-12.2l4.5,7.7L82,54.9
		c-3.7,2.1-4.3,7.9-5.2,12.1c-0.9,4.3-3.9,22.5-8.5,29.4L59.9,81.7z"/>
	<polygon class="st1" points="105.4,42.7 99.7,32.9 100.5,30.4 105.3,27.6 112.9,40.8 108.1,43.6 	"/>
	<rect x="107.6" y="15.7" transform="matrix(0.866 -0.5001 0.5001 0.866 7.8822 69.4687)" class="st1" width="51.8" height="8.7"/>
	<polygon class="st1" points="160.1,9.6 155.8,2.2 158.1,2.1 161.3,7.7 	"/>
	<path class="st1" d="M137.9,66L124,41.8c5-2.7,5.7-8,4.1-10.8l22.3-12.9c2.5,4.4,6.3,5,11.4,1.9l13.9,24.2l-5.5,3.2l-9.4-16.2
		l-5.9,3.4l3.4,5.9l-3,1.8L157,45l-1.4,0.8l-3.2-5.5l-6,3.5l3.2,5.5l-1.5,0.8l-1.7-2.9l-3,1.8l-3.4-5.9l-5.9,3.4l9.4,16.2L137.9,66z
		"/>
	<path class="st1" d="M14,101.5l15.3-8.8l12.8,4.2l3.4,5.9C36.1,106.4,23.3,105.8,14,101.5"/>
	<polygon class="st1" points="40.5,94.1 35.5,85.5 35.4,89.2 31.9,91.2 	"/>
	<path class="st1" d="M53.4,111.8l-20.2-35l-14.1-4L2.5,82.4c0.8-18,8.9-31.5,22.7-39.5l9.1-0.9l6.6,11.4c-4.3,2.5-5.8,6.9-4.4,9.3
		L50,86.3c2,3.4,6.7,3.4,10.5,1.2l6.3,10.8C64.1,102.6,59,107.9,53.4,111.8"/>
	<path class="st1" d="M59.5,85.7l-1.6-2.8L52.4,86C53.8,86.7,55.9,87.8,59.5,85.7"/>
	<path class="st1" d="M41.9,55.3l2,3.5l-5.6,3.2C37.1,60,39.7,56.6,41.9,55.3"/>
	
		<rect x="39.2" y="62.7" transform="matrix(0.8655 -0.5009 0.5009 0.8655 -26.2481 28.7788)" class="st2" width="2.5" height="1.1"/>
	
		<rect x="39.2" y="62.7" transform="matrix(0.8655 -0.5009 0.5009 0.8655 -26.2481 28.7788)" class="st0" width="2.5" height="1.1"/>
	<polygon class="st2" points="42.3,68.9 41.6,67.8 43.6,66.1 44.2,67.2 	"/>
	<polygon class="st0" points="42.3,68.9 41.6,67.8 43.6,66.1 44.2,67.2 	"/>
	<polygon class="st2" points="42.3,68.9 41.6,67.8 43.6,66.1 44.2,67.2 	"/>
	<polygon class="st0" points="42.3,68.9 41.6,67.8 43.6,66.1 44.2,67.2 	"/>
	<polygon class="st2" points="44.8,73.3 44.1,72.2 46.1,70.5 46.7,71.6 	"/>
	<polygon class="st0" points="44.8,73.3 44.1,72.2 46.1,70.5 46.7,71.6 	"/>
	<polygon class="st2" points="49.2,81 51.2,79.3 53.5,83.4 51.3,84.6 	"/>
	<polygon class="st0" points="49.2,81 51.2,79.3 53.5,83.4 51.3,84.6 	"/>
	<polygon class="st2" points="47.3,77.7 46.7,76.6 48.7,74.9 49.3,76 	"/>
	<polygon class="st0" points="47.3,77.7 46.7,76.6 48.7,74.9 49.3,76 	"/>
	<polygon class="st2" points="56.2,53.6 52.8,55.5 54.5,58.4 56.2,56.9 58.1,60.1 56.4,61.6 57,62.7 58.7,61.3 60.6,64.5 58.9,66 
		59.6,67.2 61.3,65.7 63.2,69 61.5,70.5 62.1,71.6 63.9,70.1 65.7,73.4 64,74.9 65.1,76.7 68.4,74.8 	"/>
	<polygon class="st0" points="56.2,53.6 52.8,55.5 54.5,58.4 56.2,56.9 58.1,60.1 56.4,61.6 57,62.7 58.7,61.3 60.6,64.5 58.9,66 
		59.6,67.2 61.3,65.7 63.2,69 61.5,70.5 62.1,71.6 63.9,70.1 65.7,73.4 64,74.9 65.1,76.7 68.4,74.8 	"/>
	<polygon class="st1" points="40.1,65.2 47.7,60.8 40.8,66.4 	"/>
	<rect x="42.5" y="58.8" transform="matrix(0.8655 -0.501 0.501 0.8655 -23.3268 31.6851)" class="st1" width="9.6" height="1"/>
	<polygon class="st1" points="45.6,66 45,64.9 52.5,58.5 53.1,59.6 	"/>
	<polygon class="st1" points="48.2,70.3 47.5,69.2 55,62.8 55.6,63.9 	"/>
	<polygon class="st1" points="53.3,79.2 52.6,78.1 60.1,71.7 60.7,72.8 	"/>
	<polygon class="st1" points="50.7,74.7 50.1,73.6 57.5,67.2 58.1,68.3 	"/>
	<polygon class="st1" points="63.5,77.6 62.6,76.1 55.5,82.2 	"/>
	<polygon class="st1" points="54.6,81.4 53.9,80.3 63.4,72.2 64,73.3 	"/>
	<polygon class="st1" points="43.5,71.1 42.9,70 55.7,58.9 56.4,60 	"/>
	<polygon class="st1" points="48.6,79.9 48,78.8 60.8,67.7 61.4,68.8 	"/>
	<polygon class="st1" points="46,75.5 45.4,74.3 58.2,63.3 58.9,64.4 	"/>
</g>
</svg>
