<?xml version="1.0" encoding="utf-8"?>
<!-- Generator: Adobe Illustrator 22.1.0, SVG Export Plug-In . SVG Version: 6.00 Build 0)  -->
<svg version="1.1" xmlns="http://www.w3.org/2000/svg" xmlns:xlink="http://www.w3.org/1999/xlink" x="0px" y="0px"
	 viewBox="0 0 325.5 386.2" enable-background="new 0 0 325.5 386.2" xml:space="preserve">
<g id="Guides_For_Artboard">
</g>
<g id="Layer_1">
	<g>
		<polygon fill-rule="evenodd" clip-rule="evenodd" fill="#FFFFFF" points="0,86.2 111.4,126 209.7,84.5 325.5,124.2 325.5,384.4 
			209.7,344.7 111.4,386.2 0,346.5 		"/>
		<polygon fill-rule="evenodd" clip-rule="evenodd" fill="#E8E2D3" points="111.4,140.1 13.3,105.1 13.3,337.1 111,371.9 
			111.4,371.8 		"/>
		<polygon fill-rule="evenodd" clip-rule="evenodd" fill="#CAC0B3" points="111.4,140.1 111.4,371.8 209.2,330.5 209.7,330.6 
			209.7,98.9 111.8,140.3 		"/>
		<polygon fill-rule="evenodd" clip-rule="evenodd" fill="#E8E2D3" points="209.7,98.9 209.7,330.6 312.2,365.8 312.2,133.7 
			210.2,98.7 		"/>
		<polygon fill-rule="evenodd" clip-rule="evenodd" fill="#FFFFFF" points="13.3,156.5 89.6,254.7 101,240 102.5,238.3 200.8,149 
			205.7,146.1 280.6,122.8 312.2,133.7 312.2,140.7 216.4,170.5 180.1,203.5 214.8,218.2 216,218.7 312.2,271.2 312.2,301.3 
			203.9,242.2 158.6,223 121.1,257.1 49.2,349.9 23.1,340.5 72.9,276.3 13.3,199.7 		"/>
		<polygon fill-rule="evenodd" clip-rule="evenodd" fill="#48A035" points="111.4,269.6 111.4,371.8 209.2,330.5 209.7,330.6 
			209.7,245.3 203.9,242.2 158.6,223 121.1,257.1 		"/>
		<polygon fill-rule="evenodd" clip-rule="evenodd" fill="#84BF61" points="111.4,269.6 49.2,349.9 111,371.9 111.4,371.8 		"/>
		<polygon fill-rule="evenodd" clip-rule="evenodd" fill="#84BF61" points="209.7,245.3 209.7,330.6 312.2,365.8 312.2,301.3 		"/>
		<path fill-rule="evenodd" clip-rule="evenodd" fill="#DD0C15" d="M157.3,0C113.6,0,78,35.6,78,79.3c0,5,0.5,10,1.4,14.9
			c0,0.3,0.2,1.2,0.5,2.7c1.2,5.4,3,10.6,5.3,15.6c8.5,20.1,27.3,51,68.6,84.1c1,0.8,2.3,1.2,3.5,1.2c1.2,0,2.5-0.4,3.5-1.2
			c41.2-33.1,60-64,68.6-84.1c2.3-5,4.1-10.2,5.3-15.6c0.3-1.5,0.5-2.4,0.5-2.7c0.9-4.9,1.4-9.9,1.4-14.9C236.6,35.6,201,0,157.3,0
			L157.3,0z M157.3,119.3c-21.6,0-39.2-17.6-39.2-39.2c0-21.6,17.6-39.2,39.2-39.2c21.6,0,39.2,17.6,39.2,39.2
			C196.4,101.8,178.9,119.3,157.3,119.3z"/>
		<g>
			<path fill-rule="evenodd" clip-rule="evenodd" fill="#DD0C15" d="M62.4,221.3c-18.4,0-33.4,15-33.4,33.4c0,2.1,0.2,4.2,0.6,6.3
				c0,0.1,0.1,0.5,0.2,1.1c0.5,2.3,1.3,4.5,2.2,6.6c3.6,8.5,11.5,21.5,28.9,35.4c0.4,0.3,1,0.5,1.5,0.5c0.5,0,1-0.2,1.5-0.5
				c17.3-13.9,25.3-26.9,28.9-35.4c1-2.1,1.7-4.3,2.2-6.6c0.1-0.6,0.2-1,0.2-1.1c0.4-2.1,0.6-4.2,0.6-6.3
				C95.8,236.2,80.8,221.3,62.4,221.3z"/>
			<path fill-rule="evenodd" clip-rule="evenodd" fill="#FFFFFF" d="M62.4,271.5c-9.1,0-16.5-7.4-16.5-16.5
				c0-9.1,7.4-16.5,16.5-16.5c9.1,0,16.5,7.4,16.5,16.5C78.9,264.1,71.5,271.5,62.4,271.5z"/>
		</g>
		<g>
			<path fill-rule="evenodd" clip-rule="evenodd" fill="#DD0C15" d="M272.9,198.2c-13,0-23.6,10.6-23.6,23.6c0,1.5,0.1,3,0.4,4.4
				c0,0.1,0.1,0.3,0.2,0.8c0.4,1.6,0.9,3.2,1.6,4.6c2.5,6,8.1,15.2,20.4,25c0.3,0.2,0.7,0.4,1,0.4c0.4,0,0.7-0.1,1-0.4
				c12.2-9.8,17.8-19,20.4-25c0.7-1.5,1.2-3,1.6-4.6c0.1-0.4,0.1-0.7,0.2-0.8c0.3-1.5,0.4-2.9,0.4-4.4
				C296.5,208.8,285.9,198.2,272.9,198.2z"/>
			<path fill-rule="evenodd" clip-rule="evenodd" fill="#FFFFFF" d="M272.9,233.7c-6.4,0-11.6-5.2-11.6-11.6
				c0-6.4,5.2-11.6,11.6-11.6c6.4,0,11.6,5.2,11.6,11.6C284.6,228.4,279.4,233.7,272.9,233.7z"/>
		</g>
	</g>
</g>
</svg>
