<?xml version="1.0" encoding="utf-8"?>
<!-- Generator: Adobe Illustrator 22.0.1, SVG Export Plug-In . SVG Version: 6.00 Build 0)  -->
<svg version="1.2" baseProfile="tiny" id="Layer_1" xmlns="http://www.w3.org/2000/svg" xmlns:xlink="http://www.w3.org/1999/xlink"
	 x="0px" y="0px" viewBox="0 0 122.1 95.9" xml:space="preserve">
<g id="XMLID_76_">
	<g>
		<path fill="#3CB9C1" d="M23.3,31.8c2.3,0,4.1,1.9,4.1,4.1c0,2.3-1.8,4.1-4.1,4.1c-2.3,0-4.1-1.8-4.1-4.1
			C19.2,33.6,21.1,31.8,23.3,31.8z"/>
		<rect x="1.5" y="29.2" fill="#3CB9C1" width="9.1" height="24"/>
		<path fill="#FFDB93" d="M53.3,23.5V59h-9.6H17.8h-7.2v-5.7v-24v-5.7H53.3z M27.5,35.9c0-2.3-1.8-4.1-4.1-4.1
			c-2.3,0-4.1,1.9-4.1,4.1c0,2.3,1.8,4.1,4.1,4.1C25.6,40,27.5,38.2,27.5,35.9z"/>
		<rect x="85.5" y="1.5" fill="#FFDB93" width="10.7" height="79.4"/>
		<polygon fill="#3CB9C1" points="85.5,1.5 85.5,80.9 53.4,59 53.4,23.5 		"/>
		<polygon fill="#3CB9C1" points="43.7,59 33,94.4 17.8,94.4 17.8,59 		"/>
	</g>
	<g>
		<path fill="#18252F" d="M10.6,54.7H1.5C0.7,54.7,0,54,0,53.2v-24c0-0.8,0.7-1.5,1.5-1.5h9.1v3H3v21h7.6V54.7z"/>
		<path fill="#18252F" d="M33,95.9H17.8c-0.8,0-1.5-0.7-1.5-1.5V59h3v34h12.6l10.4-34.4l2.9,0.9L34.4,94.8
			C34.3,95.5,33.7,95.9,33,95.9z"/>
		<path fill="#18252F" d="M84.7,82.2l-32.1-22c-0.4-0.3-0.7-0.7-0.7-1.2V23.5c0-0.5,0.2-1,0.7-1.2l32.1-22l1.7,2.5L54.9,24.3v33.9
			l31.5,21.5L84.7,82.2z"/>
		<path fill="#18252F" d="M96.2,82.4H85.5c-0.8,0-1.5-0.7-1.5-1.5V1.5C84,0.7,84.7,0,85.5,0h10.7c0.8,0,1.5,0.7,1.5,1.5v79.4
			C97.7,81.8,97,82.4,96.2,82.4z M87,79.4h7.7V3H87V79.4z"/>
		<path fill="#18252F" d="M23.3,41.5c-3.1,0-5.6-2.5-5.6-5.6c0-3.1,2.5-5.6,5.6-5.6c3.1,0,5.6,2.5,5.6,5.6
			C29,39,26.4,41.5,23.3,41.5z M23.3,33.3c-1.4,0-2.6,1.2-2.6,2.6c0,1.4,1.2,2.6,2.6,2.6c1.4,0,2.6-1.2,2.6-2.6
			C26,34.4,24.8,33.3,23.3,33.3z"/>
		<path fill="#18252F" d="M53.3,60.5H10.6c-0.8,0-1.5-0.7-1.5-1.5V23.5c0-0.8,0.7-1.5,1.5-1.5h42.7c0.8,0,1.5,0.7,1.5,1.5V59
			C54.8,59.8,54.2,60.5,53.3,60.5z M12.1,57.5h39.7V25H12.1V57.5z"/>
		<rect x="109.1" y="38.5" fill="#18252F" width="13" height="3"/>
		
			<rect x="106.3" y="18.5" transform="matrix(0.9051 -0.4252 0.4252 0.9051 2.1913 49.8483)" fill="#18252F" width="13" height="3"/>
		
			<rect x="111.3" y="53.5" transform="matrix(0.4252 -0.9051 0.9051 0.4252 10.4939 136.5552)" fill="#18252F" width="3" height="13"/>
	</g>
</g>
</svg>
