<?xml version="1.0" encoding="utf-8"?>
<!-- Generator: Adobe Illustrator 22.1.0, SVG Export Plug-In . SVG Version: 6.00 Build 0)  -->
<svg version="1.1" id="Layer_1" xmlns="http://www.w3.org/2000/svg" xmlns:xlink="http://www.w3.org/1999/xlink" x="0px" y="0px"
	 viewBox="0 0 566 551.5" enable-background="new 0 0 566 551.5" xml:space="preserve">
<path d="M559.4,254c-5.4,0-12.4,5.9-17.1,6.3c4-6.9,13.4-9.3,18.5-17.2c1.2-2.1,1.9-4.4,1.9-6.7c0-2.3-0.7-4.7-2.5-6.8
	c-1.6-1.6-3.3-2.2-4.9-2.2c-3.5,0-6.8,2.5-10.5,2.5c-0.8,0-1.6-0.1-2.5-0.4c-1.1-1.3-1.6-2.6-1.6-3.9c-0.1-4.5,5.7-9.1,5.8-14.6
	c1.1-8.5,1.1-17,6.2-23.8l0.1-0.1l0-0.1c-2.8-11.3,1.8-27.3-5.7-37.8c-1.6-1.6-3.3-2.2-4.9-2.2c-3.4,0-6.7,2.2-10.3,2.2
	c-0.5,0-1,0-1.5-0.1c-5.4-4.8-0.3-14.5-6.1-19.9c-1.6-1.3-3.1-1.8-4.4-1.8c-4.9,0.1-7.6,6.9-11.9,8.6l-0.2,0.1v0.2
	c0,1,0,2.3-0.2,3.3c-0.2,1-0.6,1.6-1.3,1.6c0,0-0.1,0-0.2,0l0.6-19.7c0.3-1.7,0.4-3.4,0.4-5c0-11.1-5.2-21.3-5.2-32.6
	c0-1.3,0.1-2.6,0.2-4c-1.9-14.7-18.2-6.1-24.6-12.2l-0.1-0.1l-0.2,0c-7.1,1.9-5.4,9.4-9.8,12.6c-1.7,1-4,2-6.2,2
	c-1.4,0-2.6-0.4-3.7-1.4c-0.6-1-0.8-2-0.8-3c0-3.3,2.7-6.7,3.2-9.9c-2.9-8.5-1.7-21.9-13.4-23.2l-0.1,0l-0.1,0.1
	c-3.3,2.1-4.4,4.6-4.4,7.3c0,4.7,3.3,9.9,3.3,14.9c0,0.7-0.1,1.3-0.2,2c0,0.2,0,0.3,0,0.5c0.1,4.8,7.5,6.4,7.4,9.9
	c0,0.7-0.2,1.4-0.8,2.3c-4.2-3.5-11.8-1.5-11.7-7.4c0-0.4,0-0.8,0.1-1.2l0-0.1l-0.1-0.1c-11.3-13.6-10.8-31.2-21.7-45.1l-0.1-0.1
	l-0.1,0c-15.3-0.4-20-22.5-34.3-22.7c-2.4,0-5.1,0.7-8.1,2.2c-1.6,1.4-2.1,2.9-2.1,4.4c0,2.8,1.5,5.7,1.5,8.5c0,0.5,0,1-0.2,1.5
	c-0.3,0.7-0.4,1.4-0.4,2.1c0,3.2,2.6,6.1,2.5,7.9c0,0.7-0.4,1.3-1.8,1.8C362.4,26,365.8,9,350.8,1.4c-2.4,0-5.5-1.4-8.2-1.4
	c-2,0-3.8,0.8-4.8,3.3C337.2,4.9,337,6.5,337,8c0,6,4,11.1,7.2,16.1c2.4,3.8,6,4.4,9.5,4.4c1.4,0,2.8-0.1,4.1-0.1
	c2.6,0,5.1,0.3,7,2.1c0.3,0.6,0.4,1.4,0.4,2.1c0,1.7-0.8,3-2.5,3c-10.8-1.7-21.5-3.4-29.4-11.9c-3.9-3.9-5-10.8-10.4-12.6l-0.2-0.1
	l-0.1,0.1c-2.6,2.6-5.3,3.5-7.9,3.5c-5.7,0-11.6-4.1-17.6-4.2c-3.1,0-6.1,1.1-9.1,4.5c-2.4-1.4-4.7-2-7-2c-5.8,0-11.2,3.3-16.6,3.3
	c-2.3,0-4.6-0.6-7-2.3c-2-0.7-3.8-1-5.5-1c-12.5,0.1-18.4,16.6-30.7,17.5c-3.3-0.5-4.2-1.4-4.2-2.4c-0.1-2.9,7.5-8.3,7.6-13.6
	c0-0.5-0.1-1-0.2-1.5c-1.5-4-5.6-5.5-9.6-5.5c-0.7,0-1.5,0-2.2,0.1c-7.3,5.6-21.9,7.9-22,20.1c0,0.2,0,0.4,0,0.5
	c-4.7,3.1-5.7,12.3-10.2,12.1c-0.9,0-2.1-0.4-3.5-1.3c0-0.4-0.1-0.8-0.1-1.1c-0.1-9.5,10.4-15.6,10.4-25.6c0-1.4-0.2-2.9-0.7-4.5
	c-0.5-1.6-2-3.2-4.4-3.2c-0.4,0-0.7,0-1.1,0.1c-12.5,5.1-31.5,3.4-37.3,19.6c-21.2,17.8-13.2,48.5-34.1,66c-1.6,0.8-3.9,2.5-5.9,2.5
	c-0.8,0-1.5-0.2-2.2-0.8c-0.3-0.9-0.4-1.7-0.4-2.5c-0.1-5.6,7.4-8,8.5-13.7c0.5-3.3,1.3-7.3,1.3-11.2c0-4.8-1.1-9.6-5.4-12.5
	c-1.3-0.5-2.5-0.7-3.6-0.7c-3.2,0-6.1,1.8-8.2,4.8c-0.8,5.4-5.1,12.4-5.1,18.5c0,3.6,1.6,7,6.4,9.3c0.3,1.1,0.5,2.4,0.5,3.7
	c0,3.2-1.3,6.5-2.8,8.9c-0.6,0.1-1.2,0.1-1.7,0.1c-5.7,0-5.6-3.9-5.7-8.6c0,0,0-0.1,0-0.1c0-4.1,0-8.6-4.2-10.8
	c-2.4-1-4.4-1.4-6.2-1.4C63,75.9,63.3,95,55,100.7c-1.1,3.6-1.6,7-1.6,10.2c0,14.4,8.4,26.9,8.3,41.1c0,2.1-0.2,4.3-0.6,6.6
	c-1.7,3.6-1.2,8.9-6,8.9c-1.3-0.8-1.7-1.6-1.7-2.5c0-2.1,2.6-4.7,2.6-7.5c0-0.2,0-0.4,0-0.6c-4-7.3-0.5-18.9-9.8-24.2
	c-1.7-1-3.9-1.5-6.1-1.5c-3,0-6.1,1.1-7.5,4c-1.8,2.6-2.5,5.5-2.4,8.5c0,5.4,2.1,11.1,2.4,16.2c1.3,9,14,6.4,13.8,14.3
	c0,0.5,0,1-0.1,1.6c-2.5,4.7-4.6,6.3-6.5,6.3c-5.4,0.2-10.1-14-18.2-14.1c-1.3,0-2.7,0.4-4.2,1.3c-8.2,4.7-7.6,15.7-8.7,24.2
	c-0.1,0.9-0.1,1.8-0.1,2.7c0,20.3,18.2,33.1,24.7,50.5c0.6,0.7,0.7,1.3,0.7,1.8c0,1.6-2.1,3-3,4.8c-0.6,0.7-0.8,1.3-0.8,1.9
	c0.1,1.5,1.6,2.2,2.3,3c0,0,0,0,0,0c-2,0-3.4,1.7-4.5,1.7c-0.4,0-0.9-0.2-1.4-0.8c-0.1-7.6-7-13.3-12.7-17.3c-1.3-1.3-3.1-1.9-5-1.9
	c-2.4,0-4.9,1.1-6.3,3.1c-0.8,1.7-1.1,3.2-1.1,4.8c0,4.6,2.6,8.8,3.9,12.6c2.4,8.7,12.1,8.2,17.7,11.5c0.2,1.9,0.6,4,0.6,6.1
	c0,2.8-0.6,5.3-2.8,7.2c-1.5,0.8-3,1.1-4.6,1.1c-3.6,0-7.3-1.7-10.5-2.9l-0.1,0l-0.1,0.1c-4,1.8-5.5,4.2-5.5,6.8
	c0,5.6,6.7,12.2,7,17.5c-1.4,2.7-2.4,5.2-2.4,8.5c0,0.7,0,1.5,0.2,2.3c4.7,17.4,24.2,20.8,37.2,27c5,6.2,12.3,12.4,16.3,19.7
	c-0.7,1-1.2,1.3-1.7,1.3c-1.7,0.1-3.7-3.8-6.5-3.8c-9.1,1.2-21.8-1.2-24.8,8.2c-0.1,0.6-0.2,1.2-0.2,1.7c0,4.7,4.1,8.6,7.8,10.6
	c2.5,2.4,5.3,3.3,8,3.3c6.4,0,12.7-5.1,17.9-7.8c4.8,0.6,5.9,5.5,8.2,9c0.8,1,1.2,1.8,1.2,2.5c0.1,2-3,3.5-5.5,3.9
	c-6.4,2.9-12.1,6.9-18.8,8.6l-0.1,0l-0.1,0.1c-0.8,1.7-1.1,3.5-1.1,5.2c0,7.4,6.2,14.1,10.8,19.7c2.2,6.2,6,8,10.3,8
	c5,0,10.8-2.3,16-2.3c0.6,0,1.2,0,1.8,0.1c2.8,1.4,3.7,2.9,3.7,4.6c0,3.6-4.1,8.1-4.1,12.9c0,0.6,0.1,1.1,0.2,1.7
	c4,5.2,10.3,6.6,16.5,6.6c2.9,0,5.8-0.3,8.4-0.7c5.2-0.6,7.6-7.5,12.2-7.4c0.7,0,1.5,0.2,2.4,0.5c3,0,3.8,2.1,3.9,4.4
	c0,1.1-0.2,2.2-0.6,3.1c-4.5,1.1-9.6,1.7-14.2,4c-5.4,3.9-10.4,9.5-10.4,16.1c0,1.2,0.2,2.4,0.5,3.7c5.9,11.1,18,8.2,24.6,16.1
	c3.1,3.4,6.6,4.5,10.3,4.5c6,0,12.4-2.8,18.2-2.8c2,0,4,0.3,5.8,1.2c0,0.2,0.1,0.6,0.1,1c0,2.1-2.1,4.1-3.6,6.5
	c-0.6,1.1-0.8,2.3-0.8,3.5c0,2.8,1.5,5.6,4.4,7.2c1.1,0.5,2.2,0.8,3.4,0.8c2.6,0,5.3-1.1,7.7-1.9c6.4-1.2,9.9-7.6,11-13.4
	c3.2-3.2,7.3-4.5,11.5-4.5c0.7,0,1.4,0,2.1,0.1c0,0.1,0,0.2,0,0.3c0.1,7.9-10.3,12.9-10.4,21.3c0,1.2,0.2,2.5,0.7,3.9
	c3.6,8.2,12.3,6.5,19.1,7.6c1.9,0.4,3.7,0.6,5.4,0.6c19.7-0.1,30.9-24.1,49.9-24c0.3,0,0.6,0,0.9,0v1.2c-13.7,8-23.9,21.2-31.3,34.2
	l-0.1,0.1l0,0.1c0.9,2.6,3.3,3.4,5.4,3.3c0.9,0,1.7-0.1,2.4-0.3c21.3-3.5,24.8-29.7,42.1-36.5c13.3,5,11.1,21.9,19.7,31.8l0.1,0.2
	l0.2-0.1c0.9-0.3,1.8-0.5,2.6-0.5c5.9-0.1,10,7,15.4,7c0.6,0,1.3-0.1,1.9-0.3l0.2-0.1l0-0.2c0.1-0.7,0.1-1.4,0.1-2.1
	c-0.1-10.9-12.2-17.6-14.4-28l1.4-0.9c14.8,3.4,29.5,7.4,43.1,14.2l0.1,0l0.1,0c10.9-1.7,20.6-5.1,31.3-5.1c5.8,0,7.9-3.5,7.9-7.3
	c0-2.7-1-5.6-2.4-7.8c1.8-2.9,2.6-5,2.6-6.7c-0.2-6.8-11.8-5.7-16.4-10c0.3-0.5,0.7-1.1,1.4-1.6c1-0.9,2.4-1.4,3-1.4
	c1.3,0,3.3-0.4,4.8-0.3c2.4,1,4.8,2.4,7,3.3c7.7,1.6,6.7,11,7.2,17.4c1.7,3.9,5.3,8.3,9.8,8.3c0.3,0,0.5,0,0.8,0
	c4.9-1,7.4-5.3,7.4-10c0-1-0.1-1.9-0.3-2.9c-3.6-10-14-8.3-20.7-13.3c-0.9-1.6-2.1-3.8-2.1-5.8c0-1.3,0.5-2.5,2.1-3.4
	c1.6-0.2,3.3-0.2,5-0.2c13.9,0,27.7,5.5,41.2,5.5c5.1,0,10.2-0.8,15.3-3c6.2-7.4,16.5-6.2,22.9-13.8c0.6-1.5,1-3.2,1-4.9
	c0-3.3-1.2-6.7-3.9-8.7c-4.8-7.8-18.9-5-18.7-13.8c0-1,0.2-2.2,0.6-3.6c2.2-2.1,4-2.9,5.5-2.9c5.1-0.1,8.3,9.5,14.6,12.3
	c3,1.2,6.9,2.6,10.6,2.6c3.3,0,6.4-1.1,8.6-4.4c0.7-1.8,1-3.3,1-4.6c-0.2-9.4-16.4-7.2-19.8-13.8c9.5-15.5,33.9-6,47.2-18
	c2.3-12,11.4-21.1,20.5-28.5c1.2-2.1,1.7-4.2,1.7-6.4c0-5.3-3-10.5-6.3-14.6c-4.5-2.7-9.6-3.1-14.5-3.1c-2.7,0-5.3,0.1-7.7,0.2v-1.8
	c1.7-1.7,3.3-3.8,6-3.8c2.5,0.5,5.1,0.8,7.7,0.8c8,0,15.9-2.7,21.6-8.4c0.9-2,1.5-4.2,1.5-6.3c0-2.4-0.7-4.8-2.6-6.7
	c-2.6-1.8-5.5-2.5-8.5-2.5c-5.6,0-11.4,2.2-15.8,3.4c3-9.8,14.1-15.4,19.8-23.9c7.5-9.2,9.7-20.6,17.7-29l0.1-0.1l0.6-24.6
	C564.7,255.7,562.2,254,559.4,254z"/>
<path fill="#00854C" d="M257.4,522.1c-0.1,2.9-3,3.5-5.4,5.6l-0.2-0.2c1-2.1,2-5.8,4.4-5.7C256.5,521.8,256.9,521.9,257.4,522.1z"/>
<path fill="#00854C" d="M222.7,516.5c0,0.1,0,0.2,0,0.3c-0.8-0.4-1.9-0.6-1.7-0.9c0-0.1,0.1-0.3,0.3-0.6
	C222.2,515.8,222.8,515.9,222.7,516.5z"/>
<path fill="#00854C" d="M354.2,515.9c1.3,0,2.4,2.1,2.4,3.7c0,1.6-0.4,2.5-1.9,3.1c-1.1-0.6-2-2.5-2-4.1
	C352.7,517.3,353.2,516.3,354.2,515.9z"/>
<path fill="#FFFFFF" d="M466.4,272.9c0,1.3,0.3,2.6,0.9,3.9c3.4,5.1,10.3,7.4,10.3,13.4c0,0.1,0,0.3,0,0.4c-0.4,0-0.8,0-1.2,0
	c-20.9,0.2-15.6,30.5-32.6,30.2c-2.2,0-4.9-0.5-8-1.6c-15.1-15.7-8.9-39.6-12.9-60.2c-11.6-11.1-29.8-6-44.4-10.4l0.5-1.4
	c22.2-14.7,42.1-35.8,66.6-46c0.1,0,0.2,0,0.4,0c7.2-0.1,10.1,11.6,18,12.5c-0.1,0.5-0.1,1-0.1,1.5c0.1,10.5,13.4,16.2,13.8,26.7
	l0,0.1l0.1,0.1c7.8,8.2,25.9,6.6,25.8,20.1c0,0.8,0,1.6-0.2,2.5c-1.6,2.3-4.2,3.6-7,3.6c-0.9,0-1.8-0.1-2.7-0.4
	c-2.5-5.5-6.6-7.4-10.9-7.4c-3.9,0-7.9,1.5-11.1,3.4C468.4,266.3,466.4,269.5,466.4,272.9z"/>
<path fill="#FFFFFF" d="M420.5,377.5c-0.7,1.3-0.7,2.9-0.7,4.4c0,0.5,0,1,0,1.6c0,2-0.1,3.8-1.3,5.1c-3.1-0.8-6.8-3.5-10.4-3.5
	c-1.6,0-3.1,0.5-4.5,2c-2.3,7.3-9,7.9-13.7,14.3l-0.1,0.1l0,0.1c0,0.7,0,1.3,0,2c0,13.3-5.1,25.2-5.2,38.8l-7.2,2.1
	c1.4-5.1,6.2-11.5,6.2-17.8c0-2.6-0.8-5.2-2.9-7.6c-1.6-1.6-4-4.1-6.5-4.1c-1.1,0-2.2,0.5-3.1,1.8c-4.3,3.8-4.6,9.5-4.6,15.2
	c0,1.3,0,2.5,0,3.8c1,3.4,4.1,5.9,4,9.2c0,0.8-0.2,1.6-0.5,2.5c-1.6,0.5-2.9,0.8-4,0.8c-9.3,0.3-4.4-17.7-14.2-18
	c-1.7,0-3.7,0.5-6.2,1.7c-6.9,8.6-16.7,14.9-18.4,25.9c-2.7,6.4-8.3,10.2-13.6,14c-3.3,0-5.7,0.6-8.7,0.6c-2.1,0-3,0.6-4.3,0.6
	c-1.6,0-2.7-0.5-5-0.6c-0.3,0-0.6,0-0.9,0c-3.5-1.5-7.7-1.9-11.9-1.9c0,0-0.1,0-0.1,0c-4.6,0-9.4,0.4-13.5,0.4
	c-1.8,0-3.4-0.1-4.9-0.3c-1.4-0.9-1.8-2.2-1.8-3.9c0-1.4,0.3-3,0.3-4.5c0-1-0.1-2-0.5-2.8c-2.4-7.4-12.7-6.1-12.5-12.4v0l31.1,19.8
	l0.2-0.1c31.3-23.9,67.8-38.2,95.3-69.1c16-17.1,31.9-33.6,51.3-45l0.4-0.2l-0.3-0.3c-27.3-25-40.4-59.3-71.9-82.7
	c-2.2-3.1-7.7-3.9-7.6-7.4c0-0.4,0.1-0.7,0.2-1.2c40.1,6.4,52,50,78.8,75.7l0.2-0.2c0,0,0,0,0,0l-0.2,0.3l12.3,6.7
	c-0.5,1.5-0.7,2.9-0.7,4.4c0,4.4,1.7,8.9,1.7,13c0,3.2-1,6.2-4.7,8.9C429.9,369.8,422.3,370.4,420.5,377.5z"/>
<path fill="#00854C" d="M309.3,475.1c-2.5,2.1-4.8,4.3-6.4,7.1c-0.7-2.7-1.9-4.7-3.4-6.4c0.3,0,0.6,0.1,0.9,0.1c2.1,0,3-0.6,4.3-0.6
	C306.4,475.3,307.9,475.2,309.3,475.1z"/>
<path fill="#FFFFFF" d="M257.4,332.1l8.8-7.6l-2.1-1.4L264,323l-0.2,0.1c-28.3,17.2-59.2,32.1-94,32.1c-4.5,0-9-0.2-13.6-0.8
	c-14.3-2.3-29.1-3.4-42.7-9.1l-0.2-0.1l-1.7,2.2c0.4-1.9,1.9-4,1.9-6c0-1.2-0.6-2.5-2.2-3.4l-1.7-1.1l-0.1-0.1l-0.1,0
	c-7,2-8.9,13.1-14.3,12.9c-1.4,0-3.1-0.7-5.2-2.4c2.7-4.2,9-8.6,9.1-14.6c0-0.3,0-0.5,0-0.8c-4.2-4.8-9.9-4.8-13.8-8.7l-0.4-0.4
	l-0.2,0.5c-0.8,2.3-2.1,2.9-3.7,2.9c-1.9,0-4-1.1-5.6-2c-0.9-1.1-1.2-2.2-1.2-3.3c0-3.1,3.1-5.9,3.6-8.9
	c23.4,23.2,53.8,37.6,85.8,37.6c11.7,0,23.6-1.9,35.5-6c25.7-7.4,51.3-25.6,65.1-49.6c11.7,1.7,21.9,7.3,32.6,10.7
	c-0.1,16.9-10.2,30.4-22.1,42.3l-0.2,0.2l2,2l51.7,0.6c0.1,0.8,0.1,1.7,0.1,2.5c0,10.7-5.8,20-13.2,28.3
	c-8.3,8.7-19.2,13.1-31.3,13.1c-3.6,0-7.4-0.4-11.2-1.2c-9.6-2.8-19.2-10.7-23.2-20.9c-1.4-3.8-2-7.6-2-11.5
	C247.4,350.3,251.6,340.3,257.4,332.1z"/>
<path fill="#FFFFFF" d="M136.6,140c0-0.5,0-1-0.1-1.5c0.1-0.5,0.2-1,0.2-1.5c-0.1-5.8-9-8.5-8.8-12c0-0.8,0.4-1.7,1.6-2.8
	c0.5-1.9,3.9-3.8,3.9-6.7c0-0.5-0.1-1.1-0.4-1.7c-0.4-1.5-1-3.1-1-4.6c0-0.7,0.1-1.3,0.5-2c3.6-1.4,7.6-1.7,11.6-1.7
	c3,0,6,0.2,9,0.2c3.3,0,6.6-0.2,9.9-1.1c7.9,2.6,16.7,3.7,25.3,3.7c4.6,0,9.1-0.3,13.5-0.9c3.3-2.6,4.6-6.5,4.6-10.5
	c0-3.5-1-6.9-2.6-9.4c-1.8-4.7-7.9-5.3-7.9-10c0.8-0.8,1.6-1.1,2.5-1.1c1.7,0,3.6,1.3,5.5,1.8c1.8,8.6,9.9,13.7,17.2,17.1
	c0.5,0.1,0.9,0.1,1.2,0.1c2.4,0,3.9-1.6,5.4-3.1c0.3-1.2,0.4-2.1,0.4-3.1c0-6.2-4.6-10.8-9.7-12.8c-3.3-2.6-11.2,0.2-11-3.6
	c0-0.5,0.1-1,0.3-1.7c1.6-1,3.1-1.5,4.5-1.5c6.1-0.1,10.7,8.8,17.3,10.8c4.4,1.4,8.9,2,13.5,2c10.4,0,20.8-3.4,29.5-8.9
	c6-2.5,6.8-7.7,6.8-13c0-1.9-0.1-3.9-0.1-5.7c0.1-6,0.9-10.9,9.6-12c1.2,1.1,1.5,2.3,1.5,3.7c0,1.6-0.4,3.2-0.5,4.9
	c0,1.2,0.2,2.3,1.1,3.3l0,0c6.8,8.4,8.5,23.4,22.4,25.2c17.7-2.3,35.9-3.4,50.8-13.1l1.6,0.5c0.1,0.3,0.2,0.8,0.2,1.2
	c0.1,2.5-3.6,4.8-6.5,6.2c-0.2-0.1-0.5-0.1-0.9-0.1c-4.2,0-6.9,3.3-9.5,6.4l-0.1,0.1l0,0.1c1.2,11.1,11.6,14.5,19.5,20.7
	c1.8,0.6,3.5,0.8,5.1,0.8c5.3,0,10.3-2,15.2-2c1.9,0,3.9,0.3,5.8,1.2c0,0.2,0,0.3,0,0.5c0.2,5-10.6,6.8-10.8,13.4
	c0,1.1,0.3,2.4,1.1,3.7c3.3,3.3,7.5,5.5,11.8,5.5c2.4,0,4.8-0.7,7.1-2.2c0.7,8.4,5.3,15.7,13.1,20.7c3.1,21,27.8,11.8,40.1,20.3
	c-15.3,5.7-32.8,15.4-46.9,29.5c-16.4,18.7-37.3,35.7-59.3,42.6c2.9-24.3,14.3-48.6,34.1-67.8l0.3-0.3l-0.3-0.2
	c-1.5-1.1-3.1-1.6-4.8-1.6c0,0,0,0,0,0c-4.4,0-9.2,2.8-13.7,3.2c-20.6,10.3-41.7,19.4-63.4,26.2l-0.4,0.1l0.2,0.3
	c4,7.6,7,16.2,7,24.7c0,2.2-0.2,4.3-0.6,6.5c-6-5.9-16.5-3.8-23.6-7.6c-17.1-7.4-39.8-18.8-44.3-39.1c-0.5-2.9-0.8-5.8-0.8-8.7
	c0-13.2,5.4-25.3,16.6-33.2c6.2-5.5,14.2-8.1,22.2-8.1c6,0,12.1,1.4,17.4,4.1c11.6,7.4,18.6,19,18.6,31.9c0,2.9-0.3,5.8-1.1,8.8
	l-5.3,11.2l0.5,0c0.5,0,1.1,0,1.6,0c8.7,0,17.3-4.3,25.3-7.5c19.1-13.6,41.7-20.9,65.1-20.9c3.2,0,6.3,0.1,9.5,0.4l0.1,0l1.8-1.8
	l0.2-0.2l-0.2-0.2c-24-32-57.1-52-91.4-65.7l-32.6-24.1l-0.2,0.1c-31.3,21.6-64.9,37.6-96.9,58.1c-0.3,0-0.6,0-0.9,0
	c-6.6,0-12,5.5-14.2,11.1c-1.7,8.4-17.8,8.1-17.9,17c0,1.6,0.5,3.5,1.8,5.7c-4.3,1.1-9.1,1.9-13.9,1.9c-2.5,0-5.1-0.2-7.5-0.8
	c0.1-0.5,0.2-1,0.2-1.4c0-1.4-0.6-2.4-1.4-3.7l-0.2-0.3l-0.3,0.2c-4.1,3.2-8.5,4.1-13,4.1c-4.9,0-9.9-1.1-14.7-1.4
	c-0.1,0-0.3-0.1-0.4-0.1c-2.2,0.1-3.6,3.2-5.9,3.1c-0.3,0-0.5,0-0.8-0.1c-0.2-0.6-0.2-1.3-0.2-1.9c0-4.8,4.9-8.5,7.9-10.6
	c3.3,4.1,7.6,6.7,12.4,6.7c1.8,0,3.6-0.4,5.5-1.1C133.7,151,136.6,145.4,136.6,140z"/>
<path fill="#FFFFFF" d="M98.3,213.4c11.4-18.2,29.5-29,50-30.7c0.9,0.1,2,0.1,3,0.1c1.9,0,3.9-0.1,6-0.1c6.9,0,13.7,0.8,16.4,7.2h0
	c8.6,21.7,22.9,41.1,37.7,60.5l0.9,1.4l13.3,16.2c-2.9,20.9-19.9,39.6-39.2,49.3c-8.6,2.4-17.9,3.8-27.3,3.8
	c-20.8,0-41.8-6.5-56.2-21.4c-10-13.1-15.2-30.2-15.2-47.1C87.6,238.7,91.1,224.9,98.3,213.4z"/>
<path fill="#FFFFFF" d="M84.8,187.4c2.8-10.9,16.5-21.8,28.1-24c2.6,0.5,6.3,0.6,9,2C109.7,172.5,96.5,177.6,84.8,187.4z"/>
<path fill="#00854C" d="M308.1,539.4c-0.7,0.3-1.3,0.4-1.9,0.4c-3.2,0-5.8-3.8-7.2-6.7l-3.7-12.8C302,524.8,305.3,532.3,308.1,539.4
	z"/>
<path fill="#FFFFFF" d="M198.7,444c0.1-1,0.2-1.9,0.2-2.9c0-15.3-15.1-23.6-22.5-35.8l-11.6-3.6c-2.1-1.6-5-8.5-9.2-8.6
	c-1.2,0-2.4,0.5-3.6,1.8c-2.6,4.6-6.5,8.8-6.5,14.6c0,0.5,0,1.1,0.1,1.7c-4.6-1.6-5.3-4.9-5.3-8.9c0-1.8,0.2-3.6,0.2-5.4
	c0-4.4-1-8.6-7.4-10.1c-0.2-0.4-0.3-0.9-0.3-1.6c0-2.3,1.4-5.6,1.4-8.4c0-2.1-1-3.9-3.9-4.3l-4.1-7.7c25.3,25.1,55.8,37.6,84.2,56.9
	c-3.4,1.2-8.2,2.9-9.3,7.4c-0.7,2.8-1.2,5.9-1.2,9.1c0,1.8,0.2,3.7,0.6,5.5H198.7z"/>
<path fill="#00854C" d="M196.8,519.9c1.8,0.1,2.4,1.9,3.4,3.5c-0.3,0.1-0.5,0.1-0.7,0.1c-1.2,0-2.2-1.3-3.5-2.3L196.8,519.9z"/>
<path fill="#00854C" d="M208.3,523c-2.1-1.2-5.3-3.8-5.2-6.4c0-0.2,0-0.4,0.1-0.6C205.7,517.7,208.1,520.2,208.3,523z"/>
<path fill="#00854C" d="M348,519.7l-0.5,3.7c-0.4,0.1-0.7,0.2-1.1,0.2c-2.1,0-4.3-2.1-5.7-4l1.6-4.2
	C345.3,515.4,346.4,517.9,348,519.7z"/>
<path fill="#00854C" d="M344.4,11.4c2.3,0.6,2.9-1.7,2.9-3.4c-1.1-2.9-6.3-1.7-5.7,1.7C342.1,10.8,343.2,11.4,344.4,11.4z"/>
<path fill="#00854C" d="M164.7,43.9c2.3-11.4,13.7-20,16.5-31.4c-2.3-6.8-8-0.6-11.4,2.3c-17.7,0.6-24.5,20-33.1,32.5
	c4,3.4,8-6.3,12.5-6.3c0.6,4-3.4,7.4-5.1,11.4c-15.7,1.1-14.9,19.3-19.2,29.7l8.3-19.4C137.9,48.4,156.7,56.4,164.7,43.9z M155,34.8
	c0.6,1.7-1.7,2.3-2.3,3.4h-1.1C152.2,37,152.7,34.2,155,34.8z"/>
<path fill="#00854C" d="M215.5,23.3c2.3-1.1,4-3.4,4.6-6.3c1.1-4.6-5.1-5.1-8-4.6c-2.3,1.1-5.7,4-5.1,7.4
	C208.6,23.3,212.1,23.9,215.5,23.3z"/>
<path fill="#00854C" d="M397.4,34.2c4,6.3,8,15.4,17.7,10.3c11.4,1.7,0,14.3,9.7,17.7c1.7-1.1,2.9-2.9,2.3-4.6
	c-6.8-7.4-4.6-18.3-13.1-24.5c-10.3-6.8-19.4-16.5-31.4-21.1c-1.1,4.6-1.7,9.1-1.7,14.3C384.9,31.9,392.9,29.1,397.4,34.2z"/>
<path fill="#00854C" d="M354.7,22.8c2.9,0.6,3.4-2.3,4-4c0-2.9-3.4-4.6-6.3-4.6c-1.7,1.1-4,2.9-2.9,5.1
	C349.5,21.6,352.4,23.9,354.7,22.8z"/>
<path fill="#00854C" d="M318.2,44.5c10.8,10.3,30.2,6.8,42.8,2.9c-3.4-5.7-10.8,1.7-16.5-3.4c-8,0.6-15.4-2.9-21.7-6.8
	c-1.1-1.1-2.9-3.4-0.6-4.6c8.6,3.4,17.7,10.8,27.4,5.7C338.1,35.3,329,25.1,321,16.5c-0.6,5.7-7.4,5.7-10.8,1.7
	c-4.6-2.3-11.4-2.9-16,1.1c-1.7,5.1,1.7,10.8,4,16C303.9,40.5,310.2,45,318.2,44.5z"/>
<path fill="#00854C" d="M209.8,45.6c15.4,16,42.2,10.8,61,4c4.6-10.3,25.1-16.5,13.7-28.5c-9.7-7.4-18.8,5.1-29.1-2.9
	c-15.4,6.8-29.7,16-44.5,23.4L209.8,45.6z M250.3,26.8c1.7,2.3-1.1,5.1-3.4,5.1h-1.1C244.6,30.2,246.3,25.1,250.3,26.8z M231.5,41
	c10.3-1.7,20.5-5.1,29.1-10.8l4,1.1c-9.1,7.4-20.5,10.8-32.5,12.5C230.9,43.3,231.5,42.2,231.5,41z"/>
<path fill="#00854C" d="M202.4,30.2c2.3-1.1,4.6-1.7,3.4-4.6c-1.7-2.3-4-5.1-7.4-5.1l-3.4,5.1C195.5,28.5,199.5,30.2,202.4,30.2z"/>
<path fill="#00854C" d="M200.7,36.5c-1.7-1.7-5.7-1.7-6.8,0.6h0.6C196.7,38.2,199.5,37.6,200.7,36.5z"/>
<path fill="#00854C" d="M376.3,65.6c1.1,6.3,8.6,5.7,13.1,5.7c6.3,0,2.3,7.4,5.7,10.3c4,1.7,9.1,1.1,13.7,0.6
	c8-0.6,14.3,7.4,21.7,5.1l-1.1-3.4c-13.7-12.5-28.5-23.4-44.5-30.2c-0.6-1.1-1.1-3.4,0.6-4.6c5.1,0.6,9.1,8,14.8,3.4
	c-0.6-1.7,0-4.6-0.6-6.3c-1.7-5.1-4.6-10.8-10.8-10.8l-3.4,8c-5.1,1.7-8.6-4.6-14.3-3.4C358.7,47.9,379.2,55.3,376.3,65.6z"/>
<path fill="#00854C" d="M173.3,47.3c-8,2.3-13.1,13.7-23.4,9.7c-8.6,4.6-13.7,13.7-13.7,22.8c14.8-4,28.5-9.7,42.2-17.1h5.7
	c-14.3,11.4-35.9,14.3-49.6,27.4l1.7,1.7c10.8,0,21.7-1.1,29.1-8.6h14.3c7.4-4.6,13.7-13.1,22.8-17.1c2.9-5.1,5.1-10.8,4-16.5
	l-2.9-5.1C192.7,42.7,184.1,47.3,173.3,47.3z"/>
<path fill="#00854C" d="M297.6,43.9c-7.4,12.5,9.1,20.5,13.7,30.8c9.1,3.4,16.5-2.9,24-6.8c-0.6-9.1-12.5-1.1-17.7-7.4l1.7-5.7
	C315.3,47.3,305,47.3,297.6,43.9z"/>
<path fill="#00854C" d="M407.7,58.7c2.9,4,6.8,9.7,11.4,9.7c-1.7-5.7,2.3-17.7-7.4-19.4C408.8,51.3,407.1,54.7,407.7,58.7z"/>
<path fill="#00854C" d="M449.3,58.7c1.1,0,2.3-1.1,2.3-2.3c-0.6-1.1-1.7-2.9-3.4-2.9C445.9,55.3,447.1,58.1,449.3,58.7z"/>
<path fill="#00854C" d="M265.7,67.8c3.4-0.6,5.1-4,5.7-7.4l-1.1-2.9c-3.4,2.3-10.8-1.1-12,4.6C260,65,261.7,68.4,265.7,67.8z"/>
<path fill="#00854C" d="M102,69c3.4,0,5.1-4,4.6-6.8c-0.6-7.4-9.1-2.3-8.6,1.7C97.4,66.7,98.6,69.5,102,69z"/>
<path fill="#00854C" d="M215.5,60.4c1.7,4,6.3,5.1,10.3,7.4v-1.7C224,62.7,219.5,57,215.5,60.4z"/>
<path fill="#00854C" d="M259.4,68.4c-2.3-2.3-4-6.3-7.4-6.8l-1.7,2.9c0.6,3.4,2.9,6.3,6.3,7.4C257.7,71.8,259.4,70.1,259.4,68.4z"/>
<path fill="#00854C" d="M232.6,66.7c0.6,3.4,2.9,5.7,5.1,8.6c4,0,9.1,0.6,12.5-1.7c-0.6-4-4.6-8.6-8.6-9.7
	C242.9,73,236,65,232.6,66.7z"/>
<path fill="#00854C" d="M342.7,64.4l-0.6,2.9c0.6-0.6,1.7,0,2.3-0.6C345,65,343.2,65,342.7,64.4z"/>
<path fill="#00854C" d="M449.9,66.7c-1.7,0-1.7,2.3-1.1,3.4c2.3,0.6,3.4,1.1,5.1-0.6C455,67.3,452.2,66.1,449.9,66.7z"/>
<path fill="#00854C" d="M425.4,74.1c0.6,2.3,2.9,3.4,5.1,4c2.3,0,2.3-2.3,1.7-4.6C433.9,66.7,423.7,69,425.4,74.1z"/>
<path fill="#00854C" d="M100.8,79.2c1.1-0.6,4-1.7,2.9-4c-1.1-4-6.8-1.7-8,1.1C95.7,79.2,99.1,78.7,100.8,79.2z"/>
<path fill="#00854C" d="M389.4,92.4c-0.6-4-3.4-6.8-7.4-6.8c-1.1-2.9,5.1-4,3.4-8c-2.9-4.6-9.1-2.3-14.3-2.8c-5.1,4-12,5.1-16.5,8.6
	l0.6,1.1c9.7,5.7,14.8,18.3,28.5,12C386,95.8,389.4,95.2,389.4,92.4z"/>
<path fill="#00854C" d="M484.7,103.8l1.1-5.1l10.8,9.7c2.3-6.3-5.7-10.3-6.3-15.4c4.6,1.1,4.6-4.6,3.4-6.8
	c-1.1-10.3-12.5-4.6-17.1-10.3c-2.9,2.3-2.9,6.3-2.9,9.7C481.3,90.1,474.4,102.6,484.7,103.8z"/>
<path fill="#00854C" d="M66.6,124.3c5.1-5.1,6.8-13.1,8-20c1.7,4,1.7,8.6,4.6,10.8c3.4-3.4,5.7-7.4,6.3-12c-4-6.8-1.7-16-8-21.1
	c-12,1.1-5.1,15.4-14.3,20C66.1,109.5,55.2,122.6,66.6,124.3z"/>
<path fill="#00854C" d="M210.9,83.2c0.6,0,1.7,0.6,1.7-0.6C212.1,82.7,210.4,82.1,210.9,83.2z"/>
<path fill="#00854C" d="M217.8,88.4c1.1,2.3,2.9,3.4,5.1,2.9c1.1-0.6,3.4-1.7,2.9-3.4C224.6,83.2,218.3,84.9,217.8,88.4z"/>
<path fill="#00854C" d="M197.8,92.4l1.1-1.1c-0.6-1.7-0.6-4.6-3.4-4.6C193.8,88.4,195.5,91.8,197.8,92.4z"/>
<path fill="#00854C" d="M439.6,116.3c-1.1,9.1,10.3,8.6,16,13.1c2.9,4-5.1,6.3-1.7,10.3c4,2.9,9.7,2.3,13.7,1.7
	c10.8,4.6,16,16,21.1,25.1c-2.9,7.4-9.1-2.9-15.4-1.1c6.3,2.9,11.4,6.3,16,12c5.1,6.3,4.6,16,0.6,22.8c-3.4,8.6-12,14.3-21.7,14.3
	c-0.6,13.7,18.8,12.5,18.8,26.2c4.6,1.7,10.3,2.9,14.3-1.1c1.7-2.3-0.6-4-2.3-5.1c-1.7-8-9.7-13.1-16-18.3c-2.9-8.6,6.3,1.1,8.6-4.6
	c2.9-2.3-1.7-5.1,0-7.4c1.7-0.6,2.9,1.1,4,1.7c12,5.1-5.7,10.8,1.7,17.1c10.8,1.1,14.8,13.7,18.8,21.7c2.8-16.5-4-31.9-6.3-47.3h1.7
	c5.1,13.7,6.8,28.5,10.3,42.8c0.6-8,7.4-13.1,6.3-21.1c-13.1-6.3,7.4-15.4-1.1-24.5c-2.3-1.1-4.6,0-6.8,0.6
	c-8.6-3.4,1.7-12.5-2.9-19.4c-1.1-5.1-6.8-5.1-10.3-2.3c-5.1-2.3-7.4-8-10.8-12c-1.1-9.1,6.8-17.7,1.1-26.8
	c-21.1,4.6-1.7-19.4-13.1-25.7c-19.4,12-1.7-19.4-16.5-20.5c-3.4-1.1-5.7,1.7-6.8,4.6c-6.8,5.7-9.7-8-17.1-4.6
	C423.1,95.8,453.3,108.3,439.6,116.3z M488.1,145.4c0.6,4,4.6,7.4,3.4,11.4c-8-16-18.8-31.9-30.2-47.3
	C472.7,118,480.1,133.4,488.1,145.4z"/>
<path fill="#00854C" d="M194.4,98.6l0.6-2.9c-1.1-3.4-6.8-9.7-9.7-5.1C187,94.1,189.3,100.9,194.4,98.6z"/>
<path fill="#00854C" d="M176.1,92.9c1.1,2.3,4,5.7,6.8,5.7c1.7-0.6,0.6-2.3,1.1-4C183.5,91.8,176.1,86.1,176.1,92.9z"/>
<path fill="#00854C" d="M395.7,91.2c0.6-1.1-1.1-1.1-1.7-1.7l0.6,2.3C395.2,91.8,395.7,91.8,395.7,91.2z"/>
<path fill="#00854C" d="M422,92.9c-2.3-2.3-4.6-2.9-7.4-3.4l-0.6,1.7C415.7,94.1,419.7,92.4,422,92.9z"/>
<path fill="#00854C" d="M175,96.4c-1.1-2.9-4.6-4.6-6.8-6.3l-1.1,2.9c1.1,2.3,3.4,5.1,6.3,5.7C174.4,98.1,173.8,96.9,175,96.4z"/>
<path fill="#00854C" d="M78,123.7c-10.3,8-3.4,23.4-4.6,35.4l2.3-1.1c7.4-12.5,13.7-25.7,23.4-37.1h3.4l-17.7,28.5
	c-2.3,5.1-8,11.4-5.1,16.5l10.3-9.7c5.7-5.1,14.8-6.3,19.4-10.8c-1.1-2.9-1.1-8,0-10.8c2.9-7.4,10.8-9.1,16.5-9.7
	c4-8-4.6-15.4-1.7-24.5c-7.4-15.4-17.1,3.4-27.4,2.9C86,107.2,89.4,122,78,123.7z"/>
<path fill="#00854C" d="M163.6,94.6c-0.6-1.1-2.9,0-2.3,1.1h2.3V94.6z"/>
<path fill="#00854C" d="M154.5,96.4c-1.1-1.7-4.6-1.1-5.1,0.6c1.1,0.6,1.7,1.7,2.9,1.7C152.7,97.5,155,98.1,154.5,96.4z"/>
<path fill="#00854C" d="M135.1,98.1l0.6,0.6c1.7,0.6,4,0,4.6-1.7C139.1,94.6,135.6,95.8,135.1,98.1z"/>
<path fill="#00854C" d="M405.4,103.2l1.1,2.3l24.5,5.1c1.1,0,3.4-1.7,2.9-3.4c0.6-2.3-2.3-3.4-3.4-4.6
	C422.5,99.8,411.7,96.4,405.4,103.2z"/>
<path fill="#00854C" d="M396.3,119.2c1.7-0.6,3.4-1.7,2.9-4c-1.7-1.7-3.4-2.9-5.7-2.3c-1.7,1.1-4.6,1.7-4,4.6
	C391.2,119.7,394,119.7,396.3,119.2z"/>
<path fill="#00854C" d="M498.4,120.3c0.6-2.3-1.1-5.7-4.6-6.3l-0.6,2.3C494.4,118,495.5,122,498.4,120.3z"/>
<path fill="#00854C" d="M411.1,124.3c0,7.4,8,14.8,14.8,18.3c-0.6,2.9-3.4,7.4,0.6,9.1c11.4,2.9,24,4.6,34.8,6.8
	c1.7-5.7-5.7-6.8-8.6-9.7c-4-5.7-6.3-12-7.4-19.4c-4.6-1.1-9.1-4-12-8.6C424.8,115.2,420.3,127.2,411.1,124.3z"/>
<path fill="#00854C" d="M493.3,125.4l0.6,2.3c0.6-0.6,1.7-1.1,1.1-1.7C495,125.4,493.8,125.4,493.3,125.4z"/>
<path fill="#00854C" d="M518.9,143.1c1.7,0,3.4-1.7,3.4-3.4c-0.6-2.9-2.3-5.7-5.1-5.7c-2.3,1.1-2.9,4-2.9,6.8
	C515.5,142,516.6,143.7,518.9,143.1z"/>
<path fill="#00854C" d="M41.5,150c3.4-1.1,6.3-4.6,5.1-8.6c-1.1-1.7-2.9-5.7-5.7-4c-2.9,1.7-4.6,4.6-4.6,8
	C36.4,148.3,39.2,151.1,41.5,150z"/>
<path fill="#00854C" d="M519.5,156.8c2.9,0,4-2.9,3.4-5.7c-1.7-2.3-4-4-7.4-4c-1.7,0.6-2.9,2.3-2.3,4.6
	C513.2,154.5,516.6,157.4,519.5,156.8z"/>
<path fill="#00854C" d="M42.1,161.4l2.3,0.6c2.9,0,4.6-2.9,5.1-5.7c0-1.1-1.7-1.1-2.9-1.7C43.8,155.1,41,158.5,42.1,161.4z"/>
<path fill="#00854C" d="M544,161.4l0.6-0.6c0.6-2.3-1.1-5.1-3.4-5.7C538.3,157.4,542.3,160.8,544,161.4z"/>
<path fill="#00854C" d="M510.9,164.8c1.1-0.6,1.7-1.7,1.7-2.9c0-1.7-2.3-3.4-4-3.4v2.3C509.2,161.9,508.7,164.8,510.9,164.8z"/>
<path fill="#00854C" d="M542.3,170.5l0.6-0.6c-2.3-4.6-4-10.3-9.1-10.8l-0.6,2.3C534.9,165.4,537.7,169.9,542.3,170.5z"/>
<path fill="#00854C" d="M534.3,175.6c1.1-0.6,1.7-2.3,1.7-3.4c-2.3-2.9-8-13.7-11.4-5.7C528.1,169.4,529.8,174.5,534.3,175.6z"/>
<path fill="#00854C" d="M42.1,200.2c-10.8,10.8,1.7,24,3.4,35.4c10.3-13.1,18.2-27.9,30.2-39.9c-5.1-5.1-3.4-13.1-3.4-20l-2.9-5.1
	c-11.4-1.7-13.7,13.7-24,14.3C42.1,188.8,41,195,42.1,200.2z M59.8,195c1.7,4,1.1,10.8,0.6,16h-1.1L59.8,195z"/>
<path fill="#00854C" d="M522.9,187c6.8-2.9,10.8,6.8,14.8,8c0-6.8-5.7-13.1-9.1-19.4c-1.7-1.1-4-2.9-6.3-1.1
	C520.6,177.9,520.1,183.6,522.9,187z"/>
<path fill="#00854C" d="M23.8,220.7c1.1,1.7,4,2.3,5.7,0.6c-0.6-7.4,2.3-16.5-5.7-21.7c2.3-2.3,5.1-0.6,7.4,0.6
	c2.8-0.6,4.6-1.1,5.1-4c-2.3-8-5.7-14.3-10.8-20.5c-14.8-3.4-4.6,14.8-10.3,21.7C19.9,204.7,18.7,213.9,23.8,220.7z"/>
<path fill="#00854C" d="M542.9,187.6l1.1-1.1c0-1.7-0.6-4.6-3.4-5.1C539.5,183.6,541.2,186.5,542.9,187.6z"/>
<path fill="#00854C" d="M536,207.6c-0.6-0.6-0.6-2.3-1.7-1.7l1.7,2.9V207.6z"/>
<path fill="#00854C" d="M31.8,231c1.1,0.6,1.7,1.7,3.4,1.1c1.1,0,1.7-1.1,1.1-2.3C37,226.4,30.7,227.5,31.8,231z"/>
<path fill="#00854C" d="M544.6,240.1c1.1,2.3,2.9,4,5.1,4.6c4,0,7.4-4,7.4-8c-0.6-3.4-4-3.4-6.8-3.4
	C548,234.4,544,236.1,544.6,240.1z"/>
<path fill="#00854C" d="M36.4,245.8c1.7-2.9,5.1-4.6,6.3-7.4c0-3.4-6.3-4.6-7.4-1.1C38.1,239.5,35.8,243.5,36.4,245.8z"/>
<path fill="#00854C" d="M522.3,242.4c-0.6,2.3,0.6,5.1,2.3,5.1L522.3,242.4z"/>
<path fill="#00854C" d="M542.9,247.5c-0.6-2.3-1.7-4.6-4-5.1l-2.3,4.6c-1.1,2.3,1.7,2.9,2.9,3.4
	C541.7,249.8,542.3,249.2,542.9,247.5z"/>
<path fill="#00854C" d="M11.3,254.9c1.7-1.1,2.9-2.3,2.3-4.6c0-4.6-8-4.6-6.3,0.6C7.3,252.6,9.6,254.9,11.3,254.9z"/>
<path fill="#00854C" d="M533.2,272.6c-9.1,1.1-5.1-9.7-8-14.3c-13.1-15.4-14.8,13.1-26.2,14.8c-8,8,8.6,21.1-4.6,24.5
	c6.8,9.7,3.4,24-2.3,32.5l4,2.3c1.1,7.4-4,13.1-6.8,17.7h4c13.1-13.1,16.5-30.8,21.1-47.3h1.1c1.7,12-5.7,22.8-8,34.2l1.1,2.8
	l17.7-17.7c1.1-2.3,0-4.6-2.3-6.3c-2.9-7.4,8-10.3,10.3-17.1c2.9-4-1.7-5.7-4.6-7.4c-1.7-4.6,2.9-8,5.1-11.4
	C535.5,277.7,536.6,273.2,533.2,272.6z"/>
<path fill="#00854C" d="M17,262.3c1.7-1.1,2.3-2.3,2.9-4c-1.7-2.9-5.1,0.6-4.6,2.9C15.9,261.8,16.4,262.3,17,262.3z"/>
<path fill="#00854C" d="M64.3,341.6c-5.7-20-18.3-37.6-20.5-59.3c-0.6-1.7,0.6-3.4,2.3-3.4c3.4,5.1,5.7,10.8,5.7,17.7
	c3.4,12,6.3,25.1,15.4,34.2c0-8,5.1-14.3,7.4-21.7c-15.4-14.8-22.2-34.8-39.9-48.5c-3.4,0,0.6,2.3,0,4c-0.6,4,0,9.1-4.6,11.4
	c-4.6,5.7,1.1,10.8,4.6,15.4c4.6,6.3-4.6,9.7-3.4,15.4c6.3,5.7,9.1,13.1,10.3,21.7c8,2.3,13.7,9.7,21.1,14.3L64.3,341.6z"/>
<path fill="#00854C" d="M553.1,262.3L552,264c0,1.7,1.7,2.9,2.9,3.4c1.1-0.6,2.3-1.7,1.7-2.9C555.4,263.5,554.3,262.3,553.1,262.3z"
	/>
<path fill="#00854C" d="M489.3,293.7l0.6-4h3.4c1.7-5.1-1.1-10.8-1.7-16.5c-0.6-7.4-9.7-10.8-16-6.3c-14.3,9.1,9.7,12.5,4,23.4
	L489.3,293.7z"/>
<path fill="#00854C" d="M546.3,268c1.7,5.1,5.1,12,8.6,16l1.1-0.6C555.4,278.3,552.6,269.7,546.3,268z"/>
<path fill="#00854C" d="M544.6,283.4c1.7-0.6,1.7-1.7,1.7-2.9c0.6-2.3-1.1-3.4-2.9-3.4C540,278.9,542.9,282.9,544.6,283.4z"/>
<path fill="#00854C" d="M537.2,286.9c-2.3,1.1-0.6,4,1.1,5.1c1.1,0,2.9,0,2.9-1.7C541.2,288.6,539.5,286.3,537.2,286.9z"/>
<path fill="#00854C" d="M30.7,323.9c2.3,1.7,4-1.1,4-3.4c-0.6-4-5.1-5.7-8-7.4c-2.3-4-2.9-11.4-0.6-15.4c-1.7-8.6-11.4-3.4-17.1-6.3
	c-4.6,4.6,4,8,3.4,13.1c0.6,6.8-6.8,13.1-0.6,19.4c5.7,4.6,12.5,11.4,19.4,10.3c-4-6.3-12.5-11.4-10.3-20
	C25.6,315.4,25,322.2,30.7,323.9z"/>
<path fill="#00854C" d="M544.6,298.3c-1.7,0.6-3.4,3.4-1.1,5.1c1.1,1.1,2.3,0,3.4-1.1C548,300.5,547.4,297.7,544.6,298.3z"/>
<path fill="#00854C" d="M539.5,310.2c1.1-1.1,0-2.3-1.1-2.3c-1.1,0-2.9,2.3-0.6,3.4C538.3,311.4,539.5,310.8,539.5,310.2z"/>
<path fill="#00854C" d="M79.2,333.1c0-1.7-1.7-2.3-2.9-2.9c0,1.7,1.1,4,2.9,4V333.1z"/>
<path fill="#00854C" d="M91.7,337.6c1.1-0.6,2.9-1.7,1.7-2.9c-0.6-3.4-8.6-5.1-7.4,0C87.2,337.1,89.4,337.1,91.7,337.6z"/>
<polygon fill="#00854C" points="76.3,338.8 74.6,338.8 76.3,339.9 "/>
<path fill="#00854C" d="M542.3,339.9c-2.3,0.6-5.1,1.7-4.6,4.6c0,2.3,1.7,4,4,4c2.3-1.1,4.6-2.3,5.1-4.6
	C546.3,341.6,544,341,542.3,339.9z"/>
<path fill="#00854C" d="M443.1,345.6c-0.6,11.4,5.1,22.2,7.4,33.1l2.9,2.9c5.1-2.3,2.9-8.6,6.3-11.4l7.4,2.8
	c4.6-1.7,2.9-7.4,3.4-11.4c-0.6-4-6.8-5.7-4.6-10.3c2.9,0.6,4,6.3,8,5.7c8.6-0.6,3.4-9.7,5.1-14.8
	C468.2,346.2,455,347.9,443.1,345.6z"/>
<path fill="#00854C" d="M52.9,349c1.1-1.7,0.6-3.4-1.1-4C51.2,346.2,51.2,349,52.9,349z"/>
<path fill="#00854C" d="M528.1,349.6l1.7,0.6c1.1-1.1,4-0.6,2.9-2.9C532,343.3,526.3,346.2,528.1,349.6z"/>
<path fill="#00854C" d="M127.7,420.9c-0.6-0.6-0.6-0.6-1.1-0.6c3.4-16.5-15.4-24.5-13.7-40.5c-1.7-1.1-2.3,1.1-4,1.1
	c-4,1.7-9.1,1.7-11.4-2.9c-2.9-5.1,0.6-10.3,2.9-14.8c-5.7-9.1-17.1-9.7-25.1-14.8c-17.1,2.3-1.1,20.5-8,30.2
	c4,6.8,18.8,9.1,12.5,19.4c6.3,9.7,22.8,5.7,26.2,20c1.7,0.6,5.7,1.1,4,4C115.7,423.7,123.7,424.9,127.7,420.9z M124.2,419.2
	c-3.4,0-6.8-3.4-6.8-7.4C119.7,414,123.7,415.8,124.2,419.2z M87.2,380.4l-4.6-10.8c10.8,8.6,15.4,21.1,25.7,31.4
	c2.9,1.7,6.3,6.3,8.6,9.7C104.8,404.4,95.1,391.2,87.2,380.4z"/>
<path fill="#00854C" d="M115.1,353.6c-2.3,3.4-6.3-6.3-10.8-2.3c4,8,10.3,17.1,18.8,20c0-2.3-0.6-5.1-1.7-7.4
	C125.4,361,118,356.4,115.1,353.6z"/>
<path fill="#00854C" d="M485.3,410.1c2.3-8.6,13.1-8,18.8-13.1c3.4-5.7-5.1-4-4.6-9.7c5.1-6.3,17.1-6.8,16.5-16.5
	c-7.4-1.1-9.7-8.6-7.4-15.4c-7.4-12.5-14.8,9.1-26.2,5.1c-13.7,1.7-1.1,23.4-17.7,20.5c-5.7,0-4.6,6.3-4,10.3
	c-9.1,11.4-12,25.7-18.8,38.2c2.9,0,8-3.4,9.7,1.7c2.9,4.6-0.6,9.1-2.9,13.1c1.7,0,2.9-1.7,4-2.9c16-1.7,17.1-24,33.7-25.1
	C488.1,414,485.3,412.3,485.3,410.1z M457.3,425.5c6.8-10.3,16.5-18.3,23.4-29.1c3.4-4.6,4.6-12,9.1-14.8
	C485.3,398.1,471.6,413.5,457.3,425.5z"/>
<path fill="#00854C" d="M105.4,362.7c-1.1,1.7,2.3,3.4,2.9,2.9V365C108.3,363.9,107.1,362.1,105.4,362.7z"/>
<path fill="#00854C" d="M51.2,371.8c-0.6-2.3-1.7-3.4-4-4c-2.3,0.6-4,2.9-4,5.7c0,2.3,2.9,2.3,4,2.9
	C48.9,375.8,51.2,374.1,51.2,371.8z"/>
<path fill="#00854C" d="M530.9,369c-1.7,4,3.4,6.8,1.1,10.8c-4-1.7-4-8-8-9.1c-2.9,4,0.6,7.4,0,10.8c-1.1,1.7-2.3-0.6-4.6,0
	c-1.1,1.1-1.7,2.9-1.1,4.6c0.6,2.3,1.7,5.7,5.1,5.7c1.7-0.6,1.7-2.9,2.9-4.6l4,1.7c3.4-0.6,4.6-4,6.3-6.3
	C534.3,378.1,535.5,370.7,530.9,369z"/>
<path fill="#00854C" d="M441.9,369.6l-1.1,1.1c1.7,6.3,4,12,6.8,17.1C448.8,381,446.5,374.1,441.9,369.6z"/>
<path fill="#00854C" d="M33,373.6c0.6,1.7,2.9,3.4,4.6,2.3c1.1-0.6,2.3-1.7,1.7-2.9C39.2,369.6,33,369.6,33,373.6z"/>
<path fill="#00854C" d="M427.7,375.8c-2.3,0.6-2.9,2.9-2.9,5.1c0,1.1,1.1,3.4,2.9,2.9c1.7,0,4-1.7,3.4-3.4
	C431.7,377.5,429.4,376.4,427.7,375.8z"/>
<path fill="#00854C" d="M513.8,391.2c2.9,4,0,12.5,5.7,12c0.6-6.8-5.1-12.5-8-17.7C507.5,387.2,512.1,389.5,513.8,391.2z"/>
<path fill="#00854C" d="M446.5,401.5c-5.1-3.4-0.6-10.8-5.1-14.3c-6.8,13.7-6.3,30.8-9.7,45.1C440.8,424.9,444.8,412.9,446.5,401.5z
	"/>
<path fill="#00854C" d="M431.1,392.9c1.7-0.6,2.3-2.3,2.3-3.4c-1.7-0.6-5.7,0.6-4.6,3.4H431.1z"/>
<path fill="#00854C" d="M400.9,442.6c8-10.3,21.1-19.4,19.4-32.5c-6.3-5.1-2.9-13.7-9.1-18.3c-4.6-2.9-5.1,4-6.8,5.7
	c-13.7,1.1-11.4,16-11.4,25.1c-1.7,7.4-6.3,17.1,0,23.4C396.3,446.6,398.6,444.3,400.9,442.6z M406,422c-1.1,8-4.6,16-10.3,21.1
	C398,436.3,400.9,427.7,406,422z"/>
<path fill="#00854C" d="M422.5,427.2c6.3-4.6,5.7-13.7,6.3-21.1c0.6-4.6-4-7.4-7.4-9.1c0,7.4,8.6,10.8,5.7,19.4
	C426.5,420.3,420.8,423.2,422.5,427.2z"/>
<path fill="#00854C" d="M509.8,397.5l-1.1,1.7c-1.7,4.6,0,10.3,4.6,12.5l1.7-1.7C514.4,405.5,514.9,399.2,509.8,397.5z"/>
<path fill="#00854C" d="M160.7,431.2c4.6,0.6,12,1.1,12-5.1c5.7-2.9,5.1,6.8,9.7,5.1c1.7-2.9,1.7-7.4,0-9.7
	c-2.9-17.1-22.8-7.4-26.8-22.2c-5.1,2.3-5.1,8-5.1,13.1C153.3,419.2,152.7,428.3,160.7,431.2z"/>
<path fill="#00854C" d="M70,418.6c-1.7-0.6-5.1-2.9-2.9-5.1c9.1,0.6,18.3,5.1,27.4,2.3c-2.3-6.3-9.1-3.4-13.7-6.3
	c-5.7-1.7-7.4-10.8-14.3-9.7c-6.3,2.9-12,7.4-18.8,8.6c-0.6,6.8,7.4,6.3,10.8,9.7c2.9,3.4,0.6,10.3,6.8,10.8
	c8.6-1.1,18.3-1.1,24.5-5.7C84.3,420.3,76.3,420.9,70,418.6z"/>
<path fill="#00854C" d="M503,406.1l-1.1,1.7c0.6,2.9,1.7,5.1,5.1,5.7c1.1-0.6,1.1-1.7,1.1-2.9C506.9,408.3,505.2,406.1,503,406.1z"
	/>
<path fill="#00854C" d="M492.1,406.6v3.4c1.1,1.7,3.4,5.1,6.3,5.1c1.7,0,1.1-2.3,1.1-3.4C498.4,408.9,495.5,405.5,492.1,406.6z"/>
<path fill="#00854C" d="M371.8,422c-0.6,1.1-0.6,5.1,2.3,4.6c1.1-1.1,2.9-2.3,2.9-4C377.5,420.3,372.9,419.2,371.8,422z"/>
<path fill="#00854C" d="M218.9,444.3c2.3-4.6,5.7-8.6,5.7-13.7c-2.9-3.4-6.8-6.3-11.4-6.8C216.6,430,217.8,437.4,218.9,444.3z"/>
<path fill="#00854C" d="M177.3,478.5c-2.9-3.4,2.9-5.1,1.1-8c-12.5-6.3-25.1-15.4-33.7-27.9l1.1-0.6c5.1,2.9,10.3,8,14.8,12.5
	c8,4.6,18.3,18.8,25.1,6.8c-1.7-5.1-7.4-7.4-11.4-10.3c-4.6-8.6-10.8-18.8-22.2-18.3l-6.8-8c-6.3,1.1-13.7,1.1-19.4,5.7
	c-6.3,8.6,8,15.4,5.1,25.7c2.9,5.7,8.6,9.1,15.4,7.4c7.4-1.7,6.8,6.8,6.8,11.4C158.5,481.4,169.9,480.2,177.3,478.5z"/>
<path fill="#00854C" d="M208.1,437.4c1.7,0,4.6-0.6,4-3.4c1.1-4-4-5.7-6.3-2.3C205.2,433.4,205.2,436.9,208.1,437.4z"/>
<path fill="#00854C" d="M108.3,443.1c1.7-4,8.6,0,10.8-3.4c-1.1-1.7-2.3-2.3-4-2.9c-5.7-1.1-13.7-8.6-17.7-0.6
	c6.8,2.9,3.4,13.7,10.8,14.3V443.1z"/>
<path fill="#00854C" d="M446.5,434c-6.8,6.3-16.5,1.1-24.5,2.9c-11.4,0-13.7,17.7-26.8,16c-4.6,7.4-9.1,16-12.5,24.5l24-19.4
	c-0.6,10.8-14.8,16.5-23.4,21.7c1.7,4,6.3,3.4,9.1,4.6c6.3-3.4,16.5-6.8,16-15.4l5.1,1.7c5.7,3.4,11.4-1.1,14.3-5.7
	C428.2,452.3,446.5,446.6,446.5,434z"/>
<path fill="#00854C" d="M187,453.4l-1.7-2.3l-1.1-6.3c-5.7-2.9-7.4-13.1-14.3-8.6C176.7,440.9,179,450,187,453.4z"/>
<path fill="#00854C" d="M249.1,472.8c5.1-0.6,3.4-5.7,6.8-8c4.6-8.6-6.3-6.8-9.1-10.8c-2.3-7.4-9.1-16-17.1-17.7
	c-2.3,5.7-11.4,10.8-7.4,18.3C225.8,467.1,238.9,469.9,249.1,472.8z"/>
<path fill="#00854C" d="M341.5,467.1c4.6-0.6,9.7,9.7,13.1,1.1c2.3-2.9,4.6-6.8,2.3-10.3c-8.6-1.1-8-10.8-10.3-16l-5.1,2.9
	c-11.4,1.7-4.6,14.8-10.8,20.5C333.6,468.2,338.1,466.5,341.5,467.1z"/>
<path fill="#00854C" d="M210.9,445.4c-5.1-6.8-5.7,6.3-12.5,4C202.4,455.7,207.5,447.1,210.9,445.4z"/>
<path fill="#00854C" d="M483,445.4c-1.1,1.1-2.3,3.4,0,4c2.3,0.6,3.4-1.1,5.1-1.7C489.8,443.1,484.7,442.6,483,445.4z"/>
<path fill="#00854C" d="M88.9,449.4c1.1,1.7,2.8,2.3,4,2.9c1.7-0.6,4-0.6,2.9-2.9C96.3,444.3,88.9,445.4,88.9,449.4z"/>
<path fill="#00854C" d="M384.9,447.1c-13.3-1.7-15.3,12.2-21.6,20.3c1.1-1.1,2.4-1.3,3.3-0.4c0.6,2.3-1.7,4-2.9,6.3
	c10.8-2.9,18.3-14.3,22.8-24L384.9,447.1z"/>
<path fill="#00854C" d="M440.2,461.4l2.9,4.6c4,1.7,3.4-4,5.7-4c4,3.4,2.9,10.8,8.6,10.8c2.3-7.4-2.3-14.8-6.3-20
	C447.1,455.1,442.5,456.8,440.2,461.4z"/>
<path fill="#00854C" d="M461.3,463.1c1.1,3.4-0.6,8.6,3.4,9.7c2.3-4-1.1-8.6-2.9-12L461.3,463.1z"/>
<path fill="#00854C" d="M216.1,483.6c11.4,5.7,24,10.3,36.5,13.7l-2.3-1.7c-5.1-10.3-14.8-21.1-27.4-22.2c-5.7-3.4-8-12-15.4-10.3
	c-5.1,2.3-12,1.1-17.1,5.7c-5.7,8,4.6,13.1,5.1,20c6.8,4.6,13.7,12,22.8,10.3c2.9,2.3,5.7,6.8,10.3,6.3c8-2.3,17.1-5.7,25.6-2.9
	c-13.7-4.6-28.5-8-39.3-17.7L216.1,483.6z"/>
<path fill="#00854C" d="M129.9,479.6c1.7-1.1,2.8-1.7,4.6-1.1c2.9,0,3.4-3.4,2.3-5.1c-5.7-8-21.1-10.3-27.9-1.7
	c-11.4,21.7,23.4,4.6,21.7,23.4c2.9,3.4,7.4,1.1,10.3,0C143.1,488.8,132.8,484.2,129.9,479.6z"/>
<path fill="#00854C" d="M437.4,473.9c-3.4,1.7-0.6,5.7,0.6,8c1.1,1.1,4,1.7,4.6,0C443.1,479.1,440.8,475.1,437.4,473.9z"/>
<path fill="#00854C" d="M447.1,474.5l-0.6,2.9c0,1.7,1.1,4,3.4,4.6c1.1-1.1,1.7-2.3,1.7-3.4C450.5,476.8,449.9,473.9,447.1,474.5z"
	/>
<path fill="#00854C" d="M427.1,477.9c0.6,1.7,1.7,2.9,3.4,2.9C432.8,478.5,428.2,473.9,427.1,477.9z"/>
<path fill="#00854C" d="M269.7,485.3c-1.7-6.8-10.3-10.3-16.5-6.8c1.7,5.1,5.1,9.7,8.6,13.1C263.4,488.8,270.8,491.6,269.7,485.3z"
	/>
<path fill="#00854C" d="M354.1,478.5c-4,3.4-9.7,4.6-14.8,4c-18.3-2.3-33.1,12-46.8,21.7c5.1,0.6,9.7-1.7,15.4-0.6
	c13.1-1.1,25.1-8.6,37.1-7.4c-12,9.1-29.1,10.3-45.1,10.8c9.1,4,20,4.6,29.7,6.3c8-11.4,23.4,3.4,31.4-9.1
	c-3.4-12,14.8-12,14.3-21.1C371.8,472.2,360.9,481.9,354.1,478.5z"/>
<path fill="#00854C" d="M287.9,479.6c-1.7,2.3-5.7,2.9-5.1,5.7c0,2.3,2.3,2.8,4,3.4c2.3,0,6.8-2.3,6.3-5.1
	C293.1,480.8,290.2,479.6,287.9,479.6z"/>
<path fill="#00854C" d="M143.1,485.9c-1.1,1.7,1.1,4.6,3.4,4v-1.1C145.3,487.6,144.8,485.9,143.1,485.9z"/>
<path fill="#00854C" d="M175,491.6c-3.4,1.7-10.3,1.7-9.1,6.8c0.6,1.7,2.9,2.9,4,2.9c8-4,18.3-2.3,23.4-10.3
	C188.1,487.1,180.7,491.6,175,491.6z"/>
<path fill="#00854C" d="M274.8,492.8c-3.4,0-5.1,3.4-5.1,6.3c1.7,4.6,6.8,5.1,10.3,4.6l1.1-5.7C280.5,495,278.8,491.1,274.8,492.8z"
	/>
<path fill="#00854C" d="M367.2,507.6c0,4.6,1.1,9.7,5.1,12c4,0,2.3-5.1,2.9-7.4C374.1,509.3,369.5,499.6,367.2,507.6z"/>
<path fill="#00854C" d="M209.8,509.3c-1.7-1.1-4-4.6-6.3-1.7c2.3,7.4,8.6,14.3,14.3,19.4v-6.3C214.3,517.9,210.9,513.9,209.8,509.3z
	"/>
<path fill="#00854C" d="M172.1,507v2.3c0.6-0.6,1.7,0,2.3-0.6C173.8,507.6,173.8,506.5,172.1,507z"/>
<path fill="#00854C" d="M377.5,507c-1.7,2.9,1.1,6.8,2.9,7.4v-1.7C380.3,510.4,381.5,505.9,377.5,507z"/>
<path fill="#00854C" d="M401.4,509.9c0.6,0.6,1.1,1.7,2.3,1.1c1.1,0,1.7-1.1,1.7-2.3C404.3,505.9,401.4,508.7,401.4,509.9z"/>
<path fill="#00854C" d="M161.9,511l-0.6,2.3c1.1-0.6,2.3,0,2.9-0.6C164.7,511,163,511,161.9,511z"/>
<path fill="#00854C" d="M229.2,513.3c0.6,0.6,1.1,1.1,2.3,1.1c0.6,0,1.1-1.1,1.1-1.7C232,509.9,228.6,511,229.2,513.3z"/>
<path fill="#00854C" d="M359.8,518.4c1.1,1.1,2.3,3.4,4.6,3.4c1.7,0,2.3-1.7,1.7-2.9C367.8,513.3,358.7,511.6,359.8,518.4z"/>
<path fill="#E30613" d="M180,162.8l0.1,0c14.2,2.3,26.1,9.7,38.8,13.1l0.3,0.1l0-0.4c1.7-14.8,5.7-29.6,16.5-40.9
	c11.5-11.5,26.5-17.2,42.6-17.2c5.4,0,10.9,0.6,16.4,1.9c22.1,3.4,35.7,27.8,39.1,47.1l0.1,0.3l0.3-0.1
	c19.5-5.2,35.4-17.1,55.3-21.1l0.2-0.5c-18.9-21.2-44-32.6-68-43.4l-0.1,0.3l0.1-0.3c-10.2-4.5-19.3-13.1-29.7-17.7l-0.1-0.1
	l-0.1,0.1c-29.7,12.6-58.2,26.8-84.5,48c-1.3,0.8-2.5,2.6-2.5,4.6c0,0.8,0.2,1.7,0.7,2.5c0,5.5-3.9,10.5-8.4,13.3
	c-1.4,0.9-2.7,1.2-4.1,1.2c-3.3,0-6.8-1.9-10.2-1.9c-2,0-4,0.7-5.7,3L177,155v0.1c0,2.9,1.2,5.3,2.9,7.6L180,162.8z"/>
<path fill="#E30613" d="M187.1,190.7l-0.4,0.4c8,21.2,22.3,40.6,38.8,58.3l0.5-0.2C224.9,224.6,210.6,200.5,187.1,190.7z"/>
<path fill="#E30613" d="M406.8,348.8c-9.1-10.8-16.5-22.2-23.9-34.2c-20.6-36.6-62.3-44-83.8-81l-0.1-0.1l-0.1,0L264.1,221l-0.4,0.4
	c5.7,13.7,15.3,26.2,26.1,37c-6.2,7.3-12.4,14.1-17,22.1l-0.1,0.3l0.3,0.2c20,12.6,43.4,17.1,60.4,34.2c9.2,10,13.6,23.5,13.6,37.4
	c0,4.1-0.4,8.3-1.2,12.5c-2.8,16.4-18.2,32.3-34,38c-6.7,3-14,4.3-21.3,4.3c-13.7,0-27.6-4.6-38.3-11.7
	c-13-10.2-19.3-24.9-23.8-38.6l-0.1-0.3l-0.3,0.1c-23.3,8.5-51.8,11.4-76.9,11.4l-0.2,0.5c39.4,37.1,89.6,50.3,131.8,81l0.1,0.1
	l0.2-0.1c46.8-21.1,92.5-56.5,123.9-100.5l0.1-0.2L406.8,348.8z"/>
</svg>
