<?xml version="1.0" encoding="utf-8"?>
<!-- Generator: Adobe Illustrator 22.1.0, SVG Export Plug-In . SVG Version: 6.00 Build 0)  -->
<svg version="1.1" id="Layer_1" xmlns="http://www.w3.org/2000/svg" xmlns:xlink="http://www.w3.org/1999/xlink" x="0px" y="0px"
	 viewBox="0 0 103.5 106" enable-background="new 0 0 103.5 106" xml:space="preserve">
<g id="XMLID_40_">
	<g>
		<g id="XMLID_1_">
			<g>
				<path fill="#FFFFFF" d="M62.5,90.8c-0.5,0.2-1,0.3-1.5,0.3v-7.6c0.5,0.2,1.1,0.3,1.5,0.5c0.5,0.2,0.9,0.4,1.2,0.7
					c0.3,0.3,0.6,0.6,0.8,1c0.2,0.4,0.3,0.9,0.3,1.5c0,0.6-0.1,1.2-0.3,1.7c-0.2,0.5-0.5,0.9-0.8,1.2C63.4,90.4,63,90.6,62.5,90.8z"
					/>
				<path fill="#FFFFFF" d="M59.3,73.4v7c-0.5-0.1-1-0.3-1.4-0.5c-0.4-0.2-0.8-0.4-1.1-0.7c-0.3-0.3-0.5-0.6-0.7-0.9
					c-0.2-0.4-0.3-0.8-0.3-1.3c0-1.2,0.3-2,1-2.6C57.5,73.8,58.3,73.5,59.3,73.4z"/>
				<path fill="#FFFFFF" d="M100.5,24.1V103H43.2V24.1c0-3.4-1.5-6.4-3.8-8.5h22.4h30.2C96.7,15.6,100.5,19.4,100.5,24.1z
					 M90.9,63.5v-3H53.5v3H90.9z M90.9,55.2v-3H53.5v3H90.9z M90.9,46.8v-3H53.5v3H90.9z M90.9,38.4v-3H53.5v3H90.9z M90.8,92.2v-3
					H75.7v3H90.8z M90.8,82.8v-3H75.7v3H90.8z M90.8,74.2v-3H75.7v3H90.8z M67.9,28.8v-3H52.8v3H67.9z M67.5,86.9
					c0-0.9-0.2-1.7-0.5-2.4c-0.3-0.7-0.8-1.2-1.3-1.7c-0.5-0.4-1-0.8-1.6-1s-1-0.4-1.4-0.5l-1.8-0.5v-7.4c1.8,0.3,3,1.5,3.4,3.5h2.6
					c-0.4-1.8-1.1-3.2-2-4.2c-1-1-2.3-1.6-3.9-1.8v-2h-1.7v2c-0.9,0.1-1.7,0.3-2.4,0.6s-1.4,0.8-2,1.3c-0.5,0.5-1,1.2-1.3,2
					c-0.3,0.8-0.5,1.6-0.5,2.5c0,0.9,0.1,1.6,0.4,2.3c0.2,0.6,0.6,1.1,1.1,1.6c0.5,0.4,1.1,0.8,1.9,1.1c0.8,0.3,1.7,0.6,2.8,0.8v8
					c-1.2-0.2-2.2-0.7-3-1.5c-0.8-0.8-1.2-1.8-1.3-3.2h-2.5c0.1,2.1,0.8,3.8,2,5c1.2,1.2,2.8,1.9,4.8,2.1v2.5h1.7v-2.5
					c1-0.1,1.8-0.3,2.7-0.6c0.8-0.3,1.5-0.8,2.1-1.3c0.6-0.6,1-1.2,1.4-2C67.4,88.8,67.5,87.9,67.5,86.9z"/>
				<rect x="53.5" y="60.5" fill="#18252F" width="37.4" height="3"/>
				<rect x="53.5" y="52.2" fill="#18252F" width="37.4" height="3"/>
				<rect x="53.5" y="43.8" fill="#18252F" width="37.4" height="3"/>
				<rect x="53.5" y="35.4" fill="#18252F" width="37.4" height="3"/>
				<rect x="75.7" y="89.2" fill="#18252F" width="15.1" height="3"/>
				<rect x="75.7" y="79.8" fill="#18252F" width="15.1" height="3"/>
				<rect x="75.7" y="71.2" fill="#18252F" width="15.1" height="3"/>
				<rect x="52.8" y="25.8" fill="#18252F" width="15.1" height="3"/>
				<path fill="#18252F" d="M63.3,14.1c0,0.8-0.7,1.5-1.5,1.5v-1.5v-1.5h1.5V14.1z"/>
				<path fill="#18252F" d="M61.8,15.6H39.4c-0.6-0.6-1.3-1.1-2.1-1.5h24.5V15.6z"/>
				<path fill="#D4EAE3" d="M60.3,3v9.6H31.6c-6.4,0-11.6,5.2-11.6,11.5V70c0,4.7-3.8,8.6-8.5,8.6C6.8,78.6,3,74.7,3,70V3H60.3z"/>
				<path fill="#18252F" d="M63.7,90.1c0.3-0.3,0.6-0.7,0.8-1.2c0.2-0.5,0.3-1,0.3-1.7c0-0.6-0.1-1.1-0.3-1.5
					c-0.2-0.4-0.5-0.7-0.8-1c-0.3-0.3-0.8-0.5-1.2-0.7c-0.5-0.2-1-0.4-1.5-0.5v7.6c0.6,0,1.1-0.1,1.5-0.3
					C63,90.6,63.4,90.4,63.7,90.1z M54.9,72.8c0.5-0.6,1.2-1,2-1.3s1.6-0.5,2.4-0.6v-2h1.7v2c1.6,0.2,2.9,0.8,3.9,1.8
					c1,1,1.6,2.4,2,4.2h-2.6c-0.4-2-1.5-3.2-3.4-3.5v7.4l1.8,0.5c0.4,0.1,0.9,0.3,1.4,0.5s1.1,0.6,1.6,1c0.5,0.4,0.9,1,1.3,1.7
					c0.4,0.7,0.5,1.4,0.5,2.4c0,1-0.2,1.8-0.5,2.6c-0.3,0.8-0.8,1.4-1.4,2c-0.6,0.6-1.3,1-2.1,1.3c-0.8,0.3-1.7,0.5-2.7,0.6v2.5
					h-1.7v-2.5c-2-0.2-3.6-0.9-4.8-2.1c-1.2-1.2-1.9-2.8-2-5h2.5c0,1.3,0.5,2.4,1.3,3.2c0.8,0.8,1.8,1.3,3,1.5v-8
					c-1.1-0.3-2-0.5-2.8-0.8c-0.8-0.3-1.4-0.7-1.9-1.1c-0.5-0.4-0.9-0.9-1.1-1.6c-0.2-0.6-0.4-1.4-0.4-2.3c0-0.9,0.2-1.7,0.5-2.5
					C53.9,74,54.4,73.4,54.9,72.8z M56.8,74.4c-0.7,0.6-1,1.5-1,2.6c0,0.5,0.1,1,0.3,1.3c0.2,0.4,0.4,0.7,0.7,0.9
					c0.3,0.3,0.7,0.5,1.1,0.7c0.4,0.2,0.9,0.3,1.4,0.5v-7C58.3,73.5,57.5,73.8,56.8,74.4z"/>
				<rect x="40.2" y="80.1" fill="#18252F" width="1.5" height="1.5"/>
				<rect x="40.2" y="78.6" fill="#18252F" width="1.5" height="1.5"/>
				<path fill="#18252F" d="M36.9,15.6c2.9,1.8,4.8,4.9,4.8,8.5v54.5h-1.5V24.1c0-4.7-3.8-8.5-8.5-8.5H36.9z"/>
				<path fill="#18252F" d="M40.2,80.1v1.5H11.5c2.1,0,4-0.6,5.7-1.5H40.2z"/>
				<path fill="#18252F" d="M40.2,78.6v1.5h-23c0.7-0.4,1.4-0.9,2.1-1.5H40.2z"/>
				<path fill="#3CB9C1" d="M40.2,24.1v54.5H19.3c2.3-2.1,3.8-5.2,3.8-8.6V24.1c0-4.7,3.8-8.5,8.6-8.5
					C36.4,15.6,40.2,19.4,40.2,24.1z"/>
				<path fill="#18252F" d="M43.2,24.1V103h57.3V24.1c0-4.7-3.8-8.5-8.6-8.5H61.8c0.8,0,1.5-0.7,1.5-1.5v-1.5h28.7
					c6.4,0,11.6,5.2,11.6,11.5v80.4c0,0.8-0.7,1.5-1.5,1.5H41.7c-0.8,0-1.5-0.7-1.5-1.5v-23h1.5v-1.5v-1.5V24.1
					c0-3.6-1.9-6.8-4.8-8.5h2.5C41.7,17.7,43.2,20.7,43.2,24.1z"/>
				<path fill="#18252F" d="M39.4,15.6h-2.5c-1.5-0.9-3.3-1.5-5.3-1.5h5.7C38.1,14.5,38.8,15,39.4,15.6z"/>
				<path fill="#18252F" d="M37.3,14.1h-5.7v-1.5C33.7,12.6,35.7,13.1,37.3,14.1z"/>
				<path fill="#18252F" d="M31.6,14.1c1.9,0,3.7,0.6,5.3,1.5h-5.3V14.1z"/>
				<path fill="#18252F" d="M23.1,70c0,3.4-1.5,6.4-3.8,8.6h-2.5c2.9-1.8,4.8-4.9,4.8-8.6V24.1c0-5.5,4.5-10,10.1-10v1.5
					c-4.7,0-8.6,3.8-8.6,8.5V70z"/>
				<path fill="#18252F" d="M16.8,78.6h2.5c-0.6,0.6-1.3,1.1-2.1,1.5h-5.7C13.5,80.1,15.3,79.5,16.8,78.6z"/>
				<path fill="#18252F" d="M20.1,24.1c0-6.4,5.2-11.5,11.6-11.5v1.5c-5.6,0-10.1,4.5-10.1,10V70c0,3.6-1.9,6.8-4.8,8.6h-5.3
					c4.7,0,8.5-3.8,8.5-8.6V24.1z"/>
				<path fill="#18252F" d="M11.5,80.1h5.7c-1.7,0.9-3.6,1.5-5.7,1.5V80.1z"/>
				<path fill="#18252F" d="M16.8,78.6c-1.5,0.9-3.3,1.5-5.3,1.5v-1.5H16.8z"/>
				<path fill="#18252F" d="M3,70c0,4.7,3.8,8.6,8.5,8.6v1.5c-5.5,0-10-4.5-10-10.1V1.5h60.3v11.1v1.5H37.3c-1.7-1-3.6-1.5-5.7-1.5
					h28.6V3H3V70z"/>
				<path fill="#18252F" d="M11.5,81.6C5.2,81.6,0,76.4,0,70V1.5C0,0.7,0.7,0,1.5,0h60.3c0.8,0,1.5,0.7,1.5,1.5v11.1h-1.5V1.5H1.5
					V70c0,5.6,4.5,10.1,10,10.1V81.6z"/>
			</g>
			<g>
			</g>
		</g>
	</g>
</g>
</svg>
