<?xml version="1.0" encoding="utf-8"?>
<!-- Generator: Adobe Illustrator 23.0.1, SVG Export Plug-In . SVG Version: 6.00 Build 0)  -->
<svg version="1.1" id="Layer_1" xmlns="http://www.w3.org/2000/svg" xmlns:xlink="http://www.w3.org/1999/xlink" x="0px" y="0px"
	 viewBox="0 0 110.3397827 79.5497971" style="enable-background:new 0 0 110.3397827 79.5497971;" xml:space="preserve">
<style type="text/css">
	.st0{fill:#D3EEE4;}
	.st1{fill:#06C7CA;}
	.st2{fill:#18252F;}
</style>
<g>
	<g id="XMLID_125_">
		<g>
			<rect x="8.8798838" y="9.2802" class="st0" width="93.0497971" height="53.9296989"/>
			<path class="st1" d="M108.8397827,63.2098999v8.5302963c0,3.4697037-2.8397827,6.3096008-6.3095016,6.3096008H7.8202839
				C4.3495836,78.0497971,1.5,75.2098999,1.5,71.7401962v-8.5302963V7.8105001C1.5,4.3397999,4.3495836,1.5,7.8202839,1.5
				h94.7099991c3.4697189,0,6.3095016,2.8397999,6.3095016,6.3105001V63.2098999z M101.9296799,63.2098999V9.2802H8.8798838
				v53.9296989H101.9296799z"/>
		</g>
		<g>
			<path class="st2" d="M102.5302811,79.5497971H7.8202839C3.5077839,79.5497971,0,76.046402,0,71.7401962V7.8105001
				C0,3.5039001,3.5077839,0,7.8202839,0h94.7099991c4.3066025,0,7.8095016,3.5039001,7.8095016,7.8105001v63.9296951
				C110.3397827,76.046402,106.8368835,79.5497971,102.5302811,79.5497971z M7.8202839,3C5.1620836,3,3,5.1581998,3,7.8105001
				v63.9296951c0,2.6519012,2.1620836,4.8096008,4.8202839,4.8096008h94.7099991
				c2.652298,0,4.8095016-2.1576996,4.8095016-4.8096008V7.8105001C107.3397827,5.1581998,105.182579,3,102.5302811,3H7.8202839z"/>
			<rect x="49.8397827" y="69.3202972" class="st2" width="10.6602173" height="3"/>
			<path class="st2" d="M101.9296799,64.7098999H8.8798838c-0.8281002,0-1.5-0.671402-1.5-1.5V9.2802
				c0-0.8285999,0.6718998-1.5,1.5-1.5h93.0497971c0.8281021,0,1.5,0.6714001,1.5,1.5v53.9296989
				C103.4296799,64.0384979,102.757782,64.7098999,101.9296799,64.7098999z M10.3798838,61.7098999h90.0497971V10.7802H10.3798838
				V61.7098999z"/>
			
				<rect x="40.6487083" y="28.2452049" transform="matrix(0.7071068 -0.7071068 0.7071068 0.7071068 -5.9284725 45.1775017)" class="st2" width="21.842247" height="2.9996884"/>
			
				<rect x="37.783474" y="34.3551064" transform="matrix(0.7071068 -0.7071068 0.7071068 0.7071068 -8.2205973 51.8636208)" class="st2" width="41.4223137" height="2.9996884"/>
		</g>
	</g>
</g>
</svg>
