<?xml version="1.0" encoding="utf-8"?><!--Generator: Adobe Illustrator 22.1.0, SVG Export Plug-In . SVG Version: 6.00 Build 0)--><svg version="1.1" id="Lager_1" xmlns="http://www.w3.org/2000/svg" xmlns:xlink="http://www.w3.org/1999/xlink" x="0px" y="0px" viewBox="0 0 255.62 80.06" enable-background="new 0 0 255.62 80.06" xml:space="preserve"><path fill="#FFFFFF" d="M21.37,79.72l8.17-11.34h18.22L36.44,52.75L16.77,79.72H0l27.96-38.77c0.9-1.28,2.13-2.41,3.71-3.37
	c1.72-1.05,3.39-1.57,5.02-1.57c1.65,0,3.32,0.52,5.02,1.57c1.5,0.92,2.71,2.05,3.63,3.37l27.31,38.77H21.37z"/><path fill="#FFFFFF" d="M130.44,57.52c0,6.37-2.52,11.68-7.51,15.87c-4.94,4.22-11.25,6.32-18.84,6.32H74.9V52.51h13.5v15.97h15.68
	c3.76,0,6.86-0.95,9.26-2.86c2.44-1.89,3.65-4.41,3.65-7.52c0-3.1-1.21-5.66-3.67-7.66c-2.45-2-5.5-2.99-9.21-2.99H74.9l8.58-11.33
	h20.62c7.7,0,14.04,1.96,18.94,5.91C127.97,45.99,130.44,51.15,130.44,57.52"/><rect x="134.81" y="51.26" fill="#FFFFFF" width="8.82" height="28.56"/><path fill="#FFFFFF" d="M182.01,76.16c0,2.59-1.16,3.9-3.49,3.9c-1.75,0-3.34-0.65-4.85-1.94l-16.72-13.98v15.68h-8.92v-24.9
	c0-1.07,0.34-1.94,1.02-2.63c0.68-0.68,1.65-1.03,2.86-1.03c1.65,0,3.15,0.57,4.51,1.71l16.72,14V51.26h8.87V76.16z"/><g><defs><path id="SVGID_1_" d="M255.18,79.72h-19.72l-1.45-1.12c-2.81,0.73-5.82,1.12-9.01,1.12h-13.13c-7.66,0-13.96-2.11-18.95-6.32
			c-4.94-4.19-7.46-9.5-7.46-15.87c0-6.37,2.47-11.53,7.41-15.5c4.94-3.95,11.29-5.91,18.95-5.91h13.13
			c7.71,0,14.05,1.96,18.95,5.91c4.94,3.96,7.37,9.12,7.37,15.5c0,5.4-1.89,10.18-5.72,14.27L255.18,79.72z M224.94,47.45h-13.08
			c-3.78,0-6.83,0.99-9.26,2.99c-2.42,2-3.63,4.56-3.63,7.66c0,3.11,1.21,5.63,3.63,7.52c2.42,1.91,5.48,2.86,9.26,2.86h10.03
			l-6.01-5.04h19.58l0.44,0.39c1.26-1.7,1.89-3.59,1.89-5.73c0-3.15-1.21-5.71-3.63-7.68C231.78,48.44,228.68,47.45,224.94,47.45z"/></defs><clipPath id="SVGID_2_"><use xlink:href="#SVGID_1_" overflow="visible"/></clipPath><linearGradient id="SVGID_3_" gradientUnits="userSpaceOnUse" x1="-324.6914" y1="411.2995" x2="-299.8771" y2="411.2995" gradientTransform="matrix(2.8103 0 0 1.758 1097.826 -665.1454)"><stop offset="0" style="stop-color:#E42324"/><stop offset="1" style="stop-color:#BF0C1D"/></linearGradient><rect x="185.45" y="36.12" clip-path="url(#SVGID_2_)" fill="url(#SVGID_3_)" width="69.74" height="43.6"/></g><path fill="#C00B1D" d="M255.18,79.72v-0.15h-19.68l-1.5-1.16l-0.05,0.05c-2.76,0.73-5.77,1.12-8.97,1.12h-13.13
	c-7.61,0-13.86-2.08-18.85-6.3c-4.94-4.17-7.42-9.43-7.42-15.75c0-6.32,2.47-11.44,7.37-15.36c4.9-3.93,11.19-5.9,18.85-5.9h13.13
	c7.71,0,13.96,1.97,18.85,5.9c4.89,3.93,7.32,9.04,7.32,15.36c0,5.38-1.89,10.08-5.67,14.15l-0.15,0.15l9.79,8.02L255.18,79.72
	v-0.15V79.72l0.1-0.1l-9.64-7.95l-0.1,0.12l0.15,0.12c3.83-4.14,5.77-8.97,5.77-14.39c0-6.41-2.52-11.64-7.46-15.6
	c-4.94-3.99-11.29-5.97-19.04-5.97h-13.13c-7.71,0-14.05,1.99-19.04,5.97c-4.99,3.96-7.46,9.18-7.46,15.6
	c0,6.4,2.52,11.75,7.51,15.99c5.04,4.26,11.39,6.37,19.04,6.37h13.13c3.2,0,6.25-0.39,9.06-1.14l-0.05-0.15l-0.1,0.15l1.45,1.14
	h20.26l-0.34-0.27L255.18,79.72z M224.94,47.45v-0.16h-13.08c-3.78,0-6.93,1.01-9.35,3.03c-2.47,2.01-3.73,4.63-3.73,7.78
	c0,3.14,1.26,5.73,3.73,7.65c2.42,1.96,5.57,2.91,9.35,2.91h10.47l-6.01-5.02h19.09l0.39,0.32l0.1,0.12l0.1-0.15
	c1.31-1.72,1.94-3.66,1.94-5.83c0-3.19-1.26-5.81-3.68-7.8c-2.42-2-5.53-3-9.3-3v0.33c3.73,0,6.74,0.98,9.11,2.92
	c2.38,1.95,3.54,4.46,3.54,7.56c0,2.1-0.63,3.99-1.84,5.63l0.14,0.1l0.1-0.1l-0.44-0.39l-0.05-0.05h-20.06l6.01,5.04h-9.6
	c-3.73,0-6.78-0.95-9.16-2.86c-2.38-1.89-3.59-4.31-3.59-7.38c0-3.06,1.21-5.56,3.59-7.54c2.38-1.95,5.43-2.94,9.16-2.94h13.08
	V47.45z"/><linearGradient id="SVGID_4_" gradientUnits="userSpaceOnUse" x1="94.1748" y1="8.9895" x2="112.1538" y2="8.9895"><stop offset="0" style="stop-color:#E42324"/><stop offset="1" style="stop-color:#BF0C1D"/></linearGradient><path fill="url(#SVGID_4_)" d="M112.15,8.99c0,4.96-4.02,8.99-8.99,8.99c-4.96,0-8.99-4.02-8.99-8.99c0-4.96,4.02-8.99,8.99-8.99
	C108.13,0,112.15,4.02,112.15,8.99z"/><linearGradient id="SVGID_5_" gradientUnits="userSpaceOnUse" x1="118.8643" y1="22.7235" x2="131.8359" y2="22.7235"><stop offset="0" style="stop-color:#E42324"/><stop offset="1" style="stop-color:#BF0C1D"/></linearGradient><path fill="url(#SVGID_5_)" d="M131.84,22.72c0,3.58-2.9,6.49-6.49,6.49c-3.58,0-6.49-2.9-6.49-6.49c0-3.58,2.9-6.49,6.49-6.49
	C128.93,16.24,131.84,19.14,131.84,22.72z"/><linearGradient id="SVGID_6_" gradientUnits="userSpaceOnUse" x1="134.0479" y1="40.624" x2="143.9473" y2="40.624"><stop offset="0" style="stop-color:#E42324"/><stop offset="1" style="stop-color:#BF0C1D"/></linearGradient><path fill="url(#SVGID_6_)" d="M143.95,40.62c0,2.73-2.22,4.95-4.95,4.95c-2.73,0-4.95-2.22-4.95-4.95c0-2.73,2.22-4.95,4.95-4.95
	C141.73,35.67,143.95,37.89,143.95,40.62z"/></svg>